<svg xmlns="http://www.w3.org/2000/svg" xmlns:xlink="http://www.w3.org/1999/xlink" viewBox="0 0 962.21 256.5"><defs><linearGradient id="linear-gradient" x1="437.6" x2="623.92" y1="11.7" y2="198.01" gradientTransform="matrix(1 0 0 -1 0 257.49)" gradientUnits="userSpaceOnUse"><stop offset="0" stop-color="#fff"/><stop offset=".5" stop-color="#bdbec0"/><stop offset="1" stop-color="#fff"/></linearGradient><linearGradient id="linear-gradient-2" x1="430.17" x2="565.04" y1="94.56" y2="229.42" gradientTransform="matrix(1 0 0 -1 0 257.49)" gradientUnits="userSpaceOnUse"><stop offset="0" stop-color="#231f20"/><stop offset=".5" stop-color="#404244"/><stop offset="1" stop-color="#231f20"/></linearGradient><linearGradient xlink:href="#linear-gradient-2" id="linear-gradient-3" x1="628.47" x2="774.7" y1="106.58" y2="252.8"/><linearGradient xlink:href="#linear-gradient-2" id="linear-gradient-4" x1="50.66" x2="199.05" y1="90.79" y2="239.19"/><linearGradient xlink:href="#linear-gradient-2" id="linear-gradient-5" x1="166.3" x2="291.06" y1="93.02" y2="217.79"/><linearGradient xlink:href="#linear-gradient-2" id="linear-gradient-6" x1="283.04" x2="431.36" y1="100.66" y2="248.97"/><linearGradient xlink:href="#linear-gradient-2" id="linear-gradient-7" x1="758.03" x2="906.43" y1="90.78" y2="239.18"/><linearGradient xlink:href="#linear-gradient-2" id="linear-gradient-8" x1="535.39" x2="660.15" y1="104.05" y2="228.81"/><linearGradient xlink:href="#linear-gradient-2" id="linear-gradient-9" x1="515.17" x2="579.08" y1="21.46" y2="85.36"/><linearGradient xlink:href="#linear-gradient-2" id="linear-gradient-10" x1="578.94" x2="642.97" y1="16.6" y2="80.63"/><linearGradient xlink:href="#linear-gradient-2" id="linear-gradient-11" x1="641.04" x2="699.37" y1="27.84" y2="86.17"/><linearGradient xlink:href="#linear-gradient-2" id="linear-gradient-12" x1="689.12" x2="742.87" y1="30.14" y2="83.91"/><linearGradient xlink:href="#linear-gradient-2" id="linear-gradient-13" x1="727.95" x2="797.25" y1="22.37" y2="91.67"/><linearGradient xlink:href="#linear-gradient-2" id="linear-gradient-14" x1="795.32" x2="853.95" y1="27.75" y2="86.38"/><style>.cls-1{fill:#fff}.cls-2{fill:#eb2127}.cls-3{fill:#231f20}</style></defs><g id="Layer_2" data-name="Layer 2"><g id="Layer_2-2" data-name="Layer 2"><g id="Layer_1-2" data-name="Layer 1-2"><path d="M527.53 58.7c1.26-2.46 1.31-4.36.14-5.72s-3.3-2-6.38-2h-2.72a17 17 0 0 0-8 1.55c-1.9 1-3.58 3-5 5.83l-4.62 9.33c-1.27 2.72-1.53 4.87-.82 6.42s2.72 3 6 4.27l23.36 7.38q29.07 9.73 17.11 33.63L537.32 138q-12.24 24.68-51.89 24.68h-35q-21.17 0-29.88-9.42-7-7.64-3.56-18.75l60.08-20-8.7 17.29c-1.26 2.34-1.31 4.22-.12 5.63s3.21 2.15 6.11 2.15h3.24c3.45 0 6.09-.51 7.88-1.55a13.56 13.56 0 0 0 4.9-5.84l6-12c1.46-2.84 1.76-5 1-6.51s-2.86-2.9-6.12-4.19l-23.62-7.38q-29.32-9.92-17.39-33.63l8.15-15.94q12.48-24.67 51.62-24.68h34.5q20.91 0 29.6 9.23c4.6 4.9 5.9 10.87 3.85 17.93l-58.56 19.42 8.15-15.75ZM799.16 29.16l-102.4 132.18h-57.87l32.6-132.18h52.43l-26.63 84.75 59.5-84.75zM149.87 54.23l-13.85 27.23h43.45l-12.49 24.86h-43.47l-15.21 29.76H161l-12.49 25.26H45.3l58.08-114.45-7.69-17.73H209.9l-12.49 25.07zM226.75 135.29h44.01l-13.33 26.05h-94.27l58.11-114.43-7.68-17.75h66.93zM452 29.16 396.87 138a43 43 0 0 1-2.28 4q-13.5 20.7-49.59 20.69h-35.59q-21.2 0-29.88-9.42t-1.1-24l42.06-82.4-7.68-17.69h66.95l-51.62 101.43c-1.27 2.34-1.31 4.26-.12 5.74s3.19 2.23 6.11 2.23h3c3.44 0 6.07-.54 7.88-1.66a16 16 0 0 0 5.16-5.93L402 29.15h50ZM857.25 54.23 843.4 81.46h43.45l-12.49 24.86h-43.45l-15.22 29.76h52.7l-12.49 25.26H752.67l58.09-114.43-7.68-17.75h114.19l-12.49 25.07zM660.62 29.16l-67.09 132.18h-50.25l57.96-114.19-7.64-17.99z" class="cls-1"/><path d="m172.97 117.45-3.81 7.5H126.5l3.82-7.5zM199.43 65.36l-2.53 4.97h-42.74l2.53-4.97z" class="cls-2"/><path d="m149.87 54.23-13.85 27.23h43.45l-12.49 24.86h-43.47v.02l-15.21 29.74H161l-12.49 25.26H45.3l58.08-114.45-7.69-17.73H209.9l-12.49 25.07zM226.75 135.29h44.01l-13.33 26.05h-94.27l58.11-114.43-7.68-17.75h66.93z" class="cls-2"/><path d="m308.19 46.47-39.61 77.66h-23.72L297.16 21l11 25.5Z" class="cls-2"/><path d="M452 29.16 396.87 138a43 43 0 0 1-2.28 4q-13.5 20.7-49.59 20.69h-35.59q-21.2 0-29.88-9.42t-1.1-24l42.06-82.42-7.68-17.69h66.95l-51.62 101.45a8 8 0 0 0-.73 1.73 5.1 5.1 0 0 0-.24 1.55 3.8 3.8 0 0 0 .86 2.46 4 4 0 0 0 .49.52.5.5 0 0 0 .12.1 2 2 0 0 0 .42.35 2 2 0 0 0 .24.16 1.8 1.8 0 0 0 .33.19 7.5 7.5 0 0 0 1 .42 11 11 0 0 0 1.27.31 10 10 0 0 0 1.29.14h3.92a23.6 23.6 0 0 0 4.55-.4 12 12 0 0 0 1.81-.52 9 9 0 0 0 1.52-.73l.51-.33.16-.12a9.2 9.2 0 0 0 1.32-1.15c.23-.23.44-.45.65-.7a.5.5 0 0 0 .16-.17l.09-.1c.14-.16.26-.31.4-.49s.44-.56.65-.87l.63-1 .61-1L402 29.17h50ZM456.48 109.61l-39.39 13.14 18.8-37.16a26.8 26.8 0 0 0 1.69 6c3.07 7.5 9.4 13.54 18.89 18Z" class="cls-2"/><path d="M527.53 58.7a6.62 6.62 0 0 0 .92-4.05 1 1 0 0 0 0-.16 1.5 1.5 0 0 0-.1-.38.6.6 0 0 0-.07-.17.7.7 0 0 0-.1-.21.5.5 0 0 0-.09-.17.4.4 0 0 1 0-.07 4 4 0 0 0-.33-.45q-1.75-2-6.38-2h-2.7a17 17 0 0 0-8 1.55c-1.9 1-3.58 3-5 5.83l-4.62 9.33c-1.27 2.74-1.53 4.87-.82 6.42s2.72 3 6 4.27l23.36 7.38c.65.21 1.27.44 1.88.66l.61.23 1.19.47c.38.14.77.3 1.13.45l.49.23.28.12a2.5 2.5 0 0 1 .33.16 4 4 0 0 1 .4.19l.68.31a3 3 0 0 0 .38.19l.63.33a3 3 0 0 1 .35.19c.24.12.49.24.72.38s.59.33.87.51c.45.28.91.56 1.34.85.14.09.28.17.42.28l.84.59c.8.61 1.55 1.22 2.23 1.85l.66.66c.21.21.42.44.61.65s.35.38.51.58a3 3 0 0 1 .38.49q.35.42.63.84c.21.28.38.58.58.87.23.37.44.73.63 1.1a11 11 0 0 1 .52 1.12 19 19 0 0 1 .79 2.36c.14.54.24 1.08.33 1.64 0 .28.07.56.09.84a6 6 0 0 1 0 .75 16.6 16.6 0 0 1 0 2.44 20 20 0 0 1-.4 2.79 33.4 33.4 0 0 1-3 8.48L537.35 138c-.31.65-.66 1.27-1 1.9-.16.31-.33.61-.52.91-.31.54-.65 1.08-1 1.6s-.63.92-1 1.38a40 40 0 0 1-3.17 3.82l-1.17 1.17-1.2 1.13c-.47.42-.94.82-1.43 1.2-.26.21-.51.4-.77.59a.8.8 0 0 1-.14.12 2 2 0 0 1-.26.19l-.24.17a1 1 0 0 1-.14.09 3 3 0 0 1-.33.26c-.17.14-.37.26-.58.4l-.09.05c-.47.33-.94.66-1.45 1l-.94.58a.24.24 0 0 0-.1.05l-.44.26a1.3 1.3 0 0 0-.23.12c-.42.24-.84.47-1.26.68a.08.08 0 0 1-.07 0 10 10 0 0 1-1 .52c-.17.1-.37.19-.56.28s-.24.12-.37.16c-.52.26-1.06.51-1.62.73l-1.36.56-.4.14-.23.09c-.31.14-.65.24-1 .37h-.07c-.61.23-1.26.44-1.9.65-.91.3-1.85.56-2.81.8l-1.06.28c-.61.16-1.24.3-1.87.44-1.34.3-2.7.54-4.1.77-.72.12-1.41.23-2.15.31s-1.45.19-2.18.26l-1.38.14-1.61.14h-.42c-.66 0-1.33.09-2 .12l-1.48.07-1.73.07H450.4c-1.4 0-2.76 0-4.08-.1-1 0-2-.1-3-.19-.51 0-1-.09-1.52-.16-1-.1-1.95-.23-2.88-.38h-.14l-1.12-.21a.3.3 0 0 1-.14 0 6 6 0 0 1-.79-.16c-.37-.07-.72-.14-1.06-.23h-.1l-.75-.17c-.45-.12-.91-.23-1.34-.37a15 15 0 0 1-1.41-.42c-.42-.14-.84-.28-1.24-.44s-.8-.3-1.2-.47c-.44-.16-.87-.35-1.27-.54l-.3-.14-.23-.1a8 8 0 0 1-.82-.42l-.26-.14-.45-.26-.09-.05h-.05l-.38-.23-.09-.05h-.05a1.2 1.2 0 0 1-.24-.14.3.3 0 0 1-.1-.07c-.35-.21-.7-.44-1-.66l-.14-.1c-.42-.3-.8-.59-1.19-.89l-.07-.05a.6.6 0 0 0-.16-.12c-.35-.3-.7-.59-1-.91s-.77-.73-1.13-1.13a5 5 0 0 1-.44-.51c-.14-.16-.28-.31-.4-.47s-.14-.16-.19-.24a.3.3 0 0 1-.07-.09c-.17-.21-.35-.44-.51-.66s-.45-.68-.66-1-.42-.7-.59-1.06-.45-1-.66-1.45c-.1-.24-.19-.49-.28-.73s-.16-.51-.23-.77-.19-.7-.26-1.06-.12-.61-.17-.91a15 15 0 0 1-.19-1.66 20 20 0 0 1 .31-4.88 4 4 0 0 1 .1-.56 14.5 14.5 0 0 1 .42-1.76c.09-.3.17-.61.26-.91l60.08-20-8.7 17.29c-1.26 2.34-1.31 4.22-.12 5.65s3.21 2.13 6.11 2.13h3.26c3.44 0 6.07-.51 7.87-1.55.23-.14.45-.28.68-.44a8.8 8.8 0 0 0 1.29-1.12c.21-.21.42-.45.61-.68a4 4 0 0 0 .4-.52 1.2 1.2 0 0 0 .21-.26l.07-.1.26-.37a1 1 0 0 0 .12-.19 1 1 0 0 0 .12-.17 5 5 0 0 0 .33-.54l.16-.26c.21-.37.42-.75.63-1.15l6-12.05c1.46-2.84 1.78-5 1-6.51s-2.86-2.9-6.12-4.19l-23.62-7.38q-29.32-9.92-17.39-33.63l8.15-15.94c.16-.31.31-.63.49-.92.24-.45.49-.89.75-1.33.14-.24.28-.49.44-.73.59-1 1.22-1.9 1.87-2.79l.63-.84s.09-.1.12-.16a.6.6 0 0 0 .12-.16l.14-.17c.17-.23.35-.44.54-.65s.52-.63.78-.92.58-.63.87-.94c.52-.56 1.06-1.08 1.62-1.6a3.6 3.6 0 0 1 .4-.38l1.13-1 .68-.56c.54-.45 1.12-.89 1.69-1.29l.68-.49c.26-.17.52-.37.78-.54.47-.31.94-.61 1.43-.91a1.3 1.3 0 0 1 .23-.12c.47-.3.94-.56 1.43-.82.24-.14.49-.28.73-.4.72-.38 1.45-.75 2.2-1.08s1.47-.66 2.22-1c.44-.17.86-.35 1.31-.51l1.33-.49c.3-.1.59-.21.91-.3.77-.26 1.55-.51 2.34-.73l.28-.07c.94-.26 1.88-.51 2.84-.72l.91-.21 1.66-.35c.14 0 .3-.05.45-.09.66-.12 1.34-.23 2-.33.49-.09 1-.16 1.5-.23.82-.12 1.66-.23 2.51-.31l1.4-.14c.87-.09 1.76-.16 2.65-.23l2.74-.14a.22.22 0 0 1 .16 0c.49 0 1-.05 1.47-.05 1 0 2.08-.05 3.14-.05h34.5q20.91 0 29.6 9.23c4.6 4.9 5.9 10.87 3.85 17.93l-58.53 19.48 8.15-15.75Z" class="cls-2"/><path d="m579.05 66.29-18.23 35.93a28.2 28.2 0 0 0-1.76-6.3c-2.93-7.08-8.76-12.84-17.39-17.16ZM583.69 176.74c-.24-.24-.51-.47-.78-.7a7.5 7.5 0 0 0-.85-.63c-.31-.19-.63-.38-1-.56s-.68-.33-1.05-.49a15 15 0 0 0-1.62-.56l-.77-.21-.7-.16c-.3-.07-.61-.12-.94-.17s-.77-.12-1.17-.17a9 9 0 0 0-1-.1l-.82-.07c-.78-.05-1.61-.07-2.46-.07h-33.4l-29.86 55.28h22.36l10.64-19.66h5.09l-3.51 19.66h22.49l1.33-20.72q8.48-2.12 12-8.62l6.54-12q3.38-6.18-.49-10.07Zm-21.64 9.5-4.95 9.11a8 8 0 0 1-.45.82 5 5 0 0 1-.51.68 2.6 2.6 0 0 1-.28.3 3 3 0 0 1-.26.24 4 4 0 0 1-.61.42 7.4 7.4 0 0 1-3.45.7h-5.91l8.46-15.61h5.32a3.88 3.88 0 0 1 2.56.68 2 2 0 0 1 .21.21c.49.59.45 1.41-.12 2.44ZM647.7 79.21l-20.36 82.49h-21.53zM660.62 29.16l-67.09 132.18h-50.25l57.96-114.17-2.26-5.38-5.38-12.63zM706.43 181.17v.72a6 6 0 0 1-.14.79 6 6 0 0 1-.17.77c-.07.26-.17.52-.26.8s-.26.66-.42 1-.33.68-.52 1l-5.34 9.66h-22.15l5.57-10.24a2.05 2.05 0 0 0 .12-2.39 3.21 3.21 0 0 0-2.67-.94h-.85a7.15 7.15 0 0 0-3.51.7c-.1.05-.19.12-.3.19s-.38.3-.58.47-.23.24-.33.38a2.4 2.4 0 0 0-.33.42c-.21.3-.42.65-.63 1l-16.2 29.76a2 2 0 0 0 0 2.39 3.36 3.36 0 0 0 2.72.94h.85a5 5 0 0 0 .56 0 7 7 0 0 0 1-.09 3 3 0 0 0 .45-.07 4.3 4.3 0 0 0 1-.31l.4-.21a6.9 6.9 0 0 0 2.25-2.56l5.61-10.35h22l-7.13 13.33a17.6 17.6 0 0 1-1.57 2.42 9 9 0 0 1-.7.82 2.4 2.4 0 0 1-.21.23 18 18 0 0 1-2.13 1.94 19 19 0 0 1-2.49 1.6 22 22 0 0 1-2.88 1.29c-.51.19-1 .37-1.57.52s-1.08.3-1.66.44l-.38.09c-.3.07-.59.12-.89.17s-.42.09-.63.12a.8.8 0 0 1-.16 0h-.26a1.5 1.5 0 0 1-.3 0c-.31.07-.65.12-1 .16l-1.47.16c-.35 0-.68.07-1.05.09-.56.05-1.13.07-1.73.09s-1.22 0-1.83 0h-16.15c-.77 0-1.48 0-2.18-.12l-1-.1c-.66-.09-1.31-.17-1.92-.31a3 3 0 0 1-.44-.09l-.44-.1h-.07a10 10 0 0 1-.91-.26c-.24-.07-.49-.14-.72-.23s-.52-.17-.77-.28-.49-.21-.72-.33a3.3 3.3 0 0 1-.52-.28l-.14-.07a5 5 0 0 1-.65-.37 10 10 0 0 1-1-.7 8 8 0 0 1-.7-.63c-2.58-2.6-2.74-6-.49-10.08l17.29-32.11q5.58-10.31 23.1-10.33h15a23.6 23.6 0 0 1 10.1 1.83l.61.31c.17.1.35.19.51.3a6.6 6.6 0 0 1 .91.61.6.6 0 0 1 .16.1 4 4 0 0 1 .56.49l.07.05a3 3 0 0 1 .31.3 7 7 0 0 1 .58.63c.17.23.33.45.47.68a5 5 0 0 1 .4.73s0 .09 0 .12a6 6 0 0 1 .26.63 7 7 0 0 1 .28 1 8 8 0 0 1 .09 1.1ZM742.12 172.83l-29.88 55.28h-22.37l29.87-55.28zM796 51.42 740.01 161.7h-29.47zM799.16 29.16l-102.4 132.18h-57.87l32.6-132.18h52.43l-26.63 84.75.02-.02 59.48-84.73zM804.27 172.83l-29.88 55.28h-24.06l3.39-30.65-16.57 30.65h-16.21l29.88-55.28h24.06l-3.39 30.65 16.57-30.65zM861.07 182.25c0 .21-.07.42-.12.65s-.1.44-.17.66a13.6 13.6 0 0 1-1.12 2.69l-4 7.48h-22.37l4.36-8.06c.56-1 .59-1.78.05-2.39a3.34 3.34 0 0 0-2.7-.94h-1.34a7.1 7.1 0 0 0-3.44.7 3 3 0 0 0-.31.19c-.21.14-.4.3-.61.47s-.23.24-.35.38a2.4 2.4 0 0 0-.33.42 3.3 3.3 0 0 0-.33.47c-.1.17-.21.35-.31.54l-16.08 29.76a1.94 1.94 0 0 0 0 2.39 3.36 3.36 0 0 0 2.72.94h3.75a7.6 7.6 0 0 0 1.78-.33 6 6 0 0 0 .7-.28 5.7 5.7 0 0 0 2.23-2.44l4.22-7.87H821l1.57-2.93 3.37-6.33H853l-9.79 18.14c-2.34 4.43-5.35 7.59-9.07 9.42-.47.23-1 .45-1.47.65a15 15 0 0 1-1.59.56c-.56.17-1.13.33-1.73.49a39 39 0 0 1-3.87.68q-.57.08-1.17.12c-.31 0-.65.07-1 .09q-1 .08-2 .12a1 1 0 0 1-.23 0h-18.56c-.77 0-1.48-.05-2.18-.12l-1-.1c-.68-.09-1.33-.17-1.94-.31-.3-.05-.58-.12-.85-.19h-.07a10 10 0 0 1-.91-.26c-.24-.07-.49-.14-.72-.23s-.52-.17-.77-.28a13 13 0 0 1-2-1 10 10 0 0 1-1-.7 8 8 0 0 1-.7-.63 7 7 0 0 1-.59-.66c-.09-.1-.17-.23-.26-.35a5.5 5.5 0 0 1-.4-.63 7.7 7.7 0 0 1-.51-1.2 4 4 0 0 1-.12-.47c0-.12-.05-.23-.07-.33s0-.28 0-.44v-.65a11 11 0 0 1 1.59-5.3l17.29-32.11q5.58-10.31 23.1-10.33H846c1.17 0 2.25.05 3.3.14l1.43.16a.7.7 0 0 0 .17 0 22.801 22.801 0 0 1 3.46.77l.17.07c.28.1.54.19.8.3s.61.26.91.4a7 7 0 0 1 .89.49.24.24 0 0 1 .1 0s0 0 .07.05a9 9 0 0 1 .84.56 13 13 0 0 1 1 .92c.19.21.38.4.54.61s.21.26.31.4.3.45.42.68a4 4 0 0 1 .23.45c.07.16.14.31.19.45s.1.33.16.49a3.5 3.5 0 0 1 .12.49 7.3 7.3 0 0 1 .05 2.48Z" class="cls-2"/><path d="M857.25 54.23 843.4 81.46h43.45l-12.49 24.86h-43.45v.02l-15.22 29.74h52.7l-12.49 25.26H752.67l58.09-114.43-7.68-17.75h114.19l-12.49 25.07z" class="cls-2"/><path d="M561.12 1.34A99.4 99.4 0 0 0 544.37 0h-34.5a130.5 130.5 0 0 0-19.07 1.34H53.32L72.66 46 0 189.14h274.46l2.36-4.59c9.14 4 20.08 6 32.6 6H345c23.6 0 42.77-5.49 57.08-16.33 11.23 10.83 27.46 16.33 48.3 16.33h35c3.68 0 7.29-.14 10.78-.4l-35.57 65.8H641a61 61 0 0 0 8.49.58h15a73 73 0 0 0 9.38-.58H791l.35-.65a60.5 60.5 0 0 0 12.33 1.22h15c11.06 0 20.16-1.85 27.84-5.67a47.94 47.94 0 0 0 21.19-21.16l4.38-8.13 12.09-22.15c.42-.79.84-1.61 1.2-2.42l14.25-26.41h-12.35a38 38 0 0 0-2.25-5.39l28.14-56.9h-8.65L917.67 82H922l40.21-80.65H561.12Zm343.78 69-23.67 47.12h-43.52l-3.82 7.5h52.4l-20.81 42.11c.52.44 1 .87 1.5 1.34a18.18 18.18 0 0 1 4.29 18.82h.38l-1.26 2.36c-.28.63-.59 1.27-.94 1.92l-7.12 13.36h-.21L853 221.73c-3.44 6.51-8.11 11.27-13.92 14.15-5.32 2.65-12 3.92-20.43 3.92h-15c-8.43 0-15-2-19.75-5.9l-2.9 5.34H672.73a57 57 0 0 1-8.27.56h-15a36 36 0 0 1-14.3-2.58l-.47 2H488.62L530 162.63c-11.15 7.43-26 11.2-44.59 11.2h-35c-17.29 0-30.09-4.38-38-13a28.24 28.24 0 0 1-7.24-14.69c-.38.66-.77 1.31-1.19 1.94-11.13 17.09-31 25.76-58.91 25.76H309.4c-17.29 0-30.09-4.38-38.06-13-.23-.26-.47-.54-.73-.82l-6.37 12.47H27.17L91.1 46.53 78.73 18h391.38l-5.23 10.33c11.22-7.75 26.24-11.69 45-11.69h34.5c16.54 0 29 4.05 37 12L576.82 18h162.26l-9.66 30.75L751 18h184.26l-23.58 47.36h-47.6l-2.51 5h43.33Z" class="cls-2"/><path d="m172.97 117.45-3.81 7.5H126.5l3.82-7.5zM199.43 65.36l-2.53 4.97h-42.74l2.53-4.97z" class="cls-2"/><path d="m149.87 54.23-13.85 27.23h43.45l-12.49 24.86h-43.47v.02l-15.21 29.74H161l-12.49 25.26H45.3l58.08-114.45-7.69-17.73H209.9l-12.49 25.07zM226.75 135.29h44.01l-13.33 26.05h-94.27l58.11-114.43-7.68-17.75h66.93z" class="cls-2"/><path d="m308.19 46.47-39.61 77.66h-23.72L297.16 21l11 25.5Z" class="cls-2"/><path d="M452 29.16 396.87 138a43 43 0 0 1-2.28 4q-13.5 20.7-49.59 20.69h-35.59q-21.2 0-29.88-9.42t-1.1-24l42.06-82.42-7.68-17.69h66.95l-51.62 101.45a8 8 0 0 0-.73 1.73 5.1 5.1 0 0 0-.24 1.55 3.8 3.8 0 0 0 .86 2.46 4 4 0 0 0 .49.52.5.5 0 0 0 .12.1 2 2 0 0 0 .42.35 2 2 0 0 0 .24.16 1.8 1.8 0 0 0 .33.19 7.5 7.5 0 0 0 1 .42 11 11 0 0 0 1.27.31 10 10 0 0 0 1.29.14h3.92a23.6 23.6 0 0 0 4.55-.4 12 12 0 0 0 1.81-.52 9 9 0 0 0 1.52-.73l.51-.33.16-.12a9.2 9.2 0 0 0 1.32-1.15c.23-.23.44-.45.65-.7a.5.5 0 0 0 .16-.17l.09-.1c.14-.16.26-.31.4-.49s.44-.56.65-.87l.63-1 .61-1L402 29.17h50ZM456.48 109.61l-39.39 13.14 18.8-37.16a26.8 26.8 0 0 0 1.69 6c3.07 7.5 9.4 13.54 18.89 18Z" class="cls-2"/><path d="M527.53 58.7a6.62 6.62 0 0 0 .92-4.05 1 1 0 0 0 0-.16 1.5 1.5 0 0 0-.1-.38.6.6 0 0 0-.07-.17.7.7 0 0 0-.1-.21.5.5 0 0 0-.09-.17.4.4 0 0 1 0-.07 4 4 0 0 0-.33-.45q-1.75-2-6.38-2h-2.7a17 17 0 0 0-8 1.55c-1.9 1-3.58 3-5 5.83l-4.62 9.33c-1.27 2.74-1.53 4.87-.82 6.42s2.72 3 6 4.27l23.36 7.38c.65.21 1.27.44 1.88.66l.61.23 1.19.47c.38.14.77.3 1.13.45l.49.23.28.12a2.5 2.5 0 0 1 .33.16 4 4 0 0 1 .4.19l.68.31a3 3 0 0 0 .38.19l.63.33a3 3 0 0 1 .35.19c.24.12.49.24.72.38s.59.33.87.51c.45.28.91.56 1.34.85.14.09.28.17.42.28l.84.59c.8.61 1.55 1.22 2.23 1.85l.66.66c.21.21.42.44.61.65s.35.38.51.58a3 3 0 0 1 .38.49q.35.42.63.84c.21.28.38.58.58.87.23.37.44.73.63 1.1a11 11 0 0 1 .52 1.12 19 19 0 0 1 .79 2.36c.14.54.24 1.08.33 1.64 0 .28.07.56.09.84a6 6 0 0 1 0 .75 16.6 16.6 0 0 1 0 2.44 20 20 0 0 1-.4 2.79 33.4 33.4 0 0 1-3 8.48L537.35 138c-.31.65-.66 1.27-1 1.9-.16.31-.33.61-.52.91-.31.54-.65 1.08-1 1.6s-.63.92-1 1.38a40 40 0 0 1-3.17 3.82l-1.17 1.17-1.2 1.13c-.47.42-.94.82-1.43 1.2-.26.21-.51.4-.77.59a.8.8 0 0 1-.14.12 2 2 0 0 1-.26.19l-.24.17a1 1 0 0 1-.14.09 3 3 0 0 1-.33.26c-.17.14-.37.26-.58.4l-.09.05c-.47.33-.94.66-1.45 1l-.94.58a.24.24 0 0 0-.1.05l-.44.26a1.3 1.3 0 0 0-.23.12c-.42.24-.84.47-1.26.68a.08.08 0 0 1-.07 0 10 10 0 0 1-1 .52c-.17.1-.37.19-.56.28s-.24.12-.37.16c-.52.26-1.06.51-1.62.73l-1.36.56-.4.14-.23.09c-.31.14-.65.24-1 .37h-.07c-.61.23-1.26.44-1.9.65-.91.3-1.85.56-2.81.8l-1.06.28c-.61.16-1.24.3-1.87.44-1.34.3-2.7.54-4.1.77-.72.12-1.41.23-2.15.31s-1.45.19-2.18.26l-1.38.14-1.61.14h-.42c-.66 0-1.33.09-2 .12l-1.48.07-1.73.07H450.4c-1.4 0-2.76 0-4.08-.1-1 0-2-.1-3-.19-.51 0-1-.09-1.52-.16-1-.1-1.95-.23-2.88-.38h-.14l-1.12-.21a.3.3 0 0 1-.14 0 6 6 0 0 1-.79-.16c-.37-.07-.72-.14-1.06-.23h-.1l-.75-.17c-.45-.12-.91-.23-1.34-.37a15 15 0 0 1-1.41-.42c-.42-.14-.84-.28-1.24-.44s-.8-.3-1.2-.47c-.44-.16-.87-.35-1.27-.54l-.3-.14-.23-.1a8 8 0 0 1-.82-.42l-.26-.14-.45-.26-.09-.05h-.05l-.38-.23-.09-.05h-.05a1.2 1.2 0 0 1-.24-.14.3.3 0 0 1-.1-.07c-.35-.21-.7-.44-1-.66l-.14-.1c-.42-.3-.8-.59-1.19-.89l-.07-.05a.6.6 0 0 0-.16-.12c-.35-.3-.7-.59-1-.91s-.77-.73-1.13-1.13a5 5 0 0 1-.44-.51c-.14-.16-.28-.31-.4-.47s-.14-.16-.19-.24a.3.3 0 0 1-.07-.09c-.17-.21-.35-.44-.51-.66s-.45-.68-.66-1-.42-.7-.59-1.06-.45-1-.66-1.45c-.1-.24-.19-.49-.28-.73s-.16-.51-.23-.77-.19-.7-.26-1.06-.12-.61-.17-.91a15 15 0 0 1-.19-1.66 20 20 0 0 1 .31-4.88 4 4 0 0 1 .1-.56 14.5 14.5 0 0 1 .42-1.76c.09-.3.17-.61.26-.91l60.08-20-8.7 17.29c-1.26 2.34-1.31 4.22-.12 5.65s3.21 2.13 6.11 2.13h3.26c3.44 0 6.07-.51 7.87-1.55.23-.14.45-.28.68-.44a8.8 8.8 0 0 0 1.29-1.12c.21-.21.42-.45.61-.68a4 4 0 0 0 .4-.52 1.2 1.2 0 0 0 .21-.26l.07-.1.26-.37a1 1 0 0 0 .12-.19 1 1 0 0 0 .12-.17 5 5 0 0 0 .33-.54l.16-.26c.21-.37.42-.75.63-1.15l6-12.05c1.46-2.84 1.78-5 1-6.51s-2.86-2.9-6.12-4.19l-23.62-7.38q-29.32-9.92-17.39-33.63l8.15-15.94c.16-.31.31-.63.49-.92.24-.45.49-.89.75-1.33.14-.24.28-.49.44-.73.59-1 1.22-1.9 1.87-2.79l.63-.84s.09-.1.12-.16a.6.6 0 0 0 .12-.16l.14-.17c.17-.23.35-.44.54-.65s.52-.63.78-.92.58-.63.87-.94c.52-.56 1.06-1.08 1.62-1.6a3.6 3.6 0 0 1 .4-.38l1.13-1 .68-.56c.54-.45 1.12-.89 1.69-1.29l.68-.49c.26-.17.52-.37.78-.54.47-.31.94-.61 1.43-.91a1.3 1.3 0 0 1 .23-.12c.47-.3.94-.56 1.43-.82.24-.14.49-.28.73-.4.72-.38 1.45-.75 2.2-1.08s1.47-.66 2.22-1c.44-.17.86-.35 1.31-.51l1.33-.49c.3-.1.59-.21.91-.3.77-.26 1.55-.51 2.34-.73l.28-.07c.94-.26 1.88-.51 2.84-.72l.91-.21 1.66-.35c.14 0 .3-.05.45-.09.66-.12 1.34-.23 2-.33.49-.09 1-.16 1.5-.23.82-.12 1.66-.23 2.51-.31l1.4-.14c.87-.09 1.76-.16 2.65-.23l2.74-.14a.22.22 0 0 1 .16 0c.49 0 1-.05 1.47-.05 1 0 2.08-.05 3.14-.05h34.5q20.91 0 29.6 9.23c4.6 4.9 5.9 10.87 3.85 17.93l-58.53 19.48 8.15-15.75Z" class="cls-2"/><path d="m579.05 66.29-18.23 35.93a28.2 28.2 0 0 0-1.76-6.3c-2.93-7.08-8.76-12.84-17.39-17.16ZM583.69 176.74c-.24-.24-.51-.47-.78-.7a7.5 7.5 0 0 0-.85-.63c-.31-.19-.63-.38-1-.56s-.68-.33-1.05-.49a15 15 0 0 0-1.62-.56l-.77-.21-.7-.16c-.3-.07-.61-.12-.94-.17s-.77-.12-1.17-.17a9 9 0 0 0-1-.1l-.82-.07c-.78-.05-1.61-.07-2.46-.07h-33.4l-29.86 55.28h22.36l10.64-19.66h5.09l-3.51 19.66h22.49l1.33-20.72q8.48-2.12 12-8.62l6.54-12q3.38-6.18-.49-10.07Zm-21.64 9.5-4.95 9.11a8 8 0 0 1-.45.82 5 5 0 0 1-.51.68 2.6 2.6 0 0 1-.28.3 3 3 0 0 1-.26.24 4 4 0 0 1-.61.42 7.4 7.4 0 0 1-3.45.7h-5.91l8.46-15.61h5.32a3.88 3.88 0 0 1 2.56.68 2 2 0 0 1 .21.21c.49.59.45 1.41-.12 2.44ZM647.7 79.21l-20.36 82.49h-21.53zM660.62 29.16l-67.09 132.18h-50.25l57.96-114.17-2.26-5.38-5.38-12.63zM706.43 181.17v.72a6 6 0 0 1-.14.79 6 6 0 0 1-.17.77c-.07.26-.17.52-.26.8s-.26.66-.42 1-.33.68-.52 1l-5.34 9.66h-22.15l5.57-10.24a2.05 2.05 0 0 0 .12-2.39 3.21 3.21 0 0 0-2.67-.94h-.85a7.15 7.15 0 0 0-3.51.7c-.1.05-.19.12-.3.19s-.38.3-.58.47-.23.24-.33.38a2.4 2.4 0 0 0-.33.42c-.21.3-.42.65-.63 1l-16.2 29.76a2 2 0 0 0 0 2.39 3.36 3.36 0 0 0 2.72.94h.85a5 5 0 0 0 .56 0 7 7 0 0 0 1-.09 3 3 0 0 0 .45-.07 4.3 4.3 0 0 0 1-.31l.4-.21a6.9 6.9 0 0 0 2.25-2.56l5.61-10.35h22l-7.13 13.33a17.6 17.6 0 0 1-1.57 2.42 9 9 0 0 1-.7.82 2.4 2.4 0 0 1-.21.23 18 18 0 0 1-2.13 1.94 19 19 0 0 1-2.49 1.6 22 22 0 0 1-2.88 1.29c-.51.19-1 .37-1.57.52s-1.08.3-1.66.44l-.38.09c-.3.07-.59.12-.89.17s-.42.09-.63.12a.8.8 0 0 1-.16 0h-.26a1.5 1.5 0 0 1-.3 0c-.31.07-.65.12-1 .16l-1.47.16c-.35 0-.68.07-1.05.09-.56.05-1.13.07-1.73.09s-1.22 0-1.83 0h-16.15c-.77 0-1.48 0-2.18-.12l-1-.1c-.66-.09-1.31-.17-1.92-.31a3 3 0 0 1-.44-.09l-.44-.1h-.07a10 10 0 0 1-.91-.26c-.24-.07-.49-.14-.72-.23s-.52-.17-.77-.28-.49-.21-.72-.33a3.3 3.3 0 0 1-.52-.28l-.14-.07a5 5 0 0 1-.65-.37 10 10 0 0 1-1-.7 8 8 0 0 1-.7-.63c-2.58-2.6-2.74-6-.49-10.08l17.29-32.11q5.58-10.31 23.1-10.33h15a23.6 23.6 0 0 1 10.1 1.83l.61.31c.17.1.35.19.51.3a6.6 6.6 0 0 1 .91.61.6.6 0 0 1 .16.1 4 4 0 0 1 .56.49l.07.05a3 3 0 0 1 .31.3 7 7 0 0 1 .58.63c.17.23.33.45.47.68a5 5 0 0 1 .4.73s0 .09 0 .12a6 6 0 0 1 .26.63 7 7 0 0 1 .28 1 8 8 0 0 1 .09 1.1ZM742.12 172.83l-29.88 55.28h-22.37l29.87-55.28zM796 51.42 740.01 161.7h-29.47zM799.16 29.16l-102.4 132.18h-57.87l32.6-132.18h52.43l-26.63 84.75.02-.02 59.48-84.73zM804.27 172.83l-29.88 55.28h-24.06l3.39-30.65-16.57 30.65h-16.21l29.88-55.28h24.06l-3.39 30.65 16.57-30.65zM861.07 182.25c0 .21-.07.42-.12.65s-.1.44-.17.66a13.6 13.6 0 0 1-1.12 2.69l-4 7.48h-22.37l4.36-8.06c.56-1 .59-1.78.05-2.39a3.34 3.34 0 0 0-2.7-.94h-1.34a7.1 7.1 0 0 0-3.44.7 3 3 0 0 0-.31.19c-.21.14-.4.3-.61.47s-.23.24-.35.38a2.4 2.4 0 0 0-.33.42 3.3 3.3 0 0 0-.33.47c-.1.17-.21.35-.31.54l-16.08 29.76a1.94 1.94 0 0 0 0 2.39 3.36 3.36 0 0 0 2.72.94h3.75a7.6 7.6 0 0 0 1.78-.33 6 6 0 0 0 .7-.28 5.7 5.7 0 0 0 2.23-2.44l4.22-7.87H821l1.57-2.93 3.37-6.33H853l-9.79 18.14c-2.34 4.43-5.35 7.59-9.07 9.42-.47.23-1 .45-1.47.65a15 15 0 0 1-1.59.56c-.56.17-1.13.33-1.73.49a39 39 0 0 1-3.87.68q-.57.08-1.17.12c-.31 0-.65.07-1 .09q-1 .08-2 .12a1 1 0 0 1-.23 0h-18.56c-.77 0-1.48-.05-2.18-.12l-1-.1c-.68-.09-1.33-.17-1.94-.31-.3-.05-.58-.12-.85-.19h-.07a10 10 0 0 1-.91-.26c-.24-.07-.49-.14-.72-.23s-.52-.17-.77-.28a13 13 0 0 1-2-1 10 10 0 0 1-1-.7 8 8 0 0 1-.7-.63 7 7 0 0 1-.59-.66c-.09-.1-.17-.23-.26-.35a5.5 5.5 0 0 1-.4-.63 7.7 7.7 0 0 1-.51-1.2 4 4 0 0 1-.12-.47c0-.12-.05-.23-.07-.33s0-.28 0-.44v-.65a11 11 0 0 1 1.59-5.3l17.29-32.11q5.58-10.31 23.1-10.33H846c1.17 0 2.25.05 3.3.14l1.43.16a.7.7 0 0 0 .17 0 22.801 22.801 0 0 1 3.46.77l.17.07c.28.1.54.19.8.3s.61.26.91.4a7 7 0 0 1 .89.49.24.24 0 0 1 .1 0s0 0 .07.05a9 9 0 0 1 .84.56 13 13 0 0 1 1 .92c.19.21.38.4.54.61s.21.26.31.4.3.45.42.68a4 4 0 0 1 .23.45c.07.16.14.31.19.45s.1.33.16.49a3.5 3.5 0 0 1 .12.49 7.3 7.3 0 0 1 .05 2.48Z" class="cls-2"/><path d="M857.25 54.23 843.4 81.46h43.45l-12.49 24.86h-43.45v.02l-15.22 29.74h52.7l-12.49 25.26H752.67l58.09-114.43-7.68-17.75h114.19l-12.49 25.07z" class="cls-2"/><path d="M560.63 6.91a93 93 0 0 0-16.26-1.34h-34.5a117.4 117.4 0 0 0-21.93 1.92l.28-.58H61.78l17 39.25L9 183.58h262l3.3-6.45c9.26 5.2 21 7.83 35.06 7.83H345c24.65 0 44-6.18 57.6-18.39.49.61 1 1.2 1.55 1.78 10.15 11 25.71 16.61 46.23 16.61h35a120.6 120.6 0 0 0 20.79-1.69L470 250.36h171.37a55 55 0 0 0 8.09.58h15a68 68 0 0 0 9-.58h114.19l.85-1.59a50 50 0 0 0 15.14 2.16h15c10.19 0 18.47-1.66 25.38-5.09A42.63 42.63 0 0 0 862.79 227l6-11h.21l10.26-19.22c.4-.73.77-1.5 1.12-2.27l9.93-18.37h-7.38a29.1 29.1 0 0 0-4.2-10.75l25.48-51.55h-8.7l18.75-37.35h4.31l34.64-69.58zm351 58.45h-47.6l-2.51 5h43.35l-23.67 47.12h-43.48L833.9 125h52.4l-20.81 42.11c.52.44 1 .87 1.5 1.34a18.18 18.18 0 0 1 4.29 18.82h.38l-1.26 2.36c-.28.63-.59 1.27-.94 1.92l-7.12 13.36h-.21L853 221.73c-3.44 6.51-8.11 11.27-13.92 14.15-5.32 2.65-12 3.92-20.43 3.92h-15c-8.43 0-15-2-19.75-5.9l-2.9 5.34H672.74a57 57 0 0 1-8.27.56h-15a36 36 0 0 1-14.3-2.58l-.47 2H488.63L530 162.63c-11.15 7.43-26 11.2-44.59 11.2h-35c-17.29 0-30.09-4.38-38-13a28.24 28.24 0 0 1-7.24-14.69c-.38.66-.77 1.31-1.19 1.94-11.13 17.09-31 25.76-58.91 25.76h-35.66c-17.29 0-30.09-4.38-38.06-13-.23-.26-.47-.54-.73-.82l-6.37 12.47H27.17L91.1 46.53 78.73 18h391.38l-5.23 10.33c11.22-7.75 26.24-11.69 45-11.69h34.5c16.54 0 29 4.05 37 12L576.82 18h162.26l-9.66 30.75L751 18h184.26l-23.58 47.36Z" class="cls-2"/><path d="m172.97 117.45-3.81 7.5H126.5l3.82-7.5zM199.43 65.36l-2.53 4.97h-42.74l2.53-4.97z" class="cls-3"/><path d="m149.87 54.23-13.85 27.23h43.45l-12.49 24.86h-43.47v.02l-15.21 29.74H161l-12.49 25.26H45.3l58.08-114.45-7.69-17.73H209.9l-12.49 25.07zM226.75 135.29h44.01l-13.33 26.05h-94.27l58.11-114.43-7.68-17.75h66.93z" class="cls-3"/><path d="m308.19 46.47-39.61 77.66h-23.72L297.16 21l11 25.5Z" class="cls-3"/><path d="M452 29.16 396.87 138a43 43 0 0 1-2.28 4q-13.5 20.7-49.59 20.69h-35.59q-21.2 0-29.88-9.42t-1.1-24l42.06-82.42-7.68-17.69h66.95l-51.62 101.45a8 8 0 0 0-.73 1.73 5.1 5.1 0 0 0-.24 1.55 3.8 3.8 0 0 0 .86 2.46 4 4 0 0 0 .49.52.5.5 0 0 0 .12.1 2 2 0 0 0 .42.35 2 2 0 0 0 .24.16 1.8 1.8 0 0 0 .33.19 7.5 7.5 0 0 0 1 .42 11 11 0 0 0 1.27.31 10 10 0 0 0 1.29.14h3.92a23.6 23.6 0 0 0 4.55-.4 12 12 0 0 0 1.81-.52 9 9 0 0 0 1.52-.73l.51-.33.16-.12a9.2 9.2 0 0 0 1.32-1.15c.23-.23.44-.45.65-.7a.5.5 0 0 0 .16-.17l.09-.1c.14-.16.26-.31.4-.49s.44-.56.65-.87l.63-1 .61-1L402 29.17h50ZM456.48 109.61l-39.39 13.14 18.8-37.16a26.8 26.8 0 0 0 1.69 6c3.07 7.5 9.4 13.54 18.89 18Z" class="cls-3"/><path d="M527.53 58.7a6.62 6.62 0 0 0 .92-4.05 1 1 0 0 0 0-.16 1.5 1.5 0 0 0-.1-.38.6.6 0 0 0-.07-.17.7.7 0 0 0-.1-.21.5.5 0 0 0-.09-.17.4.4 0 0 1 0-.07 4 4 0 0 0-.33-.45q-1.75-2-6.38-2h-2.7a17 17 0 0 0-8 1.55c-1.9 1-3.58 3-5 5.83l-4.62 9.33c-1.27 2.74-1.53 4.87-.82 6.42s2.72 3 6 4.27l23.36 7.38c.65.21 1.27.44 1.88.66l.61.23 1.19.47c.38.14.77.3 1.13.45l.49.23.28.12a2.5 2.5 0 0 1 .33.16 4 4 0 0 1 .4.19l.68.31a3 3 0 0 0 .38.19l.63.33a3 3 0 0 1 .35.19c.24.12.49.24.72.38s.59.33.87.51c.45.28.91.56 1.34.85.14.09.28.17.42.28l.84.59c.8.61 1.55 1.22 2.23 1.85l.66.66c.21.21.42.44.61.65s.35.38.51.58a3 3 0 0 1 .38.49q.35.42.63.84c.21.28.38.58.58.87.23.37.44.73.63 1.1a11 11 0 0 1 .52 1.12 19 19 0 0 1 .79 2.36c.14.54.24 1.08.33 1.64 0 .28.07.56.09.84a6 6 0 0 1 0 .75 16.6 16.6 0 0 1 0 2.44 20 20 0 0 1-.4 2.79 33.4 33.4 0 0 1-3 8.48L537.35 138c-.31.65-.66 1.27-1 1.9-.16.31-.33.61-.52.91-.31.54-.65 1.08-1 1.6s-.63.92-1 1.38a40 40 0 0 1-3.17 3.82l-1.17 1.17-1.2 1.13c-.47.42-.94.82-1.43 1.2-.26.21-.51.4-.77.59a.8.8 0 0 1-.14.12 2 2 0 0 1-.26.19l-.24.17a1 1 0 0 1-.14.09 3 3 0 0 1-.33.26c-.17.14-.37.26-.58.4l-.09.05c-.47.33-.94.66-1.45 1l-.94.58a.24.24 0 0 0-.1.05l-.44.26a1.3 1.3 0 0 0-.23.12c-.42.24-.84.47-1.26.68a.08.08 0 0 1-.07 0 10 10 0 0 1-1 .52c-.17.1-.37.19-.56.28s-.24.12-.37.16c-.52.26-1.06.51-1.62.73l-1.36.56-.4.14-.23.09c-.31.14-.65.24-1 .37h-.07c-.61.23-1.26.44-1.9.65-.91.3-1.85.56-2.81.8l-1.06.28c-.61.16-1.24.3-1.87.44-1.34.3-2.7.54-4.1.77-.72.12-1.41.23-2.15.31s-1.45.19-2.18.26l-1.38.14-1.61.14h-.42c-.66 0-1.33.09-2 .12l-1.48.07-1.73.07H450.4c-1.4 0-2.76 0-4.08-.1-1 0-2-.1-3-.19-.51 0-1-.09-1.52-.16-1-.1-1.95-.23-2.88-.38h-.14l-1.12-.21a.3.3 0 0 1-.14 0 6 6 0 0 1-.79-.16c-.37-.07-.72-.14-1.06-.23h-.1l-.75-.17c-.45-.12-.91-.23-1.34-.37a15 15 0 0 1-1.41-.42c-.42-.14-.84-.28-1.24-.44s-.8-.3-1.2-.47c-.44-.16-.87-.35-1.27-.54l-.3-.14-.23-.1a8 8 0 0 1-.82-.42l-.26-.14-.45-.26-.09-.05h-.05l-.38-.23-.09-.05h-.05a1.2 1.2 0 0 1-.24-.14.3.3 0 0 1-.1-.07c-.35-.21-.7-.44-1-.66l-.14-.1c-.42-.3-.8-.59-1.19-.89l-.07-.05a.6.6 0 0 0-.16-.12c-.35-.3-.7-.59-1-.91s-.77-.73-1.13-1.13a5 5 0 0 1-.44-.51c-.14-.16-.28-.31-.4-.47s-.14-.16-.19-.24a.3.3 0 0 1-.07-.09c-.17-.21-.35-.44-.51-.66s-.45-.68-.66-1-.42-.7-.59-1.06-.45-1-.66-1.45c-.1-.24-.19-.49-.28-.73s-.16-.51-.23-.77-.19-.7-.26-1.06-.12-.61-.17-.91a15 15 0 0 1-.19-1.66 20 20 0 0 1 .31-4.88 4 4 0 0 1 .1-.56 14.5 14.5 0 0 1 .42-1.76c.09-.3.17-.61.26-.91l60.08-20-8.7 17.29c-1.26 2.34-1.31 4.22-.12 5.65s3.21 2.13 6.11 2.13h3.26c3.44 0 6.07-.51 7.87-1.55.23-.14.45-.28.68-.44a8.8 8.8 0 0 0 1.29-1.12c.21-.21.42-.45.61-.68a4 4 0 0 0 .4-.52 1.2 1.2 0 0 0 .21-.26l.07-.1.26-.37a1 1 0 0 0 .12-.19 1 1 0 0 0 .12-.17 5 5 0 0 0 .33-.54l.16-.26c.21-.37.42-.75.63-1.15l6-12.05c1.46-2.84 1.78-5 1-6.51s-2.86-2.9-6.12-4.19l-23.62-7.38q-29.32-9.92-17.39-33.63l8.15-15.94c.16-.31.31-.63.49-.92.24-.45.49-.89.75-1.33.14-.24.28-.49.44-.73.59-1 1.22-1.9 1.87-2.79l.63-.84s.09-.1.12-.16a.6.6 0 0 0 .12-.16l.14-.17c.17-.23.35-.44.54-.65s.52-.63.78-.92.58-.63.87-.94c.52-.56 1.06-1.08 1.62-1.6a3.6 3.6 0 0 1 .4-.38l1.13-1 .68-.56c.54-.45 1.12-.89 1.69-1.29l.68-.49c.26-.17.52-.37.78-.54.47-.31.94-.61 1.43-.91a1.3 1.3 0 0 1 .23-.12c.47-.3.94-.56 1.43-.82.24-.14.49-.28.73-.4.72-.38 1.45-.75 2.2-1.08s1.47-.66 2.22-1c.44-.17.86-.35 1.31-.51l1.33-.49c.3-.1.59-.21.91-.3.77-.26 1.55-.51 2.34-.73l.28-.07c.94-.26 1.88-.51 2.84-.72l.91-.21 1.66-.35c.14 0 .3-.05.45-.09.66-.12 1.34-.23 2-.33.49-.09 1-.16 1.5-.23.82-.12 1.66-.23 2.51-.31l1.4-.14c.87-.09 1.76-.16 2.65-.23l2.74-.14a.22.22 0 0 1 .16 0c.49 0 1-.05 1.47-.05 1 0 2.08-.05 3.14-.05h34.5q20.91 0 29.6 9.23c4.6 4.9 5.9 10.87 3.85 17.93l-58.53 19.48 8.15-15.75Z" class="cls-3"/><path d="m579.05 66.29-18.23 35.93a28.2 28.2 0 0 0-1.76-6.3c-2.93-7.08-8.76-12.84-17.39-17.16ZM583.69 176.74c-.24-.24-.51-.47-.78-.7a7.5 7.5 0 0 0-.85-.63c-.31-.19-.63-.38-1-.56s-.68-.33-1.05-.49a15 15 0 0 0-1.62-.56l-.77-.21-.7-.16c-.3-.07-.61-.12-.94-.17s-.77-.12-1.17-.17a9 9 0 0 0-1-.1l-.82-.07c-.78-.05-1.61-.07-2.46-.07h-33.4l-29.86 55.28h22.36l10.64-19.66h5.09l-3.51 19.66h22.49l1.33-20.72q8.48-2.12 12-8.62l6.54-12q3.38-6.18-.49-10.07Zm-21.64 9.5-4.95 9.11a8 8 0 0 1-.45.82 5 5 0 0 1-.51.68 2.6 2.6 0 0 1-.28.3 3 3 0 0 1-.26.24 4 4 0 0 1-.61.42 7.4 7.4 0 0 1-3.45.7h-5.91l8.46-15.61h5.32a3.88 3.88 0 0 1 2.56.68 2 2 0 0 1 .21.21c.49.59.45 1.41-.12 2.44ZM647.7 79.21l-20.36 82.49h-21.53zM660.62 29.16l-67.09 132.18h-50.25l57.96-114.17-2.26-5.38-5.38-12.63zM706.43 181.17v.72a6 6 0 0 1-.14.79 6 6 0 0 1-.17.77c-.07.26-.17.52-.26.8s-.26.66-.42 1-.33.68-.52 1l-5.34 9.66h-22.15l5.57-10.24a2.05 2.05 0 0 0 .12-2.39 3.21 3.21 0 0 0-2.67-.94h-.85a7.15 7.15 0 0 0-3.51.7c-.1.05-.19.12-.3.19s-.38.3-.58.47-.23.24-.33.38a2.4 2.4 0 0 0-.33.42c-.21.3-.42.65-.63 1l-16.2 29.76a2 2 0 0 0 0 2.39 3.36 3.36 0 0 0 2.72.94h.85a5 5 0 0 0 .56 0 7 7 0 0 0 1-.09 3 3 0 0 0 .45-.07 4.3 4.3 0 0 0 1-.31l.4-.21a6.9 6.9 0 0 0 2.25-2.56l5.61-10.35h22l-7.13 13.33a17.6 17.6 0 0 1-1.57 2.42 9 9 0 0 1-.7.82 2.4 2.4 0 0 1-.21.23 18 18 0 0 1-2.13 1.94 19 19 0 0 1-2.49 1.6 22 22 0 0 1-2.88 1.29c-.51.19-1 .37-1.57.52s-1.08.3-1.66.44l-.38.09c-.3.07-.59.12-.89.17s-.42.09-.63.12a.8.8 0 0 1-.16 0h-.26a1.5 1.5 0 0 1-.3 0c-.31.07-.65.12-1 .16l-1.47.16c-.35 0-.68.07-1.05.09-.56.05-1.13.07-1.73.09s-1.22 0-1.83 0h-16.15c-.77 0-1.48 0-2.18-.12l-1-.1c-.66-.09-1.31-.17-1.92-.31a3 3 0 0 1-.44-.09l-.44-.1h-.07a10 10 0 0 1-.91-.26c-.24-.07-.49-.14-.72-.23s-.52-.17-.77-.28-.49-.21-.72-.33a3.3 3.3 0 0 1-.52-.28l-.14-.07a5 5 0 0 1-.65-.37 10 10 0 0 1-1-.7 8 8 0 0 1-.7-.63c-2.58-2.6-2.74-6-.49-10.08l17.29-32.11q5.58-10.31 23.1-10.33h15a23.6 23.6 0 0 1 10.1 1.83l.61.31c.17.1.35.19.51.3a6.6 6.6 0 0 1 .91.61.6.6 0 0 1 .16.1 4 4 0 0 1 .56.49l.07.05a3 3 0 0 1 .31.3 7 7 0 0 1 .58.63c.17.23.33.45.47.68a5 5 0 0 1 .4.73s0 .09 0 .12a6 6 0 0 1 .26.63 7 7 0 0 1 .28 1 8 8 0 0 1 .09 1.1ZM742.12 172.83l-29.88 55.28h-22.37l29.87-55.28zM796 51.42 740.01 161.7h-29.47zM799.16 29.16l-102.4 132.18h-57.87l32.6-132.18h52.43l-26.63 84.75.02-.02 59.48-84.73zM804.27 172.83l-29.88 55.28h-24.06l3.39-30.65-16.57 30.65h-16.21l29.88-55.28h24.06l-3.39 30.65 16.57-30.65zM861.07 182.25c0 .21-.07.42-.12.65s-.1.44-.17.66a13.6 13.6 0 0 1-1.12 2.69l-4 7.48h-22.37l4.36-8.06c.56-1 .59-1.78.05-2.39a3.34 3.34 0 0 0-2.7-.94h-1.34a7.1 7.1 0 0 0-3.44.7 3 3 0 0 0-.31.19c-.21.14-.4.3-.61.47s-.23.24-.35.38a2.4 2.4 0 0 0-.33.42 3.3 3.3 0 0 0-.33.47c-.1.17-.21.35-.31.54l-16.08 29.76a1.94 1.94 0 0 0 0 2.39 3.36 3.36 0 0 0 2.72.94h3.75a7.6 7.6 0 0 0 1.78-.33 6 6 0 0 0 .7-.28 5.7 5.7 0 0 0 2.23-2.44l4.22-7.87H821l1.57-2.93 3.37-6.33H853l-9.79 18.14c-2.34 4.43-5.35 7.59-9.07 9.42-.47.23-1 .45-1.47.65a15 15 0 0 1-1.59.56c-.56.17-1.13.33-1.73.49a39 39 0 0 1-3.87.68q-.57.08-1.17.12c-.31 0-.65.07-1 .09q-1 .08-2 .12a1 1 0 0 1-.23 0h-18.56c-.77 0-1.48-.05-2.18-.12l-1-.1c-.68-.09-1.33-.17-1.94-.31-.3-.05-.58-.12-.85-.19h-.07a10 10 0 0 1-.91-.26c-.24-.07-.49-.14-.72-.23s-.52-.17-.77-.28a13 13 0 0 1-2-1 10 10 0 0 1-1-.7 8 8 0 0 1-.7-.63 7 7 0 0 1-.59-.66c-.09-.1-.17-.23-.26-.35a5.5 5.5 0 0 1-.4-.63 7.7 7.7 0 0 1-.51-1.2 4 4 0 0 1-.12-.47c0-.12-.05-.23-.07-.33s0-.28 0-.44v-.65a11 11 0 0 1 1.59-5.3l17.29-32.11q5.58-10.31 23.1-10.33H846c1.17 0 2.25.05 3.3.14l1.43.16a.7.7 0 0 0 .17 0 22.801 22.801 0 0 1 3.46.77l.17.07c.28.1.54.19.8.3s.61.26.91.4a7 7 0 0 1 .89.49.24.24 0 0 1 .1 0s0 0 .07.05a9 9 0 0 1 .84.56 13 13 0 0 1 1 .92c.19.21.38.4.54.61s.21.26.31.4.3.45.42.68a4 4 0 0 1 .23.45c.07.16.14.31.19.45s.1.33.16.49a3.5 3.5 0 0 1 .12.49 7.3 7.3 0 0 1 .05 2.48Z" class="cls-3"/><path d="M857.25 54.23 843.4 81.46h43.45l-12.49 24.86h-43.45v.02l-15.22 29.74h52.7l-12.49 25.26H752.67l58.09-114.43-7.68-17.75h114.19l-12.49 25.07z" class="cls-3"/><path d="M560.63 6.91a93 93 0 0 0-16.26-1.34h-34.5a117.4 117.4 0 0 0-21.93 1.92l.28-.58H61.78l17 39.25L9 183.58h262l3.3-6.45c9.26 5.2 21 7.83 35.06 7.83H345c24.65 0 44-6.18 57.6-18.39.49.61 1 1.2 1.55 1.78 10.15 11 25.71 16.61 46.23 16.61h35a120.6 120.6 0 0 0 20.79-1.69L470 250.36h171.37a55 55 0 0 0 8.09.58h15a68 68 0 0 0 9-.58h114.19l.85-1.59a50 50 0 0 0 15.14 2.16h15c10.19 0 18.47-1.66 25.38-5.09A42.63 42.63 0 0 0 862.79 227l6-11 10.5-19.22c.4-.73.77-1.5 1.12-2.27l9.93-18.37h-7.38a29.1 29.1 0 0 0-4.2-10.75l25.48-51.55h-8.7l18.75-37.35h4.31l34.61-69.58zm351 58.45h-47.6l-2.51 5h43.35l-23.67 47.12h-43.48L833.9 125h52.4l-20.81 42.11c.52.44 1 .87 1.5 1.34a18.18 18.18 0 0 1 4.29 18.82l-.87 2.36c-.28.63-.59 1.27-.94 1.92l-7.33 13.36-9.14 16.82c-3.44 6.51-8.11 11.27-13.92 14.15-5.32 2.65-12 3.92-20.43 3.92h-15c-8.43 0-15-2-19.75-5.9l-2.9 5.34H672.75a57 57 0 0 1-8.27.56h-15a36 36 0 0 1-14.3-2.58l-.47 2H488.64L530 162.63c-11.15 7.43-26 11.2-44.59 11.2h-35c-17.29 0-30.09-4.38-38-13a28.24 28.24 0 0 1-7.24-14.69c-.38.66-.77 1.31-1.19 1.94-11.13 17.09-31 25.76-58.91 25.76h-35.65c-17.29 0-30.09-4.38-38.06-13-.23-.26-.47-.54-.73-.82l-6.37 12.47H27.17L91.1 46.53 78.73 18h391.38l-5.23 10.33c11.22-7.75 26.24-11.69 45-11.69h34.5c16.54 0 29 4.05 37 12L576.82 18h162.26l-9.66 30.75L751 18h184.26l-23.58 47.36Z" class="cls-3"/><path d="m197.41 54.23 12.49-25.07H95.7l7.69 17.72L45.3 161.33h103.21L161 136.07h-52.7l15.21-29.74H167l12.49-24.86H136l13.85-27.23h47.54Zm83.11-25.07h-66.93l7.68 17.74-58.1 114.43h94.27l13.33-26h-44l53.77-106.17Zm121.52 0L350.16 131c-.19.35-.4.68-.61 1s-.42.66-.63 1-.44.59-.65.87-.26.33-.4.49a.4.4 0 0 1-.09.1.43.43 0 0 1-.16.17 6 6 0 0 1-.65.7 8 8 0 0 1-.66.63 6 6 0 0 1-.66.52.6.6 0 0 1-.16.12c-.16.1-.33.23-.51.33a8.6 8.6 0 0 1-1.52.73 12.5 12.5 0 0 1-1.81.52 23.6 23.6 0 0 1-4.55.4h-3.8a.25.25 0 0 1-.12 0 10 10 0 0 1-1.29-.14 6.7 6.7 0 0 1-1.27-.31 7.5 7.5 0 0 1-1-.42.2.2 0 0 0-.09 0 1.4 1.4 0 0 1-.24-.16.8.8 0 0 1-.24-.16 2.6 2.6 0 0 1-.42-.35l-.12-.1a6 6 0 0 1-.49-.52 3.8 3.8 0 0 1-.86-2.46 5.1 5.1 0 0 1 .24-1.55 8.8 8.8 0 0 1 .73-1.73l51.63-101.54h-66.95l7.68 17.69-42.06 82.42q-7.59 14.58 1.1 24t29.88 9.42H345q36.08 0 49.59-20.72a40 40 0 0 0 2.28-4L452 29.14h-50Zm117.34 45.29L577.84 55q3.06-10.62-3.84-18-8.68-9.21-29.6-9.23h-34.5c-1.06 0-2.11 0-3.14.05-.49 0-1 0-1.47.05a.22.22 0 0 0-.16 0c-.92 0-1.83.09-2.74.14s-1.78.14-2.65.23c-.47 0-.94.09-1.4.14-.85.09-1.69.19-2.51.31-.51.07-1 .14-1.5.23-.68.1-1.36.21-2 .33-.16 0-.31.05-.45.09l-1.66.35-.91.21c-1 .21-1.9.45-2.84.72l-.28.07c-.78.23-1.57.47-2.34.73-.31.09-.61.19-.91.3s-.89.31-1.33.49-.87.33-1.31.51c-.75.3-1.5.61-2.22 1s-1.48.7-2.2 1.08c-.24.12-.49.26-.73.4-.49.26-1 .52-1.43.82a1.3 1.3 0 0 0-.23.12c-.49.3-1 .59-1.43.91l-.78.54c-.23.16-.45.31-.68.49-.58.4-1.15.84-1.69 1.29-.23.17-.45.37-.68.56-.38.31-.77.65-1.13 1a3.6 3.6 0 0 0-.4.38c-.56.52-1.1 1.05-1.62 1.6-.3.31-.58.63-.87.94s-.33.4-.51.61-.19.21-.28.31-.17.23-.26.33-.28.31-.42.49l-.12.16c0 .05-.09.1-.12.16l-.63.84c-.65.89-1.27 1.83-1.87 2.79-.16.24-.3.49-.44.73-.26.44-.51.87-.75 1.33-.17.3-.33.61-.49.92l-8.15 15.94q-12 23.7 17.39 33.63l23.62 7.38c3.26 1.29 5.32 2.69 6.12 4.19s.51 3.66-1 6.51l-6 12c-.21.4-.42.78-.63 1.15l-.16.26a5 5 0 0 1-.33.54 1 1 0 0 1-.12.17 1 1 0 0 1-.12.19c0 .07-.09.12-.12.19l-.14.17a.3.3 0 0 1-.07.1 1.2 1.2 0 0 1-.21.26 3.6 3.6 0 0 1-.4.52 8 8 0 0 1-.61.68 9.4 9.4 0 0 1-1.29 1.12c-.23.16-.45.3-.68.44-1.8 1.05-4.43 1.55-7.87 1.55h-3.26c-2.9 0-4.94-.72-6.11-2.13s-1.13-3.31.12-5.65l8.7-17.29-60.08 20c-.09.3-.17.61-.26.91-.17.59-.31 1.19-.42 1.76a3 3 0 0 0-.1.56 19.6 19.6 0 0 0-.31 4.88 15 15 0 0 0 .19 1.66c.05.3.1.61.17.91s.16.72.26 1.06.16.52.23.77c.09.24.17.49.26.73.21.49.42 1 .66 1.45.14.24.26.47.4.72a3 3 0 0 0 .19.35 4 4 0 0 0 .23.35c.14.23.28.45.44.68a8 8 0 0 0 .51.66l.05.09a1.4 1.4 0 0 0 .19.24 3 3 0 0 0 .23.26l.17.21c.14.17.28.35.44.51.37.4.73.77 1.13 1.13s.68.61 1 .91l.16.12.07.05c.38.3.77.59 1.19.89l.14.1c.33.23.68.45 1 .66l.1.07.24.14h.05l.09.05.38.23h.14l.45.26.26.14a8 8 0 0 0 .82.42l.23.1.3.14c.4.19.84.38 1.27.54.4.17.79.33 1.2.47s.82.3 1.24.44a15 15 0 0 0 1.41.42c.44.14.89.24 1.34.37l.75.17h.1c.35.09.7.16 1.06.23a7 7 0 0 0 .79.16.3.3 0 0 0 .14 0l1.12.21h.14c.92.16 1.88.28 2.88.38.49.07 1 .12 1.52.16 1 .09 1.95.16 3 .19 1.33.07 2.69.1 4.08.1h38.12c.58 0 1.15 0 1.73-.07s1 0 1.48-.07c.66 0 1.33-.07 2-.12h.42c.54 0 1.06-.09 1.61-.14s.92-.09 1.38-.14c.73-.07 1.46-.16 2.18-.26s1.43-.19 2.15-.31c1.4-.23 2.76-.47 4.1-.77.63-.14 1.26-.28 1.87-.44.35-.09.72-.17 1.06-.28 1-.24 1.9-.51 2.81-.8.65-.21 1.29-.42 1.9-.65h.07l.51-.17a4 4 0 0 0 .45-.19 1 1 0 0 0 .23-.09l.26-.1a.7.7 0 0 0 .14 0c.45-.17.91-.37 1.36-.56a2 2 0 0 0 .38-.17c.42-.17.84-.37 1.24-.56a2.3 2.3 0 0 0 .37-.16 6 6 0 0 0 .56-.28c.35-.16.7-.33 1-.52a.15.15 0 0 0 .07 0 7 7 0 0 0 .72-.37l.54-.31a1.3 1.3 0 0 1 .23-.12l.3-.19.14-.07a.24.24 0 0 1 .1 0l.77-.45.17-.12c.51-.3 1-.63 1.45-1l.09-.05a2 2 0 0 0 .26-.17 3 3 0 0 0 .31-.23 3 3 0 0 0 .33-.26.6.6 0 0 0 .14-.09 1.3 1.3 0 0 0 .24-.17 2 2 0 0 0 .26-.19c.19-.14.38-.3.58-.44l.33-.28c.49-.38 1-.78 1.43-1.2l1.2-1.13c.42-.4.78-.77 1.15-1.17.78-.8 1.5-1.64 2.18-2.49.33-.44.66-.87 1-1.33s.65-.91 1-1.38.68-1.06 1-1.6a8 8 0 0 0 .52-.91c.35-.63.7-1.26 1-1.9l9.23-18.66a33.4 33.4 0 0 0 3-8.48 20 20 0 0 0 .4-2.79 16.6 16.6 0 0 0 0-2.44 6 6 0 0 0-.05-.75q0-.42-.09-.84c-.09-.56-.19-1.1-.33-1.64a18 18 0 0 0-.79-2.36c-.16-.38-.33-.75-.52-1.12s-.4-.73-.63-1.1c-.19-.3-.37-.59-.58-.87s-.4-.56-.63-.84a3.4 3.4 0 0 0-.38-.49l-.51-.58c-.19-.21-.4-.44-.61-.65l-.66-.66c-.68-.63-1.43-1.24-2.23-1.85l-.84-.59-.42-.28c-.44-.3-.89-.58-1.34-.85-.28-.17-.58-.33-.87-.51s-.47-.26-.72-.38a3 3 0 0 0-.35-.19q-.31-.18-.63-.33a3 3 0 0 1-.38-.19l-.68-.31a4 4 0 0 0-.4-.19l-.33-.16-.28-.12-.49-.21c-.37-.16-.75-.31-1.13-.45l-1.19-.47-.61-.23c-.61-.23-1.24-.45-1.88-.66l-23.36-7.38c-3.26-1.29-5.25-2.72-6-4.27s-.45-3.68.82-6.42l4.62-9.33c1.45-2.84 3.12-4.8 5-5.83a17 17 0 0 1 8-1.55h2.7q4.63 0 6.38 2a5 5 0 0 1 .33.45s0 0 0 .07a.7.7 0 0 1 .09.17.5.5 0 0 1 .1.21 1 1 0 0 1 .07.17 1.2 1.2 0 0 1 .1.38.4.4 0 0 1 0 .16 6.7 6.7 0 0 1-.92 4.05l-8.15 15.75Zm64.31 102.29c-.24-.24-.51-.47-.78-.7a7.5 7.5 0 0 0-.85-.63c-.31-.19-.63-.38-1-.56s-.68-.33-1.05-.49a15 15 0 0 0-1.62-.56l-.77-.21-.7-.16c-.3-.07-.61-.12-.94-.17s-.77-.12-1.17-.17a9 9 0 0 0-1-.1l-.82-.07c-.78-.05-1.61-.07-2.46-.07h-33.4l-29.86 55.28h22.36l10.64-19.66h5.09l-3.51 19.66h22.49l1.33-20.72q8.48-2.12 12-8.62l6.54-12q3.38-6.18-.49-10.07Zm-21.64 9.5-4.95 9.11a8 8 0 0 1-.45.82 5 5 0 0 1-.51.68 2.6 2.6 0 0 1-.28.3 3 3 0 0 1-.26.24 4 4 0 0 1-.61.42 7.4 7.4 0 0 1-3.45.7h-5.91l8.46-15.61h5.32a3.88 3.88 0 0 1 2.56.68 2 2 0 0 1 .21.21c.49.59.45 1.41-.12 2.44ZM593.6 29.16l3.79 8.84 1.61 3.79 2.27 5.37-58 114.17h50.26l67.1-132.17h-67Zm112.74 150.91a7 7 0 0 0-.28-1 6 6 0 0 0-.26-.63s0-.09 0-.12-.1-.26-.17-.38a4 4 0 0 0-.23-.35c-.14-.23-.3-.45-.47-.68a6 6 0 0 0-.58-.63L704 176h-.07a3.6 3.6 0 0 0-.56-.49.3.3 0 0 0-.16-.1 6.6 6.6 0 0 0-.91-.61l-.51-.3-.61-.31a23.6 23.6 0 0 0-10.1-1.83h-15q-17.54 0-23.1 10.33l-17.3 32.01q-3.37 6.18.49 10.08a7 7 0 0 0 .7.63c.3.24.61.47 1 .7s.42.26.65.37l.14.07a4 4 0 0 0 .52.28 8 8 0 0 0 .72.33c.24.1.51.19.77.28s.47.16.72.23a9 9 0 0 0 .91.26h.07l.44.1c.14 0 .28.07.44.09a19 19 0 0 0 1.92.31l1 .1c.7.07 1.41.1 2.18.12h17.98c.59 0 1.17 0 1.73-.09h.05c.37 0 .7-.05 1-.09l1.47-.16c.44-.05.85-.12 1.27-.19h.26a.8.8 0 0 1 .16 0l.63-.12c.3-.05.59-.1.89-.17a3 3 0 0 0 .38-.09c.58-.14 1.12-.28 1.66-.44s1.06-.33 1.57-.52a22 22 0 0 0 2.88-1.29 19 19 0 0 0 2.49-1.6 17 17 0 0 0 2.13-1.94 2.4 2.4 0 0 0 .21-.23c.24-.26.49-.54.7-.82a18 18 0 0 0 1.57-2.42l7.13-13.33h-22L667 215.36a6.85 6.85 0 0 1-2.25 2.56l-.4.21a4.3 4.3 0 0 1-1 .31l-.45.07a10 10 0 0 1-1 .09 5 5 0 0 1-.56 0h-.85a3.36 3.36 0 0 1-2.72-.94 2 2 0 0 1 0-2.39l16.2-29.76a11 11 0 0 1 .63-1 2.4 2.4 0 0 1 .33-.42c.1-.14.23-.26.33-.38a6 6 0 0 1 .58-.47 2 2 0 0 1 .3-.19 7.15 7.15 0 0 1 3.51-.7h.85a3.21 3.21 0 0 1 2.67.94 2.05 2.05 0 0 1-.12 2.39l-5.56 10.24h22.12l5.34-9.66c.19-.33.37-.68.52-1s.3-.68.42-1 .19-.54.26-.8a6 6 0 0 0 .17-.77 7 7 0 0 0 .14-.79v-.72a7 7 0 0 0-.09-1.1Zm13.4-7.24-29.86 55.28h22.36l29.88-55.28Zm37-143.67-59.48 84.72 26.64-84.74h-52.41l-32.6 132.17h57.88L799.16 29.16Zm31.27 143.67-16.57 30.65 3.38-30.65h-24l-29.88 55.28h16.2l16.57-30.65-3.38 30.65h24l29.88-55.28zm73 6.94a4 4 0 0 0-.12-.49l-.16-.49c-.05-.14-.12-.3-.19-.45a3 3 0 0 0-.23-.45c-.12-.23-.28-.45-.42-.68s-.21-.26-.31-.4-.35-.4-.54-.61a12 12 0 0 0-1-.92c-.26-.19-.54-.38-.84-.56l-.07-.05c-.07-.05-.07 0-.1 0a9 9 0 0 0-.89-.49c-.3-.14-.59-.28-.91-.4l-.8-.3a1 1 0 0 1-.17-.07 23 23 0 0 0-3.46-.77h-.17l-1.43-.16c-1-.09-2.13-.14-3.3-.14h-15.64q-17.53 0-23.1 10.33l-17.29 32.03a11.15 11.15 0 0 0-1.59 5.3v.65c0 .21 0 .3.05.44a2.5 2.5 0 0 0 .07.33 4 4 0 0 0 .12.47 7 7 0 0 0 .51 1.2 5.5 5.5 0 0 0 .4.63c.09.12.17.24.26.35a6 6 0 0 0 .59.66 7 7 0 0 0 .7.63c.3.24.61.47 1 .7a15 15 0 0 0 2 1c.24.1.51.19.77.28s.47.16.72.23a9 9 0 0 0 .91.26h.07c.28.07.56.14.85.19a18 18 0 0 0 1.94.31l1 .1c.7.07 1.41.1 2.18.12h18.56a1 1 0 0 0 .23 0h1a5 5 0 0 1 .54 0l.51-.05c.33 0 .66 0 1-.09a.4.4 0 0 0 .21 0l1-.1.78-.1c.4 0 .8-.12 1.2-.19.65-.12 1.27-.24 1.87-.38.59-.16 1.17-.31 1.73-.49a15 15 0 0 0 1.59-.56c.51-.19 1-.42 1.47-.65 3.72-1.83 6.73-5 9.07-9.42l9.82-18.15h-27.08l-3.37 6.33-1.55 2.93h6.28l-4.28 7.89a5.7 5.7 0 0 1-2.23 2.44c-.21.1-.45.19-.7.28a7.6 7.6 0 0 1-1.78.33h-3.75a3.36 3.36 0 0 1-2.72-.94 2 2 0 0 1 0-2.39L828 185.53c.1-.19.21-.37.31-.54s.21-.31.33-.47a2.4 2.4 0 0 1 .33-.42c.12-.14.23-.26.35-.38s.4-.33.61-.47a3 3 0 0 1 .31-.19 7.1 7.1 0 0 1 3.44-.7H835a3.34 3.34 0 0 1 2.7.94c.54.61.51 1.41-.05 2.39l-4.36 8.06h22.38l4-7.48a13.8 13.8 0 0 0 1.12-2.69c.07-.23.12-.45.17-.66s.09-.44.12-.65a7.6 7.6 0 0 0 0-2.48Zm43.77-125.54 12.49-25.07H803.08l7.68 17.74-58.09 114.43H855.9l12.49-25.26h-52.7l15.21-29.74h43.45l12.49-24.86h-43.45l13.85-27.23h47.54Z" class="cls-3"/><path d="M583.69 176.74c-.24-.24-.51-.47-.78-.7a7.5 7.5 0 0 0-.85-.63c-.31-.19-.63-.38-1-.56s-.68-.33-1.05-.49a15 15 0 0 0-1.62-.56l-.77-.21-.7-.16c-.3-.07-.61-.12-.94-.17s-.77-.12-1.17-.17a9 9 0 0 0-1-.1l-.82-.07c-.78-.05-1.61-.07-2.46-.07h-33.4l-29.86 55.28h22.36l10.64-19.66h5.09l-3.51 19.66h22.49l1.33-20.72q8.48-2.12 12-8.62l6.54-12q3.38-6.18-.49-10.07Zm-21.64 9.5-4.95 9.11a8 8 0 0 1-.45.82 5 5 0 0 1-.51.68 2.6 2.6 0 0 1-.28.3 3 3 0 0 1-.26.24 4 4 0 0 1-.61.42 7.4 7.4 0 0 1-3.45.7h-5.91l8.46-15.61h5.32a3.88 3.88 0 0 1 2.56.68 2 2 0 0 1 .21.21c.49.59.45 1.41-.12 2.44ZM706.34 180.07a7 7 0 0 0-.28-1 6 6 0 0 0-.26-.63s0-.09 0-.12-.1-.26-.17-.38a4 4 0 0 0-.23-.35c-.14-.23-.3-.45-.47-.68a6 6 0 0 0-.58-.63L704 176h-.07a3.6 3.6 0 0 0-.56-.49.3.3 0 0 0-.16-.1 6.6 6.6 0 0 0-.91-.61l-.51-.3-.61-.31a23.6 23.6 0 0 0-10.1-1.83h-15q-17.54 0-23.1 10.33l-17.3 32.01q-3.37 6.18.49 10.08a7 7 0 0 0 .7.63c.3.24.61.47 1 .7s.42.26.65.37l.14.07a4 4 0 0 0 .52.28 8 8 0 0 0 .72.33c.24.1.51.19.77.28s.47.16.72.23a9 9 0 0 0 .91.26h.07l.44.1c.14 0 .28.07.44.09a19 19 0 0 0 1.92.31l1 .1c.7.07 1.41.1 2.18.12h17.98c.59 0 1.17 0 1.73-.09h.05c.37 0 .7-.05 1-.09l1.47-.16c.44-.05.85-.12 1.27-.19h.26a.8.8 0 0 1 .16 0l.63-.12c.3-.05.59-.1.89-.17a3 3 0 0 0 .38-.09c.58-.14 1.12-.28 1.66-.44s1.06-.33 1.57-.52a22 22 0 0 0 2.88-1.29 19 19 0 0 0 2.49-1.6 17 17 0 0 0 2.13-1.94 2.4 2.4 0 0 0 .21-.23c.24-.26.49-.54.7-.82a18 18 0 0 0 1.57-2.42l7.13-13.33h-22L667 215.36a6.85 6.85 0 0 1-2.25 2.56l-.4.21a4.3 4.3 0 0 1-1 .31l-.45.07a10 10 0 0 1-1 .09 5 5 0 0 1-.56 0h-.85a3.36 3.36 0 0 1-2.72-.94 2 2 0 0 1 0-2.39l16.2-29.76a11 11 0 0 1 .63-1 2.4 2.4 0 0 1 .33-.42c.1-.14.23-.26.33-.38a6 6 0 0 1 .58-.47 2 2 0 0 1 .3-.19 7.15 7.15 0 0 1 3.51-.7h.85a3.21 3.21 0 0 1 2.67.94 2.05 2.05 0 0 1-.12 2.39l-5.56 10.24h22.12l5.34-9.66c.19-.33.37-.68.52-1s.3-.68.42-1 .19-.54.26-.8a6 6 0 0 0 .17-.77 7 7 0 0 0 .14-.79v-.72a7 7 0 0 0-.09-1.1ZM719.74 172.83l-29.86 55.28h22.36l29.88-55.28ZM788.06 172.83l-16.57 30.65 3.38-30.65h-24l-29.88 55.28h16.2l16.57-30.65-3.38 30.65h24l29.88-55.28z" class="cls-1"/><path d="m197.41 54.23 12.49-25.07H95.7l7.69 17.72L45.3 161.33h103.21L161 136.07h-52.7l15.21-29.74H167l12.49-24.86H136l13.85-27.23h47.54Zm83.11-25.07h-66.93l7.68 17.74-58.1 114.43h94.27l13.33-26h-44l53.77-106.17Zm121.52 0L350.16 131c-.19.35-.4.68-.61 1s-.42.66-.63 1-.44.59-.65.87-.26.33-.4.49a.4.4 0 0 1-.09.1.43.43 0 0 1-.16.17 6 6 0 0 1-.65.7 8 8 0 0 1-.66.63 6 6 0 0 1-.66.52.6.6 0 0 1-.16.12c-.16.1-.33.23-.51.33a8.6 8.6 0 0 1-1.52.73 12.5 12.5 0 0 1-1.81.52 23.6 23.6 0 0 1-4.55.4h-3.8a.25.25 0 0 1-.12 0 10 10 0 0 1-1.29-.14 6.7 6.7 0 0 1-1.27-.31 7.5 7.5 0 0 1-1-.42.2.2 0 0 0-.09 0 1.4 1.4 0 0 1-.24-.16.8.8 0 0 1-.24-.16 2.6 2.6 0 0 1-.42-.35l-.12-.1a6 6 0 0 1-.49-.52 3.8 3.8 0 0 1-.86-2.46 5.1 5.1 0 0 1 .24-1.55 8.8 8.8 0 0 1 .73-1.73l51.63-101.54h-66.95l7.68 17.69-42.06 82.42q-7.59 14.58 1.1 24t29.88 9.42H345q36.08 0 49.59-20.72a40 40 0 0 0 2.28-4L452 29.14h-50Zm117.34 45.29L577.84 55q3.06-10.62-3.84-18-8.68-9.21-29.6-9.23h-34.5c-1.06 0-2.11 0-3.14.05-.49 0-1 0-1.47.05a.22.22 0 0 0-.16 0c-.92 0-1.83.09-2.74.14s-1.78.14-2.65.23c-.47 0-.94.09-1.4.14-.85.09-1.69.19-2.51.31-.51.07-1 .14-1.5.23-.68.1-1.36.21-2 .33-.16 0-.31.05-.45.09l-1.66.35-.91.21c-1 .21-1.9.45-2.84.72l-.28.07c-.78.23-1.57.47-2.34.73-.31.09-.61.19-.91.3s-.89.31-1.33.49-.87.33-1.31.51c-.75.3-1.5.61-2.22 1s-1.48.7-2.2 1.08c-.24.12-.49.26-.73.4-.49.26-1 .52-1.43.82a1.3 1.3 0 0 0-.23.12c-.49.3-1 .59-1.43.91l-.78.54c-.23.16-.45.31-.68.49-.58.4-1.15.84-1.69 1.29-.23.17-.45.37-.68.56-.38.31-.77.65-1.13 1a3.6 3.6 0 0 0-.4.38c-.56.52-1.1 1.05-1.62 1.6-.3.31-.58.63-.87.94s-.33.4-.51.61-.19.21-.28.31-.17.23-.26.33-.28.31-.42.49l-.12.16c0 .05-.09.1-.12.16l-.63.84c-.65.89-1.27 1.83-1.87 2.79-.16.24-.3.49-.44.73-.26.44-.51.87-.75 1.33-.17.3-.33.61-.49.92l-8.15 15.94q-12 23.7 17.39 33.63l23.62 7.38c3.26 1.29 5.32 2.69 6.12 4.19s.51 3.66-1 6.51l-6 12c-.21.4-.42.78-.63 1.15l-.16.26a5 5 0 0 1-.33.54 1 1 0 0 1-.12.17 1 1 0 0 1-.12.19c0 .07-.09.12-.12.19l-.14.17a.3.3 0 0 1-.07.1 1.2 1.2 0 0 1-.21.26 3.6 3.6 0 0 1-.4.52 8 8 0 0 1-.61.68 9.4 9.4 0 0 1-1.29 1.12c-.23.16-.45.3-.68.44-1.8 1.05-4.43 1.55-7.87 1.55h-3.26c-2.9 0-4.94-.72-6.11-2.13s-1.13-3.31.12-5.65l8.7-17.29-60.08 20c-.09.3-.17.61-.26.91-.17.59-.31 1.19-.42 1.76a3 3 0 0 0-.1.56 19.6 19.6 0 0 0-.31 4.88 15 15 0 0 0 .19 1.66c.05.3.1.61.17.91s.16.72.26 1.06.16.52.23.77c.09.24.17.49.26.73.21.49.42 1 .66 1.45.14.24.26.47.4.72a3 3 0 0 0 .19.35 4 4 0 0 0 .23.35c.14.23.28.45.44.68a8 8 0 0 0 .51.66l.05.09a1.4 1.4 0 0 0 .19.24 3 3 0 0 0 .23.26l.17.21c.14.17.28.35.44.51.37.4.73.77 1.13 1.13s.68.61 1 .91l.16.12.07.05c.38.3.77.59 1.19.89l.14.1c.33.23.68.45 1 .66l.1.07.24.14h.05l.09.05.38.23h.14l.45.26.26.14a8 8 0 0 0 .82.42l.23.1.3.14c.4.19.84.38 1.27.54.4.17.79.33 1.2.47s.82.3 1.24.44a15 15 0 0 0 1.41.42c.44.14.89.24 1.34.37l.75.17h.1c.35.09.7.16 1.06.23a7 7 0 0 0 .79.16.3.3 0 0 0 .14 0l1.12.21h.14c.92.16 1.88.28 2.88.38.49.07 1 .12 1.52.16 1 .09 1.95.16 3 .19 1.33.07 2.69.1 4.08.1h38.12c.58 0 1.15 0 1.73-.07s1 0 1.48-.07c.66 0 1.33-.07 2-.12h.42c.54 0 1.06-.09 1.61-.14s.92-.09 1.38-.14c.73-.07 1.46-.16 2.18-.26s1.43-.19 2.15-.31c1.4-.23 2.76-.47 4.1-.77.63-.14 1.26-.28 1.87-.44.35-.09.72-.17 1.06-.28 1-.24 1.9-.51 2.81-.8.65-.21 1.29-.42 1.9-.65h.07l.51-.17a4 4 0 0 0 .45-.19 1 1 0 0 0 .23-.09l.26-.1a.7.7 0 0 0 .14 0c.45-.17.91-.37 1.36-.56a2 2 0 0 0 .38-.17c.42-.17.84-.37 1.24-.56a2.3 2.3 0 0 0 .37-.16 6 6 0 0 0 .56-.28c.35-.16.7-.33 1-.52a.15.15 0 0 0 .07 0 7 7 0 0 0 .72-.37l.54-.31a1.3 1.3 0 0 1 .23-.12l.3-.19.14-.07a.24.24 0 0 1 .1 0l.77-.45.17-.12c.51-.3 1-.63 1.45-1l.09-.05a2 2 0 0 0 .26-.17 3 3 0 0 0 .31-.23 3 3 0 0 0 .33-.26.6.6 0 0 0 .14-.09 1.3 1.3 0 0 0 .24-.17 2 2 0 0 0 .26-.19c.19-.14.38-.3.58-.44l.33-.28c.49-.38 1-.78 1.43-1.2l1.2-1.13c.42-.4.78-.77 1.15-1.17.78-.8 1.5-1.64 2.18-2.49.33-.44.66-.87 1-1.33s.65-.91 1-1.38.68-1.06 1-1.6a8 8 0 0 0 .52-.91c.35-.63.7-1.26 1-1.9l9.23-18.66a33.4 33.4 0 0 0 3-8.48 20 20 0 0 0 .4-2.79 16.6 16.6 0 0 0 0-2.44 6 6 0 0 0-.05-.75q0-.42-.09-.84c-.09-.56-.19-1.1-.33-1.64a18 18 0 0 0-.79-2.36c-.16-.38-.33-.75-.52-1.12s-.4-.73-.63-1.1c-.19-.3-.37-.59-.58-.87s-.4-.56-.63-.84a3.4 3.4 0 0 0-.38-.49l-.51-.58c-.19-.21-.4-.44-.61-.65l-.66-.66c-.68-.63-1.43-1.24-2.23-1.85l-.84-.59-.42-.28c-.44-.3-.89-.58-1.34-.85-.28-.17-.58-.33-.87-.51s-.47-.26-.72-.38a3 3 0 0 0-.35-.19q-.31-.18-.63-.33a3 3 0 0 1-.38-.19l-.68-.31a4 4 0 0 0-.4-.19l-.33-.16-.28-.12-.49-.21c-.37-.16-.75-.31-1.13-.45l-1.19-.47-.61-.23c-.61-.23-1.24-.45-1.88-.66l-23.36-7.38c-3.26-1.29-5.25-2.72-6-4.27s-.45-3.68.82-6.42l4.62-9.33c1.45-2.84 3.12-4.8 5-5.83a17 17 0 0 1 8-1.55h2.7q4.63 0 6.38 2a5 5 0 0 1 .33.45s0 0 0 .07a.7.7 0 0 1 .09.17.5.5 0 0 1 .1.21 1 1 0 0 1 .07.17 1.2 1.2 0 0 1 .1.38.4.4 0 0 1 0 .16 6.7 6.7 0 0 1-.92 4.05l-8.15 15.75Zm64.31 102.29c-.24-.24-.51-.47-.78-.7a7.5 7.5 0 0 0-.85-.63c-.31-.19-.63-.38-1-.56s-.68-.33-1.05-.49a15 15 0 0 0-1.62-.56l-.77-.21-.7-.16c-.3-.07-.61-.12-.94-.17s-.77-.12-1.17-.17a9 9 0 0 0-1-.1l-.82-.07c-.78-.05-1.61-.07-2.46-.07h-33.4l-29.86 55.28h22.36l10.64-19.66h5.09l-3.51 19.66h22.49l1.33-20.72q8.48-2.12 12-8.62l6.54-12q3.38-6.18-.49-10.07Zm-21.64 9.5-4.95 9.11a8 8 0 0 1-.45.82 5 5 0 0 1-.51.68 2.6 2.6 0 0 1-.28.3 3 3 0 0 1-.26.24 4 4 0 0 1-.61.42 7.4 7.4 0 0 1-3.45.7h-5.91l8.46-15.61h5.32a3.88 3.88 0 0 1 2.56.68 2 2 0 0 1 .21.21c.49.59.45 1.41-.12 2.44ZM593.6 29.16l3.79 8.84 1.61 3.79 2.27 5.37-58 114.17h50.26l67.1-132.17h-67Zm112.74 150.91a7 7 0 0 0-.28-1 6 6 0 0 0-.26-.63s0-.09 0-.12-.1-.26-.17-.38a4 4 0 0 0-.23-.35c-.14-.23-.3-.45-.47-.68a6 6 0 0 0-.58-.63L704 176h-.07a3.6 3.6 0 0 0-.56-.49.3.3 0 0 0-.16-.1 6.6 6.6 0 0 0-.91-.61l-.51-.3-.61-.31a23.6 23.6 0 0 0-10.1-1.83h-15q-17.54 0-23.1 10.33l-17.3 32.01q-3.37 6.18.49 10.08a7 7 0 0 0 .7.63c.3.24.61.47 1 .7s.42.26.65.37l.14.07a4 4 0 0 0 .52.28 8 8 0 0 0 .72.33c.24.1.51.19.77.28s.47.16.72.23a9 9 0 0 0 .91.26h.07l.44.1c.14 0 .28.07.44.09a19 19 0 0 0 1.92.31l1 .1c.7.07 1.41.1 2.18.12h17.98c.59 0 1.17 0 1.73-.09h.05c.37 0 .7-.05 1-.09l1.47-.16c.44-.05.85-.12 1.27-.19h.26a.8.8 0 0 1 .16 0l.63-.12c.3-.05.59-.1.89-.17a3 3 0 0 0 .38-.09c.58-.14 1.12-.28 1.66-.44s1.06-.33 1.57-.52a22 22 0 0 0 2.88-1.29 19 19 0 0 0 2.49-1.6 17 17 0 0 0 2.13-1.94 2.4 2.4 0 0 0 .21-.23c.24-.26.49-.54.7-.82a18 18 0 0 0 1.57-2.42l7.13-13.33h-22L667 215.36a6.85 6.85 0 0 1-2.25 2.56l-.4.21a4.3 4.3 0 0 1-1 .31l-.45.07a10 10 0 0 1-1 .09 5 5 0 0 1-.56 0h-.85a3.36 3.36 0 0 1-2.72-.94 2 2 0 0 1 0-2.39l16.2-29.76a11 11 0 0 1 .63-1 2.4 2.4 0 0 1 .33-.42c.1-.14.23-.26.33-.38a6 6 0 0 1 .58-.47 2 2 0 0 1 .3-.19 7.15 7.15 0 0 1 3.51-.7h.85a3.21 3.21 0 0 1 2.67.94 2.05 2.05 0 0 1-.12 2.39l-5.56 10.24h22.12l5.34-9.66c.19-.33.37-.68.52-1s.3-.68.42-1 .19-.54.26-.8a6 6 0 0 0 .17-.77 7 7 0 0 0 .14-.79v-.72a7 7 0 0 0-.09-1.1Zm13.4-7.24-29.86 55.28h22.36l29.88-55.28Zm37-143.67-59.48 84.72 26.64-84.74h-52.41l-32.6 132.17h57.88L799.16 29.16Zm31.27 143.67-16.57 30.65 3.38-30.65h-24l-29.88 55.28h16.2l16.57-30.65-3.38 30.65h24l29.88-55.28zm73 6.94a4 4 0 0 0-.12-.49l-.16-.49c-.05-.14-.12-.3-.19-.45a3 3 0 0 0-.23-.45c-.12-.23-.28-.45-.42-.68s-.21-.26-.31-.4-.35-.4-.54-.61a12 12 0 0 0-1-.92c-.26-.19-.54-.38-.84-.56l-.07-.05c-.07-.05-.07 0-.1 0a9 9 0 0 0-.89-.49c-.3-.14-.59-.28-.91-.4l-.8-.3a1 1 0 0 1-.17-.07 23 23 0 0 0-3.46-.77h-.17l-1.43-.16c-1-.09-2.13-.14-3.3-.14h-15.64q-17.53 0-23.1 10.33l-17.29 32.03a11.15 11.15 0 0 0-1.59 5.3v.65c0 .21 0 .3.05.44a2.5 2.5 0 0 0 .07.33 4 4 0 0 0 .12.47 7 7 0 0 0 .51 1.2 5.5 5.5 0 0 0 .4.63c.09.12.17.24.26.35a6 6 0 0 0 .59.66 7 7 0 0 0 .7.63c.3.24.61.47 1 .7a15 15 0 0 0 2 1c.24.1.51.19.77.28s.47.16.72.23a9 9 0 0 0 .91.26h.07c.28.07.56.14.85.19a18 18 0 0 0 1.94.31l1 .1c.7.07 1.41.1 2.18.12h18.56a1 1 0 0 0 .23 0h1a5 5 0 0 1 .54 0l.51-.05c.33 0 .66 0 1-.09a.4.4 0 0 0 .21 0l1-.1.78-.1c.4 0 .8-.12 1.2-.19.65-.12 1.27-.24 1.87-.38.59-.16 1.17-.31 1.73-.49a15 15 0 0 0 1.59-.56c.51-.19 1-.42 1.47-.65 3.72-1.83 6.73-5 9.07-9.42l9.82-18.15h-27.08l-3.37 6.33-1.55 2.93h6.28l-4.28 7.89a5.7 5.7 0 0 1-2.23 2.44c-.21.1-.45.19-.7.28a7.6 7.6 0 0 1-1.78.33h-3.75a3.36 3.36 0 0 1-2.72-.94 2 2 0 0 1 0-2.39L828 185.53c.1-.19.21-.37.31-.54s.21-.31.33-.47a2.4 2.4 0 0 1 .33-.42c.12-.14.23-.26.35-.38s.4-.33.61-.47a3 3 0 0 1 .31-.19 7.1 7.1 0 0 1 3.44-.7H835a3.34 3.34 0 0 1 2.7.94c.54.61.51 1.41-.05 2.39l-4.36 8.06h22.38l4-7.48a13.8 13.8 0 0 0 1.12-2.69c.07-.23.12-.45.17-.66s.09-.44.12-.65a7.6 7.6 0 0 0 0-2.48Zm43.77-125.54 12.49-25.07H803.08l7.68 17.74-58.09 114.43H855.9l12.49-25.26h-52.7l15.21-29.74h43.45l12.49-24.86h-43.45l13.85-27.23h47.54Z" class="cls-1"/><path d="M670.6 228.3c.44-.05.85-.12 1.27-.19a1.5 1.5 0 0 1-.3 0l-1 .16Zm-77-199.14 5.4 12.63-1.62-3.79-3.79-8.88Zm-9.91 147.56c-.24-.24-.51-.47-.78-.7a7.5 7.5 0 0 0-.85-.63c-.31-.19-.63-.38-1-.56s-.68-.33-1.05-.49a15 15 0 0 0-1.62-.56l-.77-.21-.7-.16c-.3-.07-.61-.12-.94-.17s-.77-.12-1.17-.17a9 9 0 0 0-1-.1l-.82-.07c-.78-.05-1.61-.07-2.46-.07h-33.4l-29.86 55.28h22.36l10.64-19.66h5.09l-3.51 19.66h22.49l1.33-20.72q8.48-2.12 12-8.62l6.54-12q3.38-6.18-.49-10.07Zm-49.43-89.17.49.21-.49-.23Zm-8.6 64.51a2 2 0 0 0 .26-.19c.19-.14.38-.3.58-.44-.14.1-.3.23-.44.31l-.45.33a2 2 0 0 1-.33.24.6.6 0 0 0 .14-.09 1.3 1.3 0 0 0 .24-.17Zm-4 2.63-.3.19.44-.26zm-2.88 1.55-.92.44a2.3 2.3 0 0 0 .37-.16 6 6 0 0 0 .56-.28Zm-2.55 1.17c.56-.23 1.1-.47 1.62-.73l-1.24.56c-.61.26-1.26.52-1.88.77l-.26.1a2.4 2.4 0 0 0 .4-.14c.45-.17.91-.37 1.36-.56m-27.39-22.71c0-.07.09-.12.12-.19l-.26.37.14-.17Zm-25.21-90.27c.17-.21.35-.4.51-.61-.26.3-.54.61-.78.92a4 4 0 0 1 .28-.31Zm-.54.64c.09-.1.17-.23.26-.33-.19.21-.37.42-.54.65a4 4 0 0 1 .28-.31ZM419.65 152.3c.12.16.26.31.4.47l-.17-.21a3 3 0 0 1-.23-.26m-.26-.33a.5.5 0 0 0 .07.09v-.09Zm-1.17-1.69c.21.35.44.68.66 1-.16-.23-.3-.45-.44-.68a4 4 0 0 1-.23-.35Zm-.59-1.07a10 10 0 0 0 .59 1.06 3 3 0 0 1-.19-.35c-.14-.24-.26-.47-.4-.72Zm-.94-2.18c.09.24.17.49.28.73-.09-.24-.17-.49-.26-.73Zm-83.36-8.46h.8-.92a.25.25 0 0 0 .12 0m-3.79-.92h.09a1.8 1.8 0 0 1-.33-.19Z" style="fill:url(#linear-gradient)"/><path d="M911.67 65.36 935.25 18H751l-21.59 30.79L739.07 18H576.81l4.5 10.62c-8-7.94-20.41-12-36.95-12h-34.5c-18.75 0-33.77 3.94-45 11.69L470.1 18H78.74l12.37 28.53-63.93 125.94h237.08l6.37-12.47c.26.28.51.56.73.82 8 8.63 20.78 13 38.06 13H345c27.94 0 47.78-8.67 58.91-25.76.42-.63.8-1.27 1.19-1.94a28.2 28.2 0 0 0 7.24 14.69c8 8.63 20.76 13 38 13h35c18.56 0 33.44-3.77 44.59-11.2l-41.38 76.61H634.7l.47-2a36 36 0 0 0 14.3 2.58h15a57 57 0 0 0 8.27-.56H781l2.88-5.34c4.69 3.91 11.32 5.9 19.75 5.9h15c8.42 0 15.11-1.27 20.43-3.92 5.81-2.88 10.48-7.64 13.92-14.15l9.12-16.87 7.33-13.36c.35-.65.66-1.29.94-1.92l.87-2.36A18.17 18.17 0 0 0 867 168.4c-.47-.47-1-.91-1.5-1.34L886.29 125h-52.4l3.82-7.5h43.52l23.67-47.17h-43.35l2.51-5h47.61Zm-187.75-36.2-26.64 84.74 59.48-84.72h42.37L696.76 161.33h-57.88l32.6-132.17ZM796 51.42 740 161.7h-29.45zM148.51 161.33H45.3l58.09-114.45-7.69-17.72h114.2l-12.49 25.07h-47.53L136 81.46h43.45L167 106.32h-43.48l-15.21 29.74H161l-12.49 25.26Zm50.92-96-2.53 5h-42.74l2.53-5ZM173 117.45l-3.8 7.5h-42.7l3.82-7.5Zm84.46 43.88h-94.3l58.1-114.43-7.68-17.74h66.93l-53.78 106.13h44l-13.33 26Zm11.14-37.2h-23.75L297.15 21l11 25.5-39.61 77.66ZM396.87 138a40 40 0 0 1-2.29 4q-13.5 20.7-49.58 20.69h-35.59q-21.2 0-29.88-9.42t-1.1-24l42.06-82.42-7.68-17.69h66.95l-51.62 101.45a8 8 0 0 0-.73 1.73 5.1 5.1 0 0 0-.24 1.55 3.8 3.8 0 0 0 .86 2.46 4 4 0 0 0 .49.52.5.5 0 0 0 .12.1 2 2 0 0 0 .42.35 2 2 0 0 0 .24.16 1.8 1.8 0 0 0 .33.19 7.5 7.5 0 0 0 1 .42 11 11 0 0 0 1.27.31 10 10 0 0 0 1.29.14h3.92a23.6 23.6 0 0 0 4.55-.4 12 12 0 0 0 1.81-.52 9 9 0 0 0 1.52-.73 6 6 0 0 0 .51-.33l.16-.12a9.2 9.2 0 0 0 1.32-1.15c.23-.23.44-.45.65-.7a.5.5 0 0 0 .16-.17l.09-.1c.14-.16.26-.31.4-.49s.44-.56.65-.87l.63-1 .61-1L402 29.17h50L396.88 138Zm59.61-28.4-39.39 13.14 18.8-37.16a26.8 26.8 0 0 0 1.69 6c3.07 7.5 9.4 13.54 18.89 18Zm73 39.2c-.4.38-.8.77-1.2 1.12-.47.42-.94.82-1.43 1.2l-.33.28c-.19.14-.38.3-.58.44a2 2 0 0 1-.26.19l-.24.17a1 1 0 0 1-.14.09 3 3 0 0 1-.33.26 3 3 0 0 1-.31.23 2 2 0 0 1-.26.17l-.09.05c-.47.33-.94.66-1.45 1l-.17.12c-.24.16-.51.3-.77.45a.24.24 0 0 0-.1.05l-.44.26a1.3 1.3 0 0 0-.23.12l-.54.31c-.23.12-.47.26-.72.37a.08.08 0 0 1-.07 0 10 10 0 0 1-1 .52c-.17.1-.37.19-.56.28s-.24.12-.37.16c-.52.26-1.06.51-1.62.73l-1.36.56-.4.14-.23.09c-.16.07-.3.14-.45.19a4 4 0 0 1-.51.17h-.07c-.61.23-1.26.44-1.9.65-.91.3-1.85.56-2.81.8l-1.06.28c-.61.16-1.24.3-1.87.44-1.34.3-2.7.54-4.1.77-.72.12-1.41.23-2.15.31s-1.45.19-2.18.26l-1.38.14-1.61.14h-.42c-.66.05-1.33.09-2 .12l-1.48.07-1.73.07h-38.12c-1.4 0-2.76 0-4.08-.1-1 0-2-.1-3-.19-.51 0-1-.09-1.52-.16-1-.1-1.95-.23-2.88-.38h-.14a11 11 0 0 1-1.12-.21.3.3 0 0 1-.14 0 6 6 0 0 1-.79-.16 9 9 0 0 1-1.06-.23h-.1l-.75-.17c-.45-.12-.91-.23-1.34-.37a15 15 0 0 1-1.41-.42c-.42-.14-.84-.28-1.24-.44a12 12 0 0 1-1.2-.47c-.44-.16-.87-.35-1.27-.54l-.3-.14-.23-.1a6 6 0 0 1-.82-.42l-.26-.14a5 5 0 0 1-.45-.26l-.09-.05a2 2 0 0 1-.38-.23h-.14a1.2 1.2 0 0 1-.24-.14.3.3 0 0 1-.1-.07c-.35-.21-.7-.44-1-.66l-.14-.1c-.42-.3-.8-.59-1.19-.89h-.07a.6.6 0 0 0-.16-.12c-.37-.31-.7-.61-1-.91s-.77-.73-1.13-1.13a5 5 0 0 1-.44-.51c-.14-.16-.28-.31-.4-.47s-.14-.16-.19-.24a.3.3 0 0 1-.07-.09c-.17-.21-.35-.44-.51-.66s-.45-.68-.66-1-.42-.7-.59-1.06-.45-1-.66-1.45c-.1-.24-.19-.49-.28-.73s-.16-.51-.23-.77-.19-.7-.26-1.06a7 7 0 0 1-.17-.91 15 15 0 0 1-.19-1.66 20 20 0 0 1 .31-4.88 3.5 3.5 0 0 1 .1-.56 14.5 14.5 0 0 1 .42-1.76c.09-.3.17-.61.26-.91l60.08-20-8.7 17.29c-1.26 2.34-1.31 4.22-.12 5.65s3.21 2.13 6.11 2.13h3.26c3.44 0 6.07-.51 7.87-1.55.23-.14.45-.28.68-.44a8.8 8.8 0 0 0 1.29-1.12c.21-.21.42-.45.61-.68a4 4 0 0 0 .4-.52 1.2 1.2 0 0 0 .21-.26l.07-.1.26-.37a1 1 0 0 0 .12-.19 1 1 0 0 0 .12-.17 5 5 0 0 0 .33-.54l.16-.26c.21-.37.42-.75.63-1.15l6-12c1.46-2.84 1.78-5 1-6.51s-2.86-2.9-6.12-4.19l-23.62-7.38q-29.32-9.91-17.39-33.63l8.15-15.94.49-.92c.24-.45.49-.89.75-1.33.14-.24.28-.49.44-.73.59-1 1.22-1.9 1.87-2.79l.63-.84.24-.32.14-.17c.17-.23.35-.44.54-.65s.52-.63.78-.92.58-.63.87-.94c.52-.56 1.06-1.08 1.62-1.6a3.6 3.6 0 0 1 .4-.38l1.13-1c.21-.19.45-.38.68-.56.54-.45 1.12-.89 1.69-1.29l.68-.49.51-.79c.47-.31.94-.61 1.43-.91a1.3 1.3 0 0 1 .23-.12c.47-.3.94-.56 1.43-.82.24-.14.49-.28.73-.4.72-.38 1.45-.75 2.2-1.08s1.47-.66 2.22-1c.42-.17.87-.35 1.31-.51l1.33-.49c.3-.1.59-.21.91-.3.77-.26 1.55-.51 2.34-.73l.28-.07c.94-.26 1.88-.51 2.84-.72l.91-.21 1.66-.35c.14 0 .3-.05.45-.09.66-.12 1.34-.23 2-.33.49-.09 1-.16 1.5-.23.82-.12 1.66-.23 2.51-.31l1.4-.14c.87-.09 1.74-.16 2.65-.23l2.74-.14a.22.22 0 0 1 .16 0h1.47c1 0 2.08-.05 3.14-.05h34.5q20.91 0 29.6 9.23c4.6 4.9 5.9 10.87 3.85 17.93l-58.38 19.51 8.15-15.75a6.62 6.62 0 0 0 .92-4 1 1 0 0 0 0-.16 1.5 1.5 0 0 0-.1-.38.06.06 0 0 0 0-.05.6.6 0 0 0-.07-.17.7.7 0 0 0-.1-.21.5.5 0 0 0-.09-.17.4.4 0 0 1 0-.07 4 4 0 0 0-.33-.45q-1.76-2-6.38-2h-2.7a17 17 0 0 0-8 1.55c-1.9 1-3.58 3-5 5.83L501 67.65c-1.27 2.74-1.53 4.87-.82 6.42s2.72 3 6 4.27l23.36 7.38c.65.21 1.27.42 1.88.66l.61.23 1.19.47c.38.14.77.3 1.13.45l.49.23.28.12a2.5 2.5 0 0 1 .33.16 4 4 0 0 1 .4.19l.68.31a3 3 0 0 0 .38.19q.32.15.63.33a3 3 0 0 1 .35.19l.72.38c.3.17.59.33.87.51.45.28.91.56 1.34.85.14.09.28.17.42.28l.84.59c.8.61 1.55 1.22 2.23 1.85l.66.66c.21.21.42.44.61.65s.35.38.51.58a3 3 0 0 1 .38.49q.35.42.63.84c.21.3.4.59.58.87a12 12 0 0 1 .63 1.1c.19.37.37.75.52 1.12a19 19 0 0 1 .79 2.36c.14.54.24 1.08.33 1.64 0 .28.07.56.09.84a6 6 0 0 1 0 .75 16.6 16.6 0 0 1 0 2.44 20 20 0 0 1-.4 2.79 33.4 33.4 0 0 1-3 8.48L537.36 138c-.31.65-.66 1.27-1 1.9-.16.31-.33.61-.52.91-.31.54-.65 1.08-1 1.6-.61.94-1.27 1.83-2 2.7s-1.4 1.69-2.18 2.49c-.37.4-.73.77-1.15 1.17Zm49.55-82.53L560.8 102.2a28.2 28.2 0 0 0-1.76-6.3c-2.93-7.08-8.76-12.84-17.39-17.16Zm-35.77 95.05 58-114.17-2.26-5.36-5.37-12.63h67l-67.09 132.17Zm62.53.37 41.88-82.49-20.34 82.5h-21.52Zm80.07 59.08a9 9 0 0 1-.7.82q-.25.24 0 0a2.4 2.4 0 0 1-.21.23 18 18 0 0 1-2.13 1.94 20.4 20.4 0 0 1-2.49 1.61 22 22 0 0 1-2.88 1.29c-.51.19-1 .37-1.57.52s-1.08.3-1.66.44l-.38.09c-.3.07-.59.12-.89.17l-.63.12a.8.8 0 0 1-.16 0h-.26c-.42.07-.84.14-1.27.19l-1.47.16c-.33 0-.7.07-1 .09H668c-.56.05-1.13.07-1.73.09s-1.22 0-1.83 0h-16.15c-.75 0-1.48 0-2.18-.12l-1-.1c-.66-.09-1.31-.17-1.92-.31a3 3 0 0 1-.44-.09l-.44-.1h-.07a10 10 0 0 1-.91-.26 4.6 4.6 0 0 1-.72-.23c-.26-.09-.52-.17-.77-.28s-.49-.21-.72-.33a3.3 3.3 0 0 1-.52-.28l-.14-.07a5 5 0 0 1-.65-.37 10 10 0 0 1-1-.7 8 8 0 0 1-.7-.63c-2.58-2.6-2.74-6-.49-10.08l17.38-32q5.58-10.31 23.1-10.33h15a23.6 23.6 0 0 1 10.1 1.83l.61.31a5 5 0 0 1 .51.3 6.6 6.6 0 0 1 .91.61.6.6 0 0 1 .16.1 4 4 0 0 1 .56.49l.07.05a1.5 1.5 0 0 1 .31.3 7 7 0 0 1 .58.63c.17.23.33.45.47.68a4 4 0 0 1 .23.35c.07.12.1.24.17.38s0 .09 0 .12a6 6 0 0 1 .26.63 7 7 0 0 1 .28 1 8 8 0 0 1 .09 1.1v.72a5 5 0 0 1-.14.78 4.7 4.7 0 0 1-.17.77 8 8 0 0 1-.26.8c-.12.31-.26.66-.42 1s-.33.66-.52 1l-5.34 9.66h-22.15l5.59-10.21a2.05 2.05 0 0 0 .12-2.39 3.21 3.21 0 0 0-2.67-.94h-.85a7.15 7.15 0 0 0-3.51.7c-.1 0-.19.12-.3.19s-.38.3-.58.47-.23.24-.33.38a2.4 2.4 0 0 0-.33.42c-.21.3-.42.65-.63 1l-16.2 29.76a2 2 0 0 0 0 2.39 3.36 3.36 0 0 0 2.72.94h.85a5 5 0 0 0 .56 0 7 7 0 0 0 1-.09 3 3 0 0 0 .45-.07 4.3 4.3 0 0 0 1-.31l.4-.21a6.9 6.9 0 0 0 2.25-2.56l5.59-10.33h22l-7.13 13.33a17.6 17.6 0 0 1-1.57 2.42Zm4 7.33 29.86-55.28h22.38l-29.88 55.28Zm84.52 0h-24l3.38-30.65-16.57 30.65H721l29.88-55.28h24l-3.38 30.65 16.57-30.65h16.21l-29.88 55.29Zm86.67-45.86c0 .21-.07.42-.12.65a4 4 0 0 1-.17.66 13.6 13.6 0 0 1-1.12 2.69l-4 7.48h-22.36l4.36-8.06c.56-1 .59-1.78.05-2.39a3.34 3.34 0 0 0-2.7-.94h-1.34a7.1 7.1 0 0 0-3.44.7 3 3 0 0 0-.31.19c-.21.14-.4.3-.61.47s-.23.24-.35.38a2.4 2.4 0 0 0-.33.42 6.7 6.7 0 0 0-.64 1.01l-16.08 29.76a1.94 1.94 0 0 0 0 2.39 3.36 3.36 0 0 0 2.72.94h3.75a7.6 7.6 0 0 0 1.78-.33 6 6 0 0 0 .7-.28 5.7 5.7 0 0 0 2.23-2.44l4.22-7.87H821l1.57-2.93 3.37-6.33H853l-9.79 18.14c-2.34 4.43-5.35 7.59-9.07 9.42-.47.23-1 .45-1.47.65s-1 .38-1.59.56-1.12.35-1.73.49-1.22.28-1.87.38c-.4.07-.8.14-1.2.19l-.78.1-1 .1a.5.5 0 0 1-.21 0c-.49.07-1 .1-1.48.14h-1.54a1 1 0 0 1-.23 0h-18.56c-.77 0-1.48 0-2.18-.12l-1-.1c-.68-.09-1.33-.17-1.94-.31-.3 0-.58-.12-.85-.19h-.07a10 10 0 0 1-.91-.26 4.6 4.6 0 0 1-.72-.23c-.26-.09-.52-.17-.77-.28a13 13 0 0 1-2-1 10 10 0 0 1-1-.7 8 8 0 0 1-.7-.63 7 7 0 0 1-.59-.66c-.09-.1-.17-.23-.26-.35a5.5 5.5 0 0 1-.4-.63 6.4 6.4 0 0 1-.51-1.2 4 4 0 0 1-.12-.47c0-.1-.05-.23-.07-.33s0 0 0-.05v-1.09a11 11 0 0 1 1.59-5.3l17.29-32.11q5.58-10.31 23.1-10.33h15.59c1.17 0 2.25 0 3.3.14l1.43.16a.7.7 0 0 0 .17 0c.45.05.89.14 1.33.23.75.16 1.47.33 2.13.54l.17.07c.28.09.54.19.8.3s.61.26.91.4a7 7 0 0 1 .89.49.24.24 0 0 1 .1.05s0 0 .07 0a9 9 0 0 1 .84.56 13 13 0 0 1 1 .92c.19.21.38.4.54.61s.21.26.31.4.3.45.42.68a4 4 0 0 1 .23.45 4 4 0 0 1 .19.45 2.6 2.6 0 0 1 .16.49 3.5 3.5 0 0 1 .12.49 7.3 7.3 0 0 1 .05 2.48Zm25.8-100.78-12.49 24.86h-43.45l-15.21 29.76h52.7l-12.49 25.26H752.68l58.09-114.43-7.68-17.74h114.19l-12.49 25.07h-47.53l-13.85 27.23h43.44Z" class="cls-1"/><path d="M861 179.77a4 4 0 0 0-.12-.49l-.16-.49c-.05-.14-.12-.3-.19-.45a3 3 0 0 0-.23-.45c-.12-.23-.28-.45-.42-.68s-.21-.26-.31-.4-.35-.4-.54-.61a12 12 0 0 0-1-.92c-.26-.19-.54-.38-.84-.56l-.07-.05c-.07-.05-.07 0-.1 0a9 9 0 0 0-.89-.49c-.3-.14-.59-.28-.91-.4l-.8-.3a1 1 0 0 1-.17-.07 23 23 0 0 0-3.46-.77h-.17l-1.43-.16c-1-.09-2.13-.14-3.3-.14h-15.63q-17.53 0-23.1 10.33l-17.29 32.03a11.15 11.15 0 0 0-1.59 5.3v.65c0 .21 0 .3.05.44a2.5 2.5 0 0 0 .07.33 4 4 0 0 0 .12.47 7 7 0 0 0 .51 1.2 5.5 5.5 0 0 0 .4.63c.09.12.17.24.26.35a6 6 0 0 0 .59.66 7 7 0 0 0 .7.63c.3.24.61.47 1 .7a15 15 0 0 0 2 1c.24.1.51.19.77.28s.47.16.72.23a9 9 0 0 0 .91.26h.07c.28.07.56.14.85.19a18 18 0 0 0 1.94.31l1 .1c.7.07 1.41.1 2.18.12h18.56a1 1 0 0 0 .23 0h1a5 5 0 0 1 .54 0l.51-.05c.33 0 .66 0 1-.09a.4.4 0 0 0 .21 0l1-.1.78-.1c.4 0 .8-.12 1.2-.19.65-.12 1.27-.24 1.87-.38.59-.16 1.17-.31 1.73-.49a15 15 0 0 0 1.59-.56c.51-.19 1-.42 1.47-.65 3.72-1.83 6.73-5 9.07-9.42l9.82-18.15h-27.08l-3.37 6.33-1.55 2.93h6.28l-4.28 7.89a5.7 5.7 0 0 1-2.23 2.44c-.21.1-.45.19-.7.28a7.6 7.6 0 0 1-1.78.33h-3.75a3.36 3.36 0 0 1-2.72-.94 2 2 0 0 1 0-2.39L828 185.53c.1-.19.21-.37.31-.54s.21-.31.33-.47a2.4 2.4 0 0 1 .33-.42c.12-.14.23-.26.35-.38s.4-.33.61-.47a3 3 0 0 1 .31-.19 7.1 7.1 0 0 1 3.44-.7H835a3.34 3.34 0 0 1 2.7.94c.54.61.51 1.41-.05 2.39l-4.36 8.06h22.38l4-7.48a13.8 13.8 0 0 0 1.12-2.69c.07-.23.12-.45.17-.66s.09-.44.12-.65a7.6 7.6 0 0 0 0-2.48Z" class="cls-1"/><path d="m529.44 85.73-23.36-7.39c-3.27-1.29-5.26-2.73-6-4.27s-.46-3.69.82-6.42l4.62-9.33c1.45-2.85 3.11-4.79 5-5.83a17 17 0 0 1 8-1.56h2.71q4.62 0 6.39 2c1.17 1.36 1.12 3.27-.13 5.73l-8.09 15.8L577.86 55q3.06-10.62-3.86-18-8.7-9.22-29.6-9.23h-34.51q-39.11 0-51.6 24.68l-8.15 15.94q-12 23.71 17.39 33.63l23.63 7.39c3.26 1.29 5.31 2.69 6.12 4.18s.5 3.66-1 6.51l-6 12a13.55 13.55 0 0 1-4.89 5.84c-1.8 1-4.44 1.55-7.88 1.55h-3.26q-4.33 0-6.11-2.14c-1.18-1.42-1.13-3.3.13-5.64l8.7-17.3-60.08 20q-3.45 11.11 3.57 18.74 8.7 9.42 29.88 9.43h35q39.66 0 51.89-24.68l9.23-18.67q11.94-23.91-17.11-33.63Z" style="fill:url(#linear-gradient-2)"/><path d="m756.79 29.16-59.49 84.75 26.63-84.75H671.5l-32.6 132.18h57.86L799.17 29.16z" style="fill:url(#linear-gradient-3)"/><path d="m197.41 54.24 12.5-25.08H95.69l7.69 17.74L45.3 161.34h103.21l12.5-25.27h-52.7l15.21-29.74h43.47l12.49-24.87h-43.46l13.85-27.22z" style="fill:url(#linear-gradient-4)"/><path d="M280.53 29.16h-66.95l7.69 17.75-58.1 114.43h94.27l13.31-26.04h-44z" style="fill:url(#linear-gradient-5)"/><path d="M402 29.16 350.16 131a16.1 16.1 0 0 1-5.16 5.93q-2.72 1.67-7.88 1.66h-3q-4.35 0-6.11-2.24c-1.18-1.49-1.13-3.4.13-5.74l51.62-101.45h-66.95l7.66 17.7-42 82.41q-7.59 14.58 1.09 24t29.88 9.43H345q36.09 0 49.6-20.73a42 42 0 0 0 2.28-3.95L452 29.17h-50Z" style="fill:url(#linear-gradient-6)"/><path d="m904.79 54.24 12.49-25.08h-114.2l7.68 17.75-58.09 114.43H855.9l12.49-25.27H815.7l15.2-29.74h43.46l12.5-24.87H843.4l13.86-27.22z" style="fill:url(#linear-gradient-7)"/><path d="M611.57 29.16h-17.96l7.63 18-57.95 114.18h50.24l67.1-132.18z" style="fill:url(#linear-gradient-8)"/><path d="M583.69 176.74a10.8 10.8 0 0 0-2.62-1.9c-.33-.17-.68-.33-1.05-.49a15 15 0 0 0-1.62-.56l-.77-.21-.7-.16c-.3-.07-.61-.12-.94-.17s-.77-.12-1.17-.17a9 9 0 0 0-1-.1l-.82-.07c-.78 0-1.61-.07-2.46-.07h-33.42l-29.86 55.28h22.36l10.64-19.66h5.09l-3.51 19.66h22.49l1.33-20.72q8.48-2.11 12-8.62l6.54-12q3.38-6.18-.49-10.07Zm-21.64 9.5-4.95 9.11a8 8 0 0 1-.45.82 5 5 0 0 1-.51.68l-.28.3a3 3 0 0 1-.26.24 3.5 3.5 0 0 1-.61.42 7.4 7.4 0 0 1-3.45.7h-5.93l8.48-15.61h5.32a3.88 3.88 0 0 1 2.56.68 2 2 0 0 1 .21.21c.49.59.45 1.41-.12 2.44Z" style="fill:url(#linear-gradient-9)"/><path d="m612.84 172.83-46.68 55.28h18.73l7-9.11h14.39l-2.77 9.11h22.36L639 172.83Zm-3.63 36.67h-9.93l16.45-21.3Z" style="fill:url(#linear-gradient-10)"/><path d="M706.34 180.07a7 7 0 0 0-.26-1c-.08-.21-.19-.42-.28-.63v-.12a3 3 0 0 0-.17-.38 4 4 0 0 0-.23-.35c-.14-.23-.3-.45-.47-.68a5.5 5.5 0 0 0-.58-.63 4 4 0 0 0-.38-.35 3.6 3.6 0 0 0-.56-.49.3.3 0 0 0-.16-.1 6.6 6.6 0 0 0-.91-.61c-.35-.21-.72-.42-1.12-.61a23.6 23.6 0 0 0-10.1-1.83h-15q-17.54 0-23.1 10.33l-17.34 32.08q-3.37 6.18.49 10.08a7 7 0 0 0 .7.63c.3.24.61.47 1 .7s.42.26.65.37a6 6 0 0 0 .66.35 8 8 0 0 0 .72.33 17 17 0 0 0 2.39.77 29.7 29.7 0 0 0 7.22.77h15c1.45 0 2.84 0 4.17-.17 1.12-.09 2.2-.23 3.24-.4h.14a3 3 0 0 0 .42-.07c.47-.07.92-.17 1.38-.28a3 3 0 0 0 .38-.09c.58-.14 1.12-.28 1.66-.44s1.06-.33 1.57-.52a22 22 0 0 0 2.88-1.29 17.4 17.4 0 0 0 4.62-3.54 2.4 2.4 0 0 0 .21-.23c.26-.28.51-.56.73-.85a18 18 0 0 0 1.57-2.42l7.12-13.33h-22l-5.6 10.29a6.85 6.85 0 0 1-2.25 2.56l-.4.21a4.3 4.3 0 0 1-1 .31l-.45.07a6 6 0 0 1-1 .09 5 5 0 0 1-.56 0h-.85a3.36 3.36 0 0 1-2.72-.94 2 2 0 0 1 0-2.39l16.2-29.76a11 11 0 0 1 .63-1 2.4 2.4 0 0 1 .33-.42c.1-.14.23-.26.33-.38a6 6 0 0 1 .58-.47 2 2 0 0 1 .3-.19 7.15 7.15 0 0 1 3.51-.7h.85a3.21 3.21 0 0 1 2.67.94 2.05 2.05 0 0 1-.12 2.39l-5.56 10.24h22.12l5.32-9.66a14.6 14.6 0 0 0 1-2 10 10 0 0 0 .44-1.57 7 7 0 0 0 .14-.79v-.72a7 7 0 0 0-.09-1.1Z" style="fill:url(#linear-gradient-11)"/><path d="m719.74 172.83-29.86 55.28h22.36l29.88-55.28Z" style="fill:url(#linear-gradient-12)"/><path d="m788.06 172.83-16.57 30.65 3.38-30.65h-24l-29.88 55.28h16.2l16.57-30.65-3.38 30.65h24l29.88-55.28z" style="fill:url(#linear-gradient-13)"/><path d="M861 179.77a4 4 0 0 0-.12-.49l-.16-.49c-.05-.14-.12-.3-.19-.45a3 3 0 0 0-.23-.45c-.12-.23-.28-.45-.42-.68s-.21-.26-.31-.4-.35-.4-.54-.61a12 12 0 0 0-1-.92c-.26-.19-.54-.38-.84-.56a.08.08 0 0 0-.07 0l-.1-.07c-.28-.17-.58-.33-.89-.49s-.59-.28-.91-.4l-.8-.3-.17-.05c-.66-.21-1.38-.4-2.13-.56-.44-.09-.87-.16-1.33-.23h-.17l-1.43-.16c-1-.09-2.13-.14-3.3-.14h-15.63q-17.53 0-23.1 10.33l-17.29 32.05a10 10 0 0 0-1.5 6.38c0 .12 0 .24.09.38a4 4 0 0 0 .12.47 7 7 0 0 0 .51 1.2 8 8 0 0 0 .56.84 7.4 7.4 0 0 0 .7.8 7 7 0 0 0 .7.63c.3.24.61.47 1 .7a15 15 0 0 0 2 1.05 17 17 0 0 0 2.39.77 29.7 29.7 0 0 0 7.22.77h18.63c.35 0 .72-.05 1.05-.09s.66-.05 1-.09a.4.4 0 0 0 .21 0l1-.1.78-.1c.4-.05.8-.12 1.2-.19.65-.12 1.27-.24 1.87-.38.61-.14 1.17-.31 1.73-.49s1.08-.35 1.59-.56 1-.42 1.47-.65c3.72-1.83 6.73-5 9.07-9.42l9.74-18.26h-27.06l-3.38 6.33-1.56 2.93h6.3l-4.3 7.89a5.7 5.7 0 0 1-2.2 2.49c-.21.1-.45.19-.7.28a9 9 0 0 1-1.78.33h-3.75a3.36 3.36 0 0 1-2.72-.94 2 2 0 0 1 0-2.39L828 185.52c.1-.19.21-.37.31-.54s.21-.31.33-.47a2.4 2.4 0 0 1 .33-.42c.12-.14.23-.26.35-.38s.4-.33.61-.47a3 3 0 0 1 .31-.19 7.1 7.1 0 0 1 3.44-.7H835a3.34 3.34 0 0 1 2.7.94c.54.61.51 1.41-.05 2.39l-4.36 8.06h22.38l4-7.48a13.8 13.8 0 0 0 1.12-2.69 10 10 0 0 0 .3-1.31 7.6 7.6 0 0 0-.05-2.48Z" style="fill:url(#linear-gradient-14)"/></g></g></g></svg>