<svg xmlns="http://www.w3.org/2000/svg" xmlns:xlink="http://www.w3.org/1999/xlink" viewBox="0 0 962.29 331.26"><defs><linearGradient id="linear-gradient" x1="430.19" x2="565.08" y1="170.73" y2="305.62" gradientTransform="matrix(1 0 0 -1 0 333.71)" gradientUnits="userSpaceOnUse"><stop offset="0" stop-color="#231f20"/><stop offset=".5" stop-color="#404244"/><stop offset="1" stop-color="#231f20"/></linearGradient><linearGradient xlink:href="#linear-gradient" id="linear-gradient-2" x1="628.52" x2="774.75" y1="182.78" y2="329.01"/><linearGradient xlink:href="#linear-gradient" id="linear-gradient-3" x1="50.66" x2="199.07" y1="166.99" y2="315.39"/><linearGradient xlink:href="#linear-gradient" id="linear-gradient-4" x1="166.31" x2="291.09" y1="169.23" y2="294"/><linearGradient xlink:href="#linear-gradient" id="linear-gradient-5" x1="283.07" x2="431.4" y1="176.86" y2="325.18"/><linearGradient xlink:href="#linear-gradient" id="linear-gradient-6" x1="758.1" x2="906.49" y1="166.98" y2="315.38"/><linearGradient xlink:href="#linear-gradient" id="linear-gradient-7" x1="535.43" x2="660.2" y1="180.25" y2="305.02"/><linearGradient xlink:href="#linear-gradient" id="linear-gradient-8" x1="77.62" x2="221.3" y1="13.74" y2="157.41"/><linearGradient xlink:href="#linear-gradient" id="linear-gradient-9" x1="220.96" x2="364.94" y1="2.8" y2="146.78"/><linearGradient xlink:href="#linear-gradient" id="linear-gradient-10" x1="360.59" x2="491.73" y1="28.09" y2="159.23"/><linearGradient xlink:href="#linear-gradient" id="linear-gradient-11" x1="468.64" x2="589.51" y1="33.25" y2="154.12"/><linearGradient xlink:href="#linear-gradient" id="linear-gradient-12" x1="555.98" x2="711.78" y1="15.79" y2="171.59"/><linearGradient xlink:href="#linear-gradient" id="linear-gradient-13" x1="707.4" x2="839.21" y1="27.9" y2="159.72"/><style>.cls-1{fill:#eb2127}.cls-2{fill:#231f20}.cls-3{fill:#fff}</style></defs><g id="Layer_2" data-name="Layer 2"><g id="Layer_2-2" data-name="Layer 2"><g id="Layer_1-2" data-name="Layer 1-2"><path d="m529.48 85.75-23.36-7.39c-3.27-1.29-5.26-2.73-6-4.27s-.46-3.69.82-6.42l4.62-9.33c1.45-2.85 3.11-4.79 5-5.83a17 17 0 0 1 8-1.56h2.71q4.62 0 6.39 2c1.17 1.36 1.12 3.27-.13 5.73l-8.15 15.75L577.9 55q3.1-10.6-3.9-17.94-8.7-9.23-29.6-9.23h-34.47q-39.12 0-51.61 24.69l-8.15 15.94q-12 23.72 17.39 33.63l23.63 7.39c3.26 1.29 5.31 2.69 6.12 4.18s.5 3.66-1 6.51l-6 12c-1.45 2.86-3.08 4.79-4.9 5.84s-4.44 1.55-7.88 1.55h-3.26q-4.33 0-6.11-2.14c-1.18-1.42-1.13-3.3.13-5.64l8.7-17.3-60.08 20q-3.45 11.12 3.57 18.75 8.7 9.44 29.88 9.43h35q39.66 0 51.9-24.69l9.23-18.67q12-23.91-17.11-33.63ZM756.85 29.18l-59.5 84.75 26.63-84.75h-52.43l-32.6 132.18h57.87L799.23 29.18zM197.43 54.25l12.49-25.07H95.7l7.69 17.73L45.3 161.36h103.23l12.49-25.26h-52.7l15.21-29.75h43.48l12.49-24.88h-43.47l13.85-27.22zM280.56 29.18H213.6l7.69 17.74-58.1 114.44h94.27l13.32-26.04h-44.01zM402.07 29.18 350.18 131a16.1 16.1 0 0 1-5.18 6q-2.72 1.67-7.88 1.66h-3q-4.35 0-6.11-2.24c-1.18-1.49-1.13-3.4.13-5.74l51.65-101.5h-67l7.66 17.7-42 82.41q-7.59 14.58 1.09 24t29.88 9.43H345q36.09 0 49.6-20.74a42 42 0 0 0 2.28-4L452 29.17h-50ZM904.86 54.25l12.49-25.07H803.14l7.69 17.74-58.1 114.44h103.24l12.49-25.26h-52.7l15.21-29.75h43.46l12.5-24.88h-43.47l13.86-27.22zM611.62 29.18h-17.96l7.63 18-57.96 114.18h50.25l67.11-132.18zM127 177.88h75q20.92 0 29.63 8.77t1.09 22.67l-14.68 26.87q-7.89 14.63-26.91 19.37l-3 46.61h-50.54l7.88-44.23h-11.42l-23.92 44.23h-50.3zm32.35 57.76a16.4 16.4 0 0 0 7.75-1.55 11.73 11.73 0 0 0 4.76-5.58L183 208q1.9-3.47.27-5.48t-6.25-2h-12l-19 35.09h13.31ZM297.17 177.88h58.72l-29.36 124.29h-50.3l6.25-20.47h-32.35l-15.77 20.47h-42.14l104.94-124.29ZM289 260.31l14.68-47.89-37 47.89zM387.43 199.81q12.51-23.2 51.93-23.21h33.71q14.13 0 22.7 4.11t11 11.15q2.45 7-2.72 16.18l-12 21.75h-49.7l12.5-23q1.9-3.28.27-5.39t-6-2.1h-1.9q-5.16 0-7.88 1.55a13.73 13.73 0 0 0-4.89 5.57L398 273.29q-1.64 3.29.13 5.39t6.12 2.1h1.9c3.44 0 6-.52 7.75-1.55a15.7 15.7 0 0 0 5-5.76l12.51-23.21H481l-16 30q-12.51 23.22-51.65 23.21h-33.79q-21.21 0-29.91-8.77t-1.09-22.7l38.88-72.2ZM537.5 177.88h50.3l-67.15 124.29h-50.3ZM607.37 177.88h54.1l-7.61 68.91 37.25-68.91h36.43l-67.15 124.29h-54.1l7.61-68.91-37.24 68.91h-36.43l67.15-124.29Z" class="cls-1"/><path d="m911.75 65.38 23.58-47.32H751.07l-21.59 30.75 9.66-30.75H576.86l4.5 10.62c-8-7.94-20.41-12-37-12H509.9c-18.75 0-33.78 3.93-45 11.68l5.23-10.32H78.75l12.36 28.51-63.93 126h90.07L41.17 313.31h75.58L128 292.5l-3.71 20.81h115.54l15.77-20.47h11.85l-6.25 20.47h74.13l3.39-14.31a29 29 0 0 0 3 3.57c8 8.12 20.41 12.07 37.81 12.07h33.71c17.73 0 32.12-3.35 43.13-10l-4.69 8.68h131.6l13.3-24.6-2.72 24.6H667l13.76-25.47a26.63 26.63 0 0 0 7.59 14.69c8 8.12 20.42 12.07 37.81 12.07h33.71c16.76 0 29.76-2.41 39.75-7.38 10.42-5.18 18.91-13.9 25.26-25.93l24.49-45.3h.39l12.11-22.69c9.74-18.19 2.16-30.12-3.23-35.62a34.4 34.4 0 0 0-6.56-5.18h10.82L886.39 125H834l3.83-7.5h43.52L905 70.38h-43.37l2.53-5h47.6ZM796.06 51.44l-58.54 115.31h-30.8ZM579.11 66.31l-18.24 35.93a28 28 0 0 0-1.76-6.31c-2.93-7.08-8.76-12.82-17.39-17.16l37.39-12.47Zm-141.49 25.3c3.07 7.5 9.42 13.54 18.9 18l-39.41 13.14 18.82-37.15a27.4 27.4 0 0 0 1.69 6ZM297.18 21l11 25.5-39.58 77.65h-23.7ZM156.71 65.38h42.73l-2.52 5h-42.74Zm-26.37 52.09H173l-3.81 7.5h-42.68zm71.41 146.4a50.9 50.9 0 0 0 17.63-11.11l-18.31 21.69zm23.2-17.7a48 48 0 0 0 2.87-4.65l14.68-26.86c10.09-18.42 2.48-30.36-2.95-35.84a34.6 34.6 0 0 0-8.69-6.33h33.42l6.38-12.49c.25.29.49.57.73.83a37.75 37.75 0 0 0 17 10.21L225 246.18Zm152.68-51.63-25.38 47.14 16.63-70.37c15.67-3.71 27.41-11.48 35.06-23.22.39-.6.77-1.23 1.14-1.86a28.45 28.45 0 0 0 7.28 14.61 33.7 33.7 0 0 0 7.72 6.17c-20.16 3.42-34.42 12.62-42.45 27.53M518 190.61c-.2-.81-.42-1.61-.7-2.4-2.28-6.56-6.81-11.86-13.47-15.79q15.59-2.59 26.46-9.9l-5.06 10h2.56zm85.34-23.86 44.43-87.51-21.59 87.51Zm69.94 5.73h8.12l-10.2 18.87 2.09-18.87Zm86.63 96.06c-.1.18-.19.34-.28.48l1-1.78-.7 1.3Zm-18.95-92.07 2.15-4h5.14a55 55 0 0 0-7.29 4" class="cls-1"/><path d="M560.68 6.93a92 92 0 0 0-16.26-1.36h-34.51A118.3 118.3 0 0 0 488 7.49l.29-.56H61.8l17 39.24L9.06 183.61H98.6L22.52 324.42h222.79l1.42-1.85-.56 1.85h98l1.33-5.62c9 4.63 20.3 6.9 34.08 6.9h33.71a125 125 0 0 0 19.9-1.5l-.12.22h240.57l7.36-13.57c10.23 10 25 14.85 45.19 14.85h33.71c18.51 0 33.14-2.79 44.7-8.54 12.54-6.23 22.67-16.54 30.12-30.65l21.28-39.4h.43l15.24-28.57c9.68-18.08 6.05-32 1-40.69l31.65-64h-8.72l18.71-37.35h4.31l34.66-69.57z" class="cls-1"/><path d="M561.17 1.36A98.5 98.5 0 0 0 544.42 0h-34.51a128.6 128.6 0 0 0-19.05 1.36H53.32L72.67 46 0 189.17h89.27L13.19 330h335.34l.81-3.42c8.53 3.15 18.48 4.7 30.2 4.7h33.71a134 134 0 0 0 18.89-1.28H677l5.66-10.47c10.83 7.9 25.16 11.75 43.55 11.75h33.71c19.39 0 34.82-3 47.17-9.12 13.6-6.76 24.56-17.87 32.54-33l19.71-36.49 17.26-31.5c10-18.71 7.19-33.57 2.33-43.42l34.35-69.46h-8.65l13.17-26.22h4.32l40.21-80.7H561.17Z" class="cls-1"/><path d="M734.05 199.81q12.51-23.2 51.93-23.21h35.07q20.94 0 29.63 8.86T852 208l-9 16.82h-50.3l9.79-18.1q1.91-3.28.13-5.39t-6.12-2.1h-3a16.4 16.4 0 0 0-7.75 1.55 13.33 13.33 0 0 0-5 5.57l-36.16 66.9q-1.9 3.29-.14 5.39t6.12 2.1h6a17.8 17.8 0 0 0 8-1.46 12.57 12.57 0 0 0 5-5.48l9.52-17.73H765l11.15-20.84h60.9l-22 40.76q-7.89 15-20.39 21.2t-34.8 6.21h-33.7q-21.21 0-29.91-8.77T695.16 272L734 199.8Z" class="cls-1"/><path d="m529.48 85.75-23.36-7.39c-3.27-1.29-5.26-2.73-6-4.27s-.46-3.69.82-6.42l4.62-9.33c1.45-2.85 3.11-4.79 5-5.83a17 17 0 0 1 8-1.56h2.71q4.62 0 6.39 2c1.17 1.36 1.12 3.27-.13 5.73l-8.15 15.75L577.9 55q3.1-10.6-3.9-17.94-8.7-9.23-29.6-9.23h-34.47q-39.12 0-51.61 24.69l-8.15 15.94q-12 23.72 17.39 33.63l23.63 7.39c3.26 1.29 5.31 2.69 6.12 4.18s.5 3.66-1 6.51l-6 12c-1.45 2.86-3.08 4.79-4.9 5.84s-4.44 1.55-7.88 1.55h-3.26q-4.33 0-6.11-2.14c-1.18-1.42-1.13-3.3.13-5.64l8.7-17.3-60.08 20q-3.45 11.12 3.57 18.75 8.7 9.44 29.88 9.43h35q39.66 0 51.9-24.69l9.23-18.67q12-23.91-17.11-33.63ZM756.85 29.18l-59.5 84.75 26.63-84.75h-52.43l-32.6 132.18h57.87L799.23 29.18zM197.43 54.25l12.49-25.07H95.7l7.69 17.73L45.3 161.36h103.23l12.49-25.26h-52.7l15.21-29.75h43.48l12.49-24.88h-43.47l13.85-27.22zM280.56 29.18H213.6l7.69 17.74-58.1 114.44h94.27l13.32-26.04h-44.01zM402.07 29.18 350.18 131a16.1 16.1 0 0 1-5.18 6q-2.72 1.67-7.88 1.66h-3q-4.35 0-6.11-2.24c-1.18-1.49-1.13-3.4.13-5.74l51.65-101.5h-67l7.66 17.7-42 82.41q-7.59 14.58 1.09 24t29.88 9.43H345q36.09 0 49.6-20.74a42 42 0 0 0 2.28-4L452 29.17h-50ZM904.86 54.25l12.49-25.07H803.14l7.69 17.74-58.1 114.44h103.24l12.49-25.26h-52.7l15.21-29.75h43.46l12.5-24.88h-43.47l13.86-27.22zM611.62 29.18h-17.96l7.63 18-57.96 114.18h50.25l67.11-132.18zM127 177.88h75q20.92 0 29.63 8.77t1.09 22.67l-14.68 26.87q-7.89 14.63-26.91 19.37l-3 46.61h-50.54l7.88-44.23h-11.42l-23.92 44.23h-50.3zm32.35 57.76a16.4 16.4 0 0 0 7.75-1.55 11.73 11.73 0 0 0 4.76-5.58L183 208q1.9-3.47.27-5.48t-6.25-2h-12l-19 35.09h13.31ZM297.17 177.88h58.72l-29.36 124.29h-50.3l6.25-20.47h-32.35l-15.77 20.47h-42.14l104.94-124.29ZM289 260.31l14.68-47.89-37 47.89zM387.43 199.81q12.51-23.2 51.93-23.21h33.71q14.13 0 22.7 4.11t11 11.15q2.45 7-2.72 16.18l-12 21.75h-49.7l12.5-23q1.9-3.28.27-5.39t-6-2.1h-1.9q-5.16 0-7.88 1.55a13.73 13.73 0 0 0-4.89 5.57L398 273.29q-1.64 3.29.13 5.39t6.12 2.1h1.9c3.44 0 6-.52 7.75-1.55a15.7 15.7 0 0 0 5-5.76l12.51-23.21H481l-16 30q-12.51 23.22-51.65 23.21h-33.79q-21.21 0-29.91-8.77t-1.09-22.7l38.88-72.2ZM537.5 177.88h50.3l-67.15 124.29h-50.3ZM607.37 177.88h54.1l-7.61 68.91 37.25-68.91h36.43l-67.15 124.29h-54.1l7.61-68.91-37.24 68.91h-36.43l67.15-124.29Z" class="cls-2"/><path d="m911.75 65.38 23.58-47.32H751.07l-21.59 30.75 9.66-30.75H576.86l4.5 10.62c-8-7.94-20.41-12-37-12H509.9c-18.75 0-33.78 3.93-45 11.68l5.23-10.32H78.75l12.36 28.51-63.93 126h90.07L41.17 313.31h75.58L128 292.5l-3.71 20.81h115.54l15.77-20.47h11.85l-6.25 20.47h74.13l3.39-14.31a29 29 0 0 0 3 3.57c8 8.12 20.41 12.07 37.81 12.07h33.71c17.73 0 32.12-3.35 43.13-10l-4.69 8.68h131.6l13.3-24.6-2.72 24.6H667l13.76-25.47a26.63 26.63 0 0 0 7.59 14.69c8 8.12 20.42 12.07 37.81 12.07h33.71c16.76 0 29.76-2.41 39.75-7.38 10.42-5.18 18.91-13.9 25.26-25.93l24.49-45.3 12.5-22.69c9.74-18.19 2.16-30.12-3.23-35.62a34.4 34.4 0 0 0-6.56-5.18h10.82L886.39 125H834l3.83-7.5h43.52L905 70.38h-43.37l2.53-5h47.6ZM796.06 51.44l-58.54 115.31h-30.8ZM579.11 66.31l-18.24 35.93a28 28 0 0 0-1.76-6.31c-2.93-7.08-8.76-12.82-17.39-17.16l37.39-12.47Zm-141.49 25.3c3.07 7.5 9.42 13.54 18.9 18l-39.41 13.14 18.82-37.15a27.4 27.4 0 0 0 1.69 6ZM297.18 21l11 25.5-39.58 77.65h-23.7ZM156.71 65.38h42.73l-2.52 5h-42.74Zm-26.37 52.09H173l-3.81 7.5h-42.68zm71.41 146.4a50.9 50.9 0 0 0 17.63-11.11l-18.31 21.69zm23.2-17.7a48 48 0 0 0 2.87-4.65l14.68-26.86c10.09-18.42 2.48-30.36-2.95-35.84a34.6 34.6 0 0 0-8.69-6.33h33.42l6.38-12.49c.25.29.49.57.73.83a37.75 37.75 0 0 0 17 10.21L225 246.18Zm152.68-51.63-25.38 47.14 16.63-70.37c15.67-3.71 27.41-11.48 35.06-23.22.39-.6.77-1.23 1.14-1.86a28.45 28.45 0 0 0 7.28 14.61 33.7 33.7 0 0 0 7.72 6.17c-20.16 3.42-34.42 12.62-42.45 27.53M518 190.61c-.2-.81-.42-1.61-.7-2.4-2.28-6.56-6.81-11.86-13.47-15.79q15.59-2.59 26.46-9.9l-5.06 10h2.56zm85.34-23.86 44.43-87.51-21.59 87.51Zm69.94 5.73h8.12l-10.2 18.87 2.09-18.87Zm86.63 96.06c-.1.18-.19.34-.28.48l1-1.78-.7 1.3Zm-18.95-92.07 2.15-4h5.14a55 55 0 0 0-7.29 4" class="cls-2"/><path d="M560.68 6.93a92 92 0 0 0-16.26-1.36h-34.51A118.3 118.3 0 0 0 488 7.49l.29-.56H61.8l17 39.24L9.06 183.61H98.6L22.52 324.42h222.79l1.42-1.85-.56 1.85h98l1.33-5.62c9 4.63 20.3 6.9 34.08 6.9h33.71a125 125 0 0 0 19.9-1.5l-.12.22h240.57l7.36-13.57c10.23 10 25 14.85 45.19 14.85h33.71c18.51 0 33.14-2.79 44.7-8.54 12.54-6.23 22.67-16.54 30.12-30.65l21.28-39.4 15.67-28.57c9.68-18.08 6.05-32 1-40.69l31.65-64h-8.72l18.71-37.35h4.31l34.66-69.57z" class="cls-2"/><path d="M734.05 199.81q12.51-23.2 51.93-23.21h35.07q20.94 0 29.63 8.86T852 208l-9 16.82h-50.3l9.79-18.1q1.91-3.28.13-5.39t-6.12-2.1h-3a16.4 16.4 0 0 0-7.75 1.55 13.33 13.33 0 0 0-5 5.57l-36.16 66.9q-1.9 3.29-.14 5.39t6.12 2.1h6a17.8 17.8 0 0 0 8-1.46 12.57 12.57 0 0 0 5-5.48l9.52-17.73H765l11.15-20.84h60.9l-22 40.76q-7.89 15-20.39 21.2t-34.8 6.21h-33.7q-21.21 0-29.91-8.77T695.16 272L734 199.8Z" class="cls-2"/><path d="m529.48 85.75-23.36-7.39c-3.27-1.29-5.26-2.73-6-4.27s-.46-3.69.82-6.42l4.62-9.33c1.45-2.85 3.11-4.79 5-5.83a17 17 0 0 1 8-1.56h2.71q4.62 0 6.39 2c1.17 1.36 1.12 3.27-.13 5.73l-8.15 15.75L577.9 55q3.1-10.6-3.9-17.94-8.7-9.23-29.6-9.23h-34.47q-39.12 0-51.61 24.69l-8.15 15.94q-12 23.72 17.39 33.63l23.63 7.39c3.26 1.29 5.31 2.69 6.12 4.18s.5 3.66-1 6.51l-6 12c-1.45 2.86-3.08 4.79-4.9 5.84s-4.44 1.55-7.88 1.55h-3.26q-4.33 0-6.11-2.14c-1.18-1.42-1.13-3.3.13-5.64l8.7-17.3-60.08 20q-3.45 11.12 3.57 18.75 8.7 9.44 29.88 9.43h35q39.66 0 51.9-24.69l9.23-18.67q12-23.91-17.11-33.63ZM756.85 29.18l-59.5 84.75 26.63-84.75h-52.43l-32.6 132.18h57.87L799.23 29.18zM197.43 54.25l12.49-25.07H95.7l7.69 17.73L45.3 161.36h103.23l12.49-25.26h-52.7l15.21-29.75h43.48l12.49-24.88h-43.47l13.85-27.22zM280.56 29.18H213.6l7.69 17.74-58.1 114.44h94.27l13.32-26.04h-44.01zM402.07 29.18 350.18 131a16.1 16.1 0 0 1-5.18 6q-2.72 1.67-7.88 1.66h-3q-4.35 0-6.11-2.24c-1.18-1.49-1.13-3.4.13-5.74l51.65-101.5h-67l7.66 17.7-42 82.41q-7.59 14.58 1.09 24t29.88 9.43H345q36.09 0 49.6-20.74a42 42 0 0 0 2.28-4L452 29.17h-50ZM904.86 54.25l12.49-25.07H803.14l7.69 17.74-58.1 114.44h103.24l12.49-25.26h-52.7l15.21-29.75h43.46l12.5-24.88h-43.47l13.86-27.22zM611.62 29.18h-17.96l7.63 18-57.96 114.18h50.25l67.11-132.18zM127 177.88h75q20.92 0 29.63 8.77t1.09 22.67l-14.68 26.87q-7.89 14.63-26.91 19.37l-3 46.61h-50.54l7.88-44.23h-11.42l-23.92 44.23h-50.3zm32.35 57.76a16.4 16.4 0 0 0 7.75-1.55 11.73 11.73 0 0 0 4.76-5.58L183 208q1.9-3.47.27-5.48t-6.25-2h-12l-19 35.09h13.31ZM297.17 177.88h58.72l-29.36 124.29h-50.3l6.25-20.47h-32.35l-15.77 20.47h-42.14l104.94-124.29ZM289 260.31l14.68-47.89-37 47.89zM387.43 199.81q12.51-23.2 51.93-23.21h33.71q14.13 0 22.7 4.11t11 11.15q2.45 7-2.72 16.18l-12 21.75h-49.7l12.5-23q1.9-3.28.27-5.39t-6-2.1h-1.9q-5.16 0-7.88 1.55a13.73 13.73 0 0 0-4.89 5.57L398 273.29q-1.64 3.29.13 5.39t6.12 2.1h1.9c3.44 0 6-.52 7.75-1.55a15.7 15.7 0 0 0 5-5.76l12.51-23.21H481l-16 30q-12.51 23.22-51.65 23.21h-33.79q-21.21 0-29.91-8.77t-1.09-22.7l38.88-72.2ZM537.5 177.88h50.3l-67.15 124.29h-50.3ZM607.37 177.88h54.1l-7.61 68.91 37.25-68.91h36.43l-67.15 124.29h-54.1l7.61-68.91-37.24 68.91h-36.43l67.15-124.29Z" class="cls-3"/><path d="m911.75 65.38 23.58-47.32H751.07l-21.59 30.75 9.66-30.75H576.86l4.5 10.62c-8-7.94-20.41-12-37-12H509.9c-18.75 0-33.78 3.93-45 11.68l5.23-10.32H78.75l12.36 28.51-63.93 126h90.07L41.17 313.31h75.58L128 292.5l-3.71 20.81h115.54l15.77-20.47h11.85l-6.25 20.47h74.13l3.39-14.31a29 29 0 0 0 3 3.57c8 8.12 20.41 12.07 37.81 12.07h33.71c17.73 0 32.12-3.35 43.13-10l-4.69 8.68h131.6l13.3-24.6-2.72 24.6H667l13.76-25.47a26.63 26.63 0 0 0 7.59 14.69c8 8.12 20.42 12.07 37.81 12.07h33.71c16.76 0 29.76-2.41 39.75-7.38 10.42-5.18 18.91-13.9 25.26-25.93l24.49-45.3 12.5-22.69c9.74-18.19 2.16-30.12-3.23-35.62a34.4 34.4 0 0 0-6.56-5.18h10.82L886.39 125H834l3.83-7.5h43.52L905 70.38h-43.37l2.53-5h47.6ZM796.06 51.44l-58.54 115.31h-30.8ZM579.11 66.31l-18.24 35.93a28 28 0 0 0-1.76-6.31c-2.93-7.08-8.76-12.82-17.39-17.16l37.39-12.47Zm-141.49 25.3c3.07 7.5 9.42 13.54 18.9 18l-39.41 13.14 18.82-37.15a27.4 27.4 0 0 0 1.69 6ZM297.18 21l11 25.5-39.58 77.65h-23.7ZM156.71 65.38h42.73l-2.52 5h-42.74Zm-26.37 52.09H173l-3.81 7.5h-42.68zM225 246.17a48 48 0 0 0 2.87-4.65l14.68-26.86c10.09-18.42 2.48-30.36-2.95-35.84a34.6 34.6 0 0 0-8.69-6.33h33.42l6.33-12.49c.25.29.49.57.73.83a37.75 37.75 0 0 0 17 10.21L225 246.18Zm152.68-51.63-25.38 47.14 16.63-70.37c15.67-3.71 27.41-11.48 35.06-23.22.39-.6.77-1.23 1.14-1.86a28.45 28.45 0 0 0 7.28 14.61 33.7 33.7 0 0 0 7.72 6.17c-20.16 3.42-34.42 12.62-42.45 27.53M518 190.61c-.2-.81-.42-1.61-.7-2.4-2.28-6.56-6.81-11.86-13.47-15.79q15.59-2.59 26.46-9.9l-5.06 10h2.56zm85.34-23.86 44.43-87.51-21.59 87.51Z" class="cls-3"/><path d="M734.05 199.81q12.51-23.2 51.93-23.21h35.07q20.94 0 29.63 8.86T852 208l-9 16.82h-50.3l9.79-18.1q1.91-3.28.13-5.39t-6.12-2.1h-3a16.4 16.4 0 0 0-7.75 1.55 13.33 13.33 0 0 0-5 5.57l-36.16 66.9q-1.9 3.29-.14 5.39t6.12 2.1h6a17.8 17.8 0 0 0 8-1.46 12.57 12.57 0 0 0 5-5.48l9.52-17.73H765l11.15-20.84h60.9l-22 40.76q-7.89 15-20.39 21.2t-34.8 6.21h-33.7q-21.21 0-29.91-8.77T695.16 272L734 199.8Z" class="cls-3"/><path d="m529.48 85.75-23.36-7.39c-3.27-1.29-5.26-2.73-6-4.27s-.46-3.69.82-6.42l4.62-9.33c1.45-2.85 3.11-4.79 5-5.83a17 17 0 0 1 8-1.56h2.71q4.62 0 6.39 2c1.17 1.36 1.12 3.27-.13 5.73l-8.15 15.75L577.9 55q3.1-10.6-3.9-17.94-8.7-9.23-29.6-9.23h-34.47q-39.12 0-51.61 24.69l-8.15 15.94q-12 23.72 17.39 33.63l23.63 7.39c3.26 1.29 5.31 2.69 6.12 4.18s.5 3.66-1 6.51l-6 12c-1.45 2.86-3.08 4.79-4.9 5.84s-4.44 1.55-7.88 1.55h-3.26q-4.33 0-6.11-2.14c-1.18-1.42-1.13-3.3.13-5.64l8.7-17.3-60.08 20q-3.45 11.12 3.57 18.75 8.7 9.44 29.88 9.43h35q39.66 0 51.9-24.69l9.23-18.67q12-23.91-17.11-33.63Z" style="fill:url(#linear-gradient)"/><path d="m756.85 29.18-59.5 84.75 26.63-84.75h-52.43l-32.6 132.18h57.87L799.23 29.18z" style="fill:url(#linear-gradient-2)"/><path d="m197.43 54.25 12.49-25.07H95.7l7.69 17.73L45.3 161.36h103.23l12.49-25.26h-52.7l15.21-29.75h43.48l12.49-24.88h-43.47l13.85-27.22z" style="fill:url(#linear-gradient-3)"/><path d="M280.56 29.18H213.6l7.69 17.74-58.1 114.44h94.27l13.32-26.04h-44.01z" style="fill:url(#linear-gradient-4)"/><path d="M402.07 29.18 350.18 131a16.1 16.1 0 0 1-5.18 6q-2.72 1.67-7.88 1.66h-3q-4.35 0-6.11-2.24c-1.18-1.49-1.13-3.4.13-5.74l51.65-101.5h-67l7.66 17.7-42 82.41q-7.59 14.58 1.09 24t29.88 9.43H345q36.09 0 49.6-20.74a42 42 0 0 0 2.28-4L452 29.17h-50Z" style="fill:url(#linear-gradient-5)"/><path d="m904.86 54.25 12.49-25.07H803.14l7.69 17.74-58.1 114.44h103.24l12.49-25.26h-52.7l15.21-29.75h43.46l12.5-24.88h-43.47l13.86-27.22z" style="fill:url(#linear-gradient-6)"/><path d="M611.62 29.18h-17.96l7.63 18-57.96 114.18h50.25l67.11-132.18z" style="fill:url(#linear-gradient-7)"/><path d="M127 177.88h75q20.92 0 29.63 8.77t1.09 22.67l-14.68 26.87q-7.89 14.63-26.91 19.37l-3 46.61h-50.54l7.88-44.23h-11.42l-23.92 44.23h-50.3zm32.35 57.76a16.4 16.4 0 0 0 7.75-1.55 11.73 11.73 0 0 0 4.76-5.58L183 208q1.9-3.47.27-5.48t-6.25-2h-12l-19 35.09h13.31Z" style="fill:url(#linear-gradient-8)"/><path d="M297.17 177.88h58.72l-29.36 124.29h-50.3l6.25-20.47h-32.35l-15.77 20.47h-42.14l104.94-124.29ZM289 260.31l14.68-47.89-37 47.89z" style="fill:url(#linear-gradient-9)"/><path d="M387.43 199.81q12.51-23.2 51.93-23.21h33.71q14.13 0 22.7 4.11t11 11.15q2.45 7-2.72 16.18l-12 21.75h-49.7l12.5-23q1.9-3.28.27-5.39t-6-2.1h-1.9q-5.16 0-7.88 1.55a13.73 13.73 0 0 0-4.89 5.57L398 273.29q-1.64 3.29.13 5.39t6.12 2.1h1.9c3.44 0 6-.52 7.75-1.55a15.7 15.7 0 0 0 5-5.76l12.51-23.21H481l-16 30q-12.51 23.22-51.65 23.21h-33.79q-21.21 0-29.91-8.77t-1.09-22.7l38.88-72.2Z" style="fill:url(#linear-gradient-10)"/><path d="M537.5 177.88h50.3l-67.15 124.29h-50.3Z" style="fill:url(#linear-gradient-11)"/><path d="M607.37 177.88h54.1l-7.61 68.91 37.25-68.91h36.43l-67.15 124.29h-54.1l7.61-68.91-37.24 68.91h-36.43l67.15-124.29Z" style="fill:url(#linear-gradient-12)"/><path d="M734.05 199.81q12.51-23.2 51.93-23.21h35.07q20.94 0 29.63 8.86T852 208l-9 16.82h-50.3l9.79-18.1q1.91-3.28.13-5.39t-6.12-2.1h-3a16.4 16.4 0 0 0-7.75 1.55 13.33 13.33 0 0 0-5 5.57l-36.16 66.9q-1.9 3.29-.14 5.39t6.12 2.1h6a17.8 17.8 0 0 0 8-1.46 12.57 12.57 0 0 0 5-5.48l9.52-17.73H765l11.15-20.84h60.9l-22 40.76q-7.89 15-20.39 21.2t-34.8 6.21h-33.7q-21.21 0-29.91-8.77T695.16 272L734 199.8Z" style="fill:url(#linear-gradient-13)"/></g></g></g></svg>