<svg xmlns="http://www.w3.org/2000/svg" xmlns:xlink="http://www.w3.org/1999/xlink" viewBox="0 0 962.29 331.26"><defs><style>.cls-1{fill:#eb2127;}.cls-2{fill:#231f20;}.cls-3{fill:#fff;}.cls-4{fill:url(#linear-gradient);}.cls-5{fill:url(#linear-gradient-2);}.cls-6{fill:url(#linear-gradient-3);}.cls-7{fill:url(#linear-gradient-4);}.cls-8{fill:url(#linear-gradient-5);}.cls-9{fill:url(#linear-gradient-6);}.cls-10{fill:url(#linear-gradient-7);}.cls-11{fill:url(#linear-gradient-8);}.cls-12{fill:url(#linear-gradient-9);}.cls-13{fill:url(#linear-gradient-10);}.cls-14{fill:url(#linear-gradient-11);}.cls-15{fill:url(#linear-gradient-12);}.cls-16{fill:url(#linear-gradient-13);}</style><linearGradient id="linear-gradient" x1="430.19" y1="170.73" x2="565.08" y2="305.62" gradientTransform="matrix(1, 0, 0, -1, 0, 333.71)" gradientUnits="userSpaceOnUse"><stop offset="0" stop-color="#231f20"/><stop offset="0.5" stop-color="#404244"/><stop offset="1" stop-color="#231f20"/></linearGradient><linearGradient id="linear-gradient-2" x1="628.52" y1="182.78" x2="774.75" y2="329.01" xlink:href="#linear-gradient"/><linearGradient id="linear-gradient-3" x1="50.66" y1="166.99" x2="199.07" y2="315.39" xlink:href="#linear-gradient"/><linearGradient id="linear-gradient-4" x1="166.31" y1="169.23" x2="291.09" y2="294" xlink:href="#linear-gradient"/><linearGradient id="linear-gradient-5" x1="283.07" y1="176.86" x2="431.4" y2="325.18" xlink:href="#linear-gradient"/><linearGradient id="linear-gradient-6" x1="758.1" y1="166.98" x2="906.49" y2="315.38" xlink:href="#linear-gradient"/><linearGradient id="linear-gradient-7" x1="535.43" y1="180.25" x2="660.2" y2="305.02" xlink:href="#linear-gradient"/><linearGradient id="linear-gradient-8" x1="77.62" y1="13.74" x2="221.3" y2="157.41" xlink:href="#linear-gradient"/><linearGradient id="linear-gradient-9" x1="220.96" y1="2.8" x2="364.94" y2="146.78" xlink:href="#linear-gradient"/><linearGradient id="linear-gradient-10" x1="360.59" y1="28.09" x2="491.73" y2="159.23" xlink:href="#linear-gradient"/><linearGradient id="linear-gradient-11" x1="468.64" y1="33.25" x2="589.51" y2="154.12" xlink:href="#linear-gradient"/><linearGradient id="linear-gradient-12" x1="555.98" y1="15.79" x2="711.78" y2="171.59" xlink:href="#linear-gradient"/><linearGradient id="linear-gradient-13" x1="707.4" y1="27.9" x2="839.21" y2="159.72" xlink:href="#linear-gradient"/></defs><g id="Layer_2" data-name="Layer 2"><g id="Layer_2-2" data-name="Layer 2"><g id="Layer_1-2" data-name="Layer 1-2"><path class="cls-1" d="M529.48,85.75l-23.36-7.39c-3.27-1.29-5.26-2.73-6-4.27s-.46-3.69.82-6.42l4.62-9.33c1.45-2.85,3.11-4.79,5-5.83a17,17,0,0,1,8-1.56h2.71q4.62,0,6.39,2c1.17,1.36,1.12,3.27-.13,5.73l-8.15,15.75L577.9,55Q581,44.4,574,37.06q-8.7-9.23-29.6-9.23H509.93q-39.12,0-51.61,24.69l-8.15,15.94q-12,23.72,17.39,33.63l23.63,7.39c3.26,1.29,5.31,2.69,6.12,4.18s.5,3.66-1,6.51l-6,12c-1.45,2.86-3.08,4.79-4.9,5.84s-4.44,1.55-7.88,1.55h-3.26q-4.33,0-6.11-2.14c-1.18-1.42-1.13-3.3.13-5.64l8.7-17.3-60.08,20q-3.45,11.12,3.57,18.75,8.7,9.44,29.88,9.43h35q39.66,0,51.9-24.69l9.23-18.67q12-23.91-17.11-33.63Z"/><polygon class="cls-1" points="756.85 29.18 697.35 113.93 723.98 29.18 671.55 29.18 638.95 161.36 696.82 161.36 799.23 29.18 756.85 29.18"/><polygon class="cls-1" points="197.43 54.25 209.92 29.18 116.07 29.18 112.39 29.18 95.7 29.18 103.39 46.91 103.39 46.91 45.3 161.36 148.53 161.36 161.02 136.1 108.32 136.1 123.53 106.35 167.01 106.35 179.5 81.47 136.03 81.47 149.88 54.25 197.43 54.25"/><polygon class="cls-1" points="280.56 29.18 230.29 29.18 213.6 29.18 221.29 46.92 163.19 161.36 257.46 161.36 270.78 135.32 226.77 135.32 280.56 29.18"/><path class="cls-1" d="M402.07,29.18,350.18,131A16.08,16.08,0,0,1,345,137q-2.72,1.67-7.88,1.66h-3q-4.35,0-6.11-2.24c-1.18-1.49-1.13-3.4.13-5.74L379.79,29.18h-67l7.66,17.7-42,82.41q-7.59,14.58,1.09,24t29.88,9.43H345q36.09,0,49.6-20.74a42.33,42.33,0,0,0,2.28-4L452,29.17h-50Z"/><polygon class="cls-1" points="904.86 54.25 917.35 29.18 819.83 29.18 803.14 29.18 810.83 46.92 752.73 161.36 855.97 161.36 868.46 136.1 815.76 136.1 830.97 106.35 874.43 106.35 886.93 81.47 843.46 81.47 857.32 54.25 904.86 54.25"/><polygon class="cls-1" points="611.62 29.18 610.42 29.18 610.35 29.18 593.66 29.18 601.29 47.18 543.33 161.36 593.58 161.36 660.69 29.18 611.62 29.18"/><path class="cls-1" d="M127,177.88h75q20.92,0,29.63,8.77t1.09,22.67l-14.68,26.87q-7.89,14.63-26.91,19.37l-3,46.61H137.59l7.88-44.23H134.05l-23.92,44.23H59.83L127,177.88Zm32.35,57.76a16.39,16.39,0,0,0,7.75-1.55,11.73,11.73,0,0,0,4.76-5.58L183,208q1.9-3.47.27-5.48t-6.25-2h-12l-19,35.09h13.31Z"/><path class="cls-1" d="M297.17,177.88h58.72L326.53,302.17h-50.3l6.25-20.47H250.13l-15.77,20.47H192.22L297.16,177.88ZM289,260.31l14.68-47.89-37,47.89H289Z"/><path class="cls-1" d="M387.43,199.81q12.51-23.2,51.93-23.21h33.71q14.13,0,22.7,4.11t11,11.15q2.45,7-2.72,16.18l-12,21.75H442.35l12.5-23q1.9-3.28.27-5.39t-6-2.1h-1.9q-5.16,0-7.88,1.55a13.73,13.73,0,0,0-4.89,5.57L398,273.29q-1.64,3.29.13,5.39t6.12,2.1h1.9c3.44,0,6-.52,7.75-1.55a15.73,15.73,0,0,0,5-5.76l12.51-23.21H481l-16,30q-12.51,23.22-51.65,23.21H379.56q-21.21,0-29.91-8.77T348.56,272l38.88-72.2Z"/><path class="cls-1" d="M537.5,177.88h50.3L520.65,302.17h-50.3Z"/><path class="cls-1" d="M607.37,177.88h54.1l-7.61,68.91,37.25-68.91h36.43L660.39,302.17h-54.1l7.61-68.91-37.24,68.91H540.23l67.15-124.29Z"/><path class="cls-1" d="M911.75,65.38l23.58-47.32H751.07L729.48,48.81l9.66-30.75H576.86l4.5,10.62c-8-7.94-20.41-12-37-12H509.9c-18.75,0-33.78,3.93-45,11.68l5.23-10.32H78.75L91.11,46.55l-63.93,126h90.07L41.17,313.31h75.58L128,292.5l-3.71,20.81H239.83l15.77-20.47h11.85l-6.25,20.47h74.13L338.72,299a29.29,29.29,0,0,0,3,3.57c8,8.12,20.41,12.07,37.81,12.07h33.71c17.73,0,32.12-3.35,43.13-10l-4.69,8.68H583.28l13.3-24.6-2.72,24.6H667l13.76-25.47a26.63,26.63,0,0,0,7.59,14.69c8,8.12,20.42,12.07,37.81,12.07h33.71c16.76,0,29.76-2.41,39.75-7.38,10.42-5.18,18.91-13.9,25.26-25.93L849.37,236h.39l12.11-22.69c9.74-18.19,2.16-30.12-3.23-35.62a34.35,34.35,0,0,0-6.56-5.18H862.9L886.39,125H834l3.83-7.5h43.52L905,70.38H861.63l2.53-5h47.6ZM796.06,51.44,737.52,166.75h-30.8ZM579.11,66.31l-18.24,35.93a27.93,27.93,0,0,0-1.76-6.31c-2.93-7.08-8.76-12.82-17.39-17.16L579.11,66.3ZM437.62,91.61c3.07,7.5,9.42,13.54,18.9,18l-39.41,13.14,18.82-37.15a27.41,27.41,0,0,0,1.69,6ZM297.18,21l11,25.5L268.6,124.15l0,0h-23.7ZM156.71,65.38h42.73l-2.52,5H154.18Zm-26.37,52.09H173l-3.81,7.5H126.51l3.83-7.5Zm71.41,146.4a50.94,50.94,0,0,0,17.63-11.11l-18.31,21.69.68-10.58Zm23.2-17.7a48.25,48.25,0,0,0,2.87-4.65l14.68-26.86c10.09-18.42,2.48-30.36-2.95-35.84a34.56,34.56,0,0,0-8.69-6.33h33.42L270.66,160c.25.29.49.57.73.83a37.75,37.75,0,0,0,17,10.21L225,246.18Zm152.68-51.63-25.38,47.14,16.63-70.37c15.67-3.71,27.41-11.48,35.06-23.22.39-.6.77-1.23,1.14-1.86a28.45,28.45,0,0,0,7.28,14.61,33.69,33.69,0,0,0,7.72,6.17c-20.16,3.42-34.42,12.62-42.45,27.53ZM518,190.61c-.2-.81-.42-1.61-.7-2.4-2.28-6.56-6.81-11.86-13.47-15.79q15.59-2.59,26.46-9.9l-5.06,10h2.56L518,190.61Zm85.34-23.86,44.43-87.51-21.59,87.51Zm69.94,5.73h8.12l-10.2,18.87,2.09-18.87Zm86.63,96.06c-.1.18-.19.34-.28.48l1-1.78h0l-.7,1.3Zm-18.95-92.07,2.15-4h5.14a55.3,55.3,0,0,0-7.29,4Z"/><path class="cls-1" d="M560.68,6.93a92.18,92.18,0,0,0-16.26-1.36H509.91A118.33,118.33,0,0,0,488,7.49l.29-.56H61.8l17,39.24L9.06,183.61H98.6L22.52,324.42H245.31l1.42-1.85-.56,1.85h98l1.33-5.62c9,4.63,20.3,6.9,34.08,6.9h33.71a125.21,125.21,0,0,0,19.9-1.5l-.12.22H673.64L681,310.85c10.23,10,25,14.85,45.19,14.85h33.71c18.51,0,33.14-2.79,44.7-8.54,12.54-6.23,22.67-16.54,30.12-30.65L856,247.11h.43l15.24-28.57c9.68-18.08,6.05-32,1-40.69l31.65-64h-8.72L914.31,76.5h4.31L953.28,6.93H560.68Z"/><path class="cls-1" d="M561.17,1.36A98.47,98.47,0,0,0,544.42,0H509.91a128.61,128.61,0,0,0-19.05,1.36H53.32L72.67,46,0,189.17H89.27L13.19,330H348.53l.81-3.42c8.53,3.15,18.48,4.7,30.2,4.7h33.71A133.84,133.84,0,0,0,432.14,330H677l5.66-10.47c10.83,7.9,25.16,11.75,43.55,11.75h33.71c19.39,0,34.82-3,47.17-9.12,13.6-6.76,24.56-17.87,32.54-33l19.71-36.49,17.26-31.5c10-18.71,7.19-33.57,2.33-43.42l34.35-69.46h-8.65l13.17-26.22h4.32l40.21-80.7H561.17Z"/><path class="cls-1" d="M734.05,199.81q12.51-23.2,51.93-23.21h35.07q20.94,0,29.63,8.86T852,208l-9,16.82h-50.3l9.79-18.1q1.91-3.28.13-5.39t-6.12-2.1h-3a16.39,16.39,0,0,0-7.75,1.55,13.33,13.33,0,0,0-5,5.57l-36.16,66.9q-1.9,3.29-.14,5.39t6.12,2.1h6a17.83,17.83,0,0,0,8-1.46,12.57,12.57,0,0,0,5-5.48l9.52-17.73H765l11.15-20.84h60.9l-22,40.76q-7.89,15-20.39,21.2t-34.8,6.21H726.16q-21.21,0-29.91-8.77T695.16,272L734,199.8Z"/><path class="cls-2" d="M529.48,85.75l-23.36-7.39c-3.27-1.29-5.26-2.73-6-4.27s-.46-3.69.82-6.42l4.62-9.33c1.45-2.85,3.11-4.79,5-5.83a17,17,0,0,1,8-1.56h2.71q4.62,0,6.39,2c1.17,1.36,1.12,3.27-.13,5.73l-8.15,15.75L577.9,55Q581,44.4,574,37.06q-8.7-9.23-29.6-9.23H509.93q-39.12,0-51.61,24.69l-8.15,15.94q-12,23.72,17.39,33.63l23.63,7.39c3.26,1.29,5.31,2.69,6.12,4.18s.5,3.66-1,6.51l-6,12c-1.45,2.86-3.08,4.79-4.9,5.84s-4.44,1.55-7.88,1.55h-3.26q-4.33,0-6.11-2.14c-1.18-1.42-1.13-3.3.13-5.64l8.7-17.3-60.08,20q-3.45,11.12,3.57,18.75,8.7,9.44,29.88,9.43h35q39.66,0,51.9-24.69l9.23-18.67q12-23.91-17.11-33.63Z"/><polygon class="cls-2" points="756.85 29.18 697.35 113.93 723.98 29.18 671.55 29.18 638.95 161.36 696.82 161.36 799.23 29.18 756.85 29.18"/><polygon class="cls-2" points="197.43 54.25 209.92 29.18 116.07 29.18 112.39 29.18 95.7 29.18 103.39 46.91 103.39 46.91 45.3 161.36 148.53 161.36 161.02 136.1 108.32 136.1 123.53 106.35 167.01 106.35 179.5 81.47 136.03 81.47 149.88 54.25 197.43 54.25"/><polygon class="cls-2" points="280.56 29.18 230.29 29.18 213.6 29.18 221.29 46.92 163.19 161.36 257.46 161.36 270.78 135.32 226.77 135.32 280.56 29.18"/><path class="cls-2" d="M402.07,29.18,350.18,131A16.08,16.08,0,0,1,345,137q-2.72,1.67-7.88,1.66h-3q-4.35,0-6.11-2.24c-1.18-1.49-1.13-3.4.13-5.74L379.79,29.18h-67l7.66,17.7-42,82.41q-7.59,14.58,1.09,24t29.88,9.43H345q36.09,0,49.6-20.74a42.33,42.33,0,0,0,2.28-4L452,29.17h-50Z"/><polygon class="cls-2" points="904.86 54.25 917.35 29.18 819.83 29.18 803.14 29.18 810.83 46.92 752.73 161.36 855.97 161.36 868.46 136.1 815.76 136.1 830.97 106.35 874.43 106.35 886.93 81.47 843.46 81.47 857.32 54.25 904.86 54.25"/><polygon class="cls-2" points="611.62 29.18 610.42 29.18 610.35 29.18 593.66 29.18 601.29 47.18 543.33 161.36 593.58 161.36 660.69 29.18 611.62 29.18"/><path class="cls-2" d="M127,177.88h75q20.92,0,29.63,8.77t1.09,22.67l-14.68,26.87q-7.89,14.63-26.91,19.37l-3,46.61H137.59l7.88-44.23H134.05l-23.92,44.23H59.83L127,177.88Zm32.35,57.76a16.39,16.39,0,0,0,7.75-1.55,11.73,11.73,0,0,0,4.76-5.58L183,208q1.9-3.47.27-5.48t-6.25-2h-12l-19,35.09h13.31Z"/><path class="cls-2" d="M297.17,177.88h58.72L326.53,302.17h-50.3l6.25-20.47H250.13l-15.77,20.47H192.22L297.16,177.88ZM289,260.31l14.68-47.89-37,47.89H289Z"/><path class="cls-2" d="M387.43,199.81q12.51-23.2,51.93-23.21h33.71q14.13,0,22.7,4.11t11,11.15q2.45,7-2.72,16.18l-12,21.75H442.35l12.5-23q1.9-3.28.27-5.39t-6-2.1h-1.9q-5.16,0-7.88,1.55a13.73,13.73,0,0,0-4.89,5.57L398,273.29q-1.64,3.29.13,5.39t6.12,2.1h1.9c3.44,0,6-.52,7.75-1.55a15.73,15.73,0,0,0,5-5.76l12.51-23.21H481l-16,30q-12.51,23.22-51.65,23.21H379.56q-21.21,0-29.91-8.77T348.56,272l38.88-72.2Z"/><path class="cls-2" d="M537.5,177.88h50.3L520.65,302.17h-50.3Z"/><path class="cls-2" d="M607.37,177.88h54.1l-7.61,68.91,37.25-68.91h36.43L660.39,302.17h-54.1l7.61-68.91-37.24,68.91H540.23l67.15-124.29Z"/><path class="cls-2" d="M911.75,65.38l23.58-47.32H751.07L729.48,48.81l9.66-30.75H576.86l4.5,10.62c-8-7.94-20.41-12-37-12H509.9c-18.75,0-33.78,3.93-45,11.68l5.23-10.32H78.75L91.11,46.55l-63.93,126h90.07L41.17,313.31h75.58L128,292.5l-3.71,20.81H239.83l15.77-20.47h11.85l-6.25,20.47h74.13L338.72,299a29.29,29.29,0,0,0,3,3.57c8,8.12,20.41,12.07,37.81,12.07h33.71c17.73,0,32.12-3.35,43.13-10l-4.69,8.68H583.28l13.3-24.6-2.72,24.6H667l13.76-25.47a26.63,26.63,0,0,0,7.59,14.69c8,8.12,20.42,12.07,37.81,12.07h33.71c16.76,0,29.76-2.41,39.75-7.38,10.42-5.18,18.91-13.9,25.26-25.93L849.37,236l12.5-22.69c9.74-18.19,2.16-30.12-3.23-35.62a34.35,34.35,0,0,0-6.56-5.18H862.9L886.39,125H834l3.83-7.5h43.52L905,70.38H861.63l2.53-5h47.6ZM796.06,51.44,737.52,166.75h-30.8ZM579.11,66.31l-18.24,35.93a27.93,27.93,0,0,0-1.76-6.31c-2.93-7.08-8.76-12.82-17.39-17.16L579.11,66.3ZM437.62,91.61c3.07,7.5,9.42,13.54,18.9,18l-39.41,13.14,18.82-37.15a27.41,27.41,0,0,0,1.69,6ZM297.18,21l11,25.5L268.6,124.15l0,0h-23.7ZM156.71,65.38h42.73l-2.52,5H154.18Zm-26.37,52.09H173l-3.81,7.5H126.51l3.83-7.5Zm71.41,146.4a50.94,50.94,0,0,0,17.63-11.11l-18.31,21.69.68-10.58Zm23.2-17.7a48.25,48.25,0,0,0,2.87-4.65l14.68-26.86c10.09-18.42,2.48-30.36-2.95-35.84a34.56,34.56,0,0,0-8.69-6.33h33.42L270.66,160c.25.29.49.57.73.83a37.75,37.75,0,0,0,17,10.21L225,246.18Zm152.68-51.63-25.38,47.14,16.63-70.37c15.67-3.71,27.41-11.48,35.06-23.22.39-.6.77-1.23,1.14-1.86a28.45,28.45,0,0,0,7.28,14.61,33.69,33.69,0,0,0,7.72,6.17c-20.16,3.42-34.42,12.62-42.45,27.53ZM518,190.61c-.2-.81-.42-1.61-.7-2.4-2.28-6.56-6.81-11.86-13.47-15.79q15.59-2.59,26.46-9.9l-5.06,10h2.56L518,190.61Zm85.34-23.86,44.43-87.51-21.59,87.51Zm69.94,5.73h8.12l-10.2,18.87,2.09-18.87Zm86.63,96.06c-.1.18-.19.34-.28.48l1-1.78h0l-.7,1.3Zm-18.95-92.07,2.15-4h5.14a55.3,55.3,0,0,0-7.29,4Z"/><path class="cls-2" d="M560.68,6.93a92.18,92.18,0,0,0-16.26-1.36H509.91A118.33,118.33,0,0,0,488,7.49l.29-.56H61.8l17,39.24L9.06,183.61H98.6L22.52,324.42H245.31l1.42-1.85-.56,1.85h98l1.33-5.62c9,4.63,20.3,6.9,34.08,6.9h33.71a125.21,125.21,0,0,0,19.9-1.5l-.12.22H673.64L681,310.85c10.23,10,25,14.85,45.19,14.85h33.71c18.51,0,33.14-2.79,44.7-8.54,12.54-6.23,22.67-16.54,30.12-30.65L856,247.11l15.67-28.57c9.68-18.08,6.05-32,1-40.69l31.65-64h-8.72L914.31,76.5h4.31L953.28,6.93H560.68Z"/><path class="cls-2" d="M734.05,199.81q12.51-23.2,51.93-23.21h35.07q20.94,0,29.63,8.86T852,208l-9,16.82h-50.3l9.79-18.1q1.91-3.28.13-5.39t-6.12-2.1h-3a16.39,16.39,0,0,0-7.75,1.55,13.33,13.33,0,0,0-5,5.57l-36.16,66.9q-1.9,3.29-.14,5.39t6.12,2.1h6a17.83,17.83,0,0,0,8-1.46,12.57,12.57,0,0,0,5-5.48l9.52-17.73H765l11.15-20.84h60.9l-22,40.76q-7.89,15-20.39,21.2t-34.8,6.21H726.16q-21.21,0-29.91-8.77T695.16,272L734,199.8Z"/><path class="cls-3" d="M529.48,85.75l-23.36-7.39c-3.27-1.29-5.26-2.73-6-4.27s-.46-3.69.82-6.42l4.62-9.33c1.45-2.85,3.11-4.79,5-5.83a17,17,0,0,1,8-1.56h2.71q4.62,0,6.39,2c1.17,1.36,1.12,3.27-.13,5.73l-8.15,15.75L577.9,55Q581,44.4,574,37.06q-8.7-9.23-29.6-9.23H509.93q-39.12,0-51.61,24.69l-8.15,15.94q-12,23.72,17.39,33.63l23.63,7.39c3.26,1.29,5.31,2.69,6.12,4.18s.5,3.66-1,6.51l-6,12c-1.45,2.86-3.08,4.79-4.9,5.84s-4.44,1.55-7.88,1.55h-3.26q-4.33,0-6.11-2.14c-1.18-1.42-1.13-3.3.13-5.64l8.7-17.3-60.08,20q-3.45,11.12,3.57,18.75,8.7,9.44,29.88,9.43h35q39.66,0,51.9-24.69l9.23-18.67q12-23.91-17.11-33.63Z"/><polygon class="cls-3" points="756.85 29.18 697.35 113.93 723.98 29.18 671.55 29.18 638.95 161.36 696.82 161.36 799.23 29.18 756.85 29.18"/><polygon class="cls-3" points="197.43 54.25 209.92 29.18 116.07 29.18 112.39 29.18 95.7 29.18 103.39 46.91 103.39 46.91 45.3 161.36 148.53 161.36 161.02 136.1 108.32 136.1 123.53 106.35 167.01 106.35 179.5 81.47 136.03 81.47 149.88 54.25 197.43 54.25"/><polygon class="cls-3" points="280.56 29.18 230.29 29.18 213.6 29.18 221.29 46.92 163.19 161.36 257.46 161.36 270.78 135.32 226.77 135.32 280.56 29.18"/><path class="cls-3" d="M402.07,29.18,350.18,131A16.08,16.08,0,0,1,345,137q-2.72,1.67-7.88,1.66h-3q-4.35,0-6.11-2.24c-1.18-1.49-1.13-3.4.13-5.74L379.79,29.18h-67l7.66,17.7-42,82.41q-7.59,14.58,1.09,24t29.88,9.43H345q36.09,0,49.6-20.74a42.33,42.33,0,0,0,2.28-4L452,29.17h-50Z"/><polygon class="cls-3" points="904.86 54.25 917.35 29.18 819.83 29.18 803.14 29.18 810.83 46.92 752.73 161.36 855.97 161.36 868.46 136.1 815.76 136.1 830.97 106.35 874.43 106.35 886.93 81.47 843.46 81.47 857.32 54.25 904.86 54.25"/><polygon class="cls-3" points="611.62 29.18 610.42 29.18 610.35 29.18 593.66 29.18 601.29 47.18 543.33 161.36 593.58 161.36 660.69 29.18 611.62 29.18"/><path class="cls-3" d="M127,177.88h75q20.92,0,29.63,8.77t1.09,22.67l-14.68,26.87q-7.89,14.63-26.91,19.37l-3,46.61H137.59l7.88-44.23H134.05l-23.92,44.23H59.83L127,177.88Zm32.35,57.76a16.39,16.39,0,0,0,7.75-1.55,11.73,11.73,0,0,0,4.76-5.58L183,208q1.9-3.47.27-5.48t-6.25-2h-12l-19,35.09h13.31Z"/><path class="cls-3" d="M297.17,177.88h58.72L326.53,302.17h-50.3l6.25-20.47H250.13l-15.77,20.47H192.22L297.16,177.88ZM289,260.31l14.68-47.89-37,47.89H289Z"/><path class="cls-3" d="M387.43,199.81q12.51-23.2,51.93-23.21h33.71q14.13,0,22.7,4.11t11,11.15q2.45,7-2.72,16.18l-12,21.75H442.35l12.5-23q1.9-3.28.27-5.39t-6-2.1h-1.9q-5.16,0-7.88,1.55a13.73,13.73,0,0,0-4.89,5.57L398,273.29q-1.64,3.29.13,5.39t6.12,2.1h1.9c3.44,0,6-.52,7.75-1.55a15.73,15.73,0,0,0,5-5.76l12.51-23.21H481l-16,30q-12.51,23.22-51.65,23.21H379.56q-21.21,0-29.91-8.77T348.56,272l38.88-72.2Z"/><path class="cls-3" d="M537.5,177.88h50.3L520.65,302.17h-50.3Z"/><path class="cls-3" d="M607.37,177.88h54.1l-7.61,68.91,37.25-68.91h36.43L660.39,302.17h-54.1l7.61-68.91-37.24,68.91H540.23l67.15-124.29Z"/><path class="cls-3" d="M911.75,65.38l23.58-47.32H751.07L729.48,48.81l9.66-30.75H576.86l4.5,10.62c-8-7.94-20.41-12-37-12H509.9c-18.75,0-33.78,3.93-45,11.68l5.23-10.32H78.75L91.11,46.55l-63.93,126h90.07L41.17,313.31h75.58L128,292.5l-3.71,20.81H239.83l15.77-20.47h11.85l-6.25,20.47h74.13L338.72,299a29.29,29.29,0,0,0,3,3.57c8,8.12,20.41,12.07,37.81,12.07h33.71c17.73,0,32.12-3.35,43.13-10l-4.69,8.68H583.28l13.3-24.6-2.72,24.6H667l13.76-25.47a26.63,26.63,0,0,0,7.59,14.69c8,8.12,20.42,12.07,37.81,12.07h33.71c16.76,0,29.76-2.41,39.75-7.38,10.42-5.18,18.91-13.9,25.26-25.93L849.37,236l12.5-22.69c9.74-18.19,2.16-30.12-3.23-35.62a34.35,34.35,0,0,0-6.56-5.18H862.9L886.39,125H834l3.83-7.5h43.52L905,70.38H861.63l2.53-5h47.6ZM796.06,51.44,737.52,166.75h-30.8ZM579.11,66.31l-18.24,35.93a27.93,27.93,0,0,0-1.76-6.31c-2.93-7.08-8.76-12.82-17.39-17.16L579.11,66.3ZM437.62,91.61c3.07,7.5,9.42,13.54,18.9,18l-39.41,13.14,18.82-37.15a27.41,27.41,0,0,0,1.69,6ZM297.18,21l11,25.5L268.6,124.15l0,0h-23.7ZM156.71,65.38h42.73l-2.52,5H154.18Zm-26.37,52.09H173l-3.81,7.5H126.51l3.83-7.5ZM225,246.17a48.25,48.25,0,0,0,2.87-4.65l14.68-26.86c10.09-18.42,2.48-30.36-2.95-35.84a34.56,34.56,0,0,0-8.69-6.33h33.42L270.66,160c.25.29.49.57.73.83a37.75,37.75,0,0,0,17,10.21L225,246.18Zm152.68-51.63-25.38,47.14,16.63-70.37c15.67-3.71,27.41-11.48,35.06-23.22.39-.6.77-1.23,1.14-1.86a28.45,28.45,0,0,0,7.28,14.61,33.69,33.69,0,0,0,7.72,6.17c-20.16,3.42-34.42,12.62-42.45,27.53ZM518,190.61c-.2-.81-.42-1.61-.7-2.4-2.28-6.56-6.81-11.86-13.47-15.79q15.59-2.59,26.46-9.9l-5.06,10h2.56L518,190.61Zm85.34-23.86,44.43-87.51-21.59,87.51Z"/><path class="cls-3" d="M734.05,199.81q12.51-23.2,51.93-23.21h35.07q20.94,0,29.63,8.86T852,208l-9,16.82h-50.3l9.79-18.1q1.91-3.28.13-5.39t-6.12-2.1h-3a16.39,16.39,0,0,0-7.75,1.55,13.33,13.33,0,0,0-5,5.57l-36.16,66.9q-1.9,3.29-.14,5.39t6.12,2.1h6a17.83,17.83,0,0,0,8-1.46,12.57,12.57,0,0,0,5-5.48l9.52-17.73H765l11.15-20.84h60.9l-22,40.76q-7.89,15-20.39,21.2t-34.8,6.21H726.16q-21.21,0-29.91-8.77T695.16,272L734,199.8Z"/><path class="cls-4" d="M529.48,85.75l-23.36-7.39c-3.27-1.29-5.26-2.73-6-4.27s-.46-3.69.82-6.42l4.62-9.33c1.45-2.85,3.11-4.79,5-5.83a17,17,0,0,1,8-1.56h2.71q4.62,0,6.39,2c1.17,1.36,1.12,3.27-.13,5.73l-8.15,15.75L577.9,55Q581,44.4,574,37.06q-8.7-9.23-29.6-9.23H509.93q-39.12,0-51.61,24.69l-8.15,15.94q-12,23.72,17.39,33.63l23.63,7.39c3.26,1.29,5.31,2.69,6.12,4.18s.5,3.66-1,6.51l-6,12c-1.45,2.86-3.08,4.79-4.9,5.84s-4.44,1.55-7.88,1.55h-3.26q-4.33,0-6.11-2.14c-1.18-1.42-1.13-3.3.13-5.64l8.7-17.3-60.08,20q-3.45,11.12,3.57,18.75,8.7,9.44,29.88,9.43h35q39.66,0,51.9-24.69l9.23-18.67q12-23.91-17.11-33.63Z"/><polygon class="cls-5" points="756.85 29.18 697.35 113.93 723.98 29.18 671.55 29.18 638.95 161.36 696.82 161.36 799.23 29.18 756.85 29.18"/><polygon class="cls-6" points="197.43 54.25 209.92 29.18 116.07 29.18 112.39 29.18 95.7 29.18 103.39 46.91 103.39 46.91 45.3 161.36 148.53 161.36 161.02 136.1 108.32 136.1 123.53 106.35 167.01 106.35 179.5 81.47 136.03 81.47 149.88 54.25 197.43 54.25"/><polygon class="cls-7" points="280.56 29.18 230.29 29.18 213.6 29.18 221.29 46.92 163.19 161.36 257.46 161.36 270.78 135.32 226.77 135.32 280.56 29.18"/><path class="cls-8" d="M402.07,29.18,350.18,131A16.08,16.08,0,0,1,345,137q-2.72,1.67-7.88,1.66h-3q-4.35,0-6.11-2.24c-1.18-1.49-1.13-3.4.13-5.74L379.79,29.18h-67l7.66,17.7-42,82.41q-7.59,14.58,1.09,24t29.88,9.43H345q36.09,0,49.6-20.74a42.33,42.33,0,0,0,2.28-4L452,29.17h-50Z"/><polygon class="cls-9" points="904.86 54.25 917.35 29.18 819.83 29.18 803.14 29.18 810.83 46.92 752.73 161.36 855.97 161.36 868.46 136.1 815.76 136.1 830.97 106.35 874.43 106.35 886.93 81.47 843.46 81.47 857.32 54.25 904.86 54.25"/><polygon class="cls-10" points="611.62 29.18 610.42 29.18 610.35 29.18 593.66 29.18 601.29 47.18 543.33 161.36 593.58 161.36 660.69 29.18 611.62 29.18"/><path class="cls-11" d="M127,177.88h75q20.92,0,29.63,8.77t1.09,22.67l-14.68,26.87q-7.89,14.63-26.91,19.37l-3,46.61H137.59l7.88-44.23H134.05l-23.92,44.23H59.83L127,177.88Zm32.35,57.76a16.39,16.39,0,0,0,7.75-1.55,11.73,11.73,0,0,0,4.76-5.58L183,208q1.9-3.47.27-5.48t-6.25-2h-12l-19,35.09h13.31Z"/><path class="cls-12" d="M297.17,177.88h58.72L326.53,302.17h-50.3l6.25-20.47H250.13l-15.77,20.47H192.22L297.16,177.88ZM289,260.31l14.68-47.89-37,47.89H289Z"/><path class="cls-13" d="M387.43,199.81q12.51-23.2,51.93-23.21h33.71q14.13,0,22.7,4.11t11,11.15q2.45,7-2.72,16.18l-12,21.75H442.35l12.5-23q1.9-3.28.27-5.39t-6-2.1h-1.9q-5.16,0-7.88,1.55a13.73,13.73,0,0,0-4.89,5.57L398,273.29q-1.64,3.29.13,5.39t6.12,2.1h1.9c3.44,0,6-.52,7.75-1.55a15.73,15.73,0,0,0,5-5.76l12.51-23.21H481l-16,30q-12.51,23.22-51.65,23.21H379.56q-21.21,0-29.91-8.77T348.56,272l38.88-72.2Z"/><path class="cls-14" d="M537.5,177.88h50.3L520.65,302.17h-50.3Z"/><path class="cls-15" d="M607.37,177.88h54.1l-7.61,68.91,37.25-68.91h36.43L660.39,302.17h-54.1l7.61-68.91-37.24,68.91H540.23l67.15-124.29Z"/><path class="cls-16" d="M734.05,199.81q12.51-23.2,51.93-23.21h35.07q20.94,0,29.63,8.86T852,208l-9,16.82h-50.3l9.79-18.1q1.91-3.28.13-5.39t-6.12-2.1h-3a16.39,16.39,0,0,0-7.75,1.55,13.33,13.33,0,0,0-5,5.57l-36.16,66.9q-1.9,3.29-.14,5.39t6.12,2.1h6a17.83,17.83,0,0,0,8-1.46,12.57,12.57,0,0,0,5-5.48l9.52-17.73H765l11.15-20.84h60.9l-22,40.76q-7.89,15-20.39,21.2t-34.8,6.21H726.16q-21.21,0-29.91-8.77T695.16,272L734,199.8Z"/></g></g></g></svg>