<svg xmlns="http://www.w3.org/2000/svg" xmlns:xlink="http://www.w3.org/1999/xlink" viewBox="0 0 962.21 256.5"><defs><style>.cls-1{fill:#fff;}.cls-2{fill:#eb2127;}.cls-3{fill:#ffffff;}.cls-4{fill:url(#linear-gradient);}.cls-5{fill:url(#linear-gradient-2);}.cls-6{fill:url(#linear-gradient-3);}.cls-7{fill:url(#linear-gradient-4);}.cls-8{fill:url(#linear-gradient-5);}.cls-9{fill:url(#linear-gradient-6);}.cls-10{fill:url(#linear-gradient-7);}.cls-11{fill:url(#linear-gradient-8);}.cls-12{fill:url(#linear-gradient-9);}.cls-13{fill:url(#linear-gradient-10);}.cls-14{fill:url(#linear-gradient-11);}.cls-15{fill:url(#linear-gradient-12);}.cls-16{fill:url(#linear-gradient-13);}.cls-17{fill:url(#linear-gradient-14);}</style><linearGradient id="linear-gradient" x1="437.6" y1="11.7" x2="623.92" y2="198.01" gradientTransform="matrix(1, 0, 0, -1, 0, 257.49)" gradientUnits="userSpaceOnUse"><stop offset="0" stop-color="#fff"/><stop offset="0.5" stop-color="#dddddd"/><stop offset="1" stop-color="#fff"/></linearGradient><linearGradient id="linear-gradient-2" x1="430.17" y1="94.56" x2="565.04" y2="229.42" gradientTransform="matrix(1, 0, 0, -1, 0, 257.49)" gradientUnits="userSpaceOnUse"><stop offset="0" stop-color="#ffffff"/><stop offset="0.5" stop-color="#cccccc"/><stop offset="1" stop-color="#ffffff"/></linearGradient><linearGradient id="linear-gradient-3" x1="628.47" y1="106.58" x2="774.7" y2="252.8" xlink:href="#linear-gradient-2"/><linearGradient id="linear-gradient-4" x1="50.66" y1="90.79" x2="199.05" y2="239.19" xlink:href="#linear-gradient-2"/><linearGradient id="linear-gradient-5" x1="166.3" y1="93.02" x2="291.06" y2="217.79" xlink:href="#linear-gradient-2"/><linearGradient id="linear-gradient-6" x1="283.04" y1="100.66" x2="431.36" y2="248.97" xlink:href="#linear-gradient-2"/><linearGradient id="linear-gradient-7" x1="758.03" y1="90.78" x2="906.43" y2="239.18" xlink:href="#linear-gradient-2"/><linearGradient id="linear-gradient-8" x1="535.39" y1="104.05" x2="660.15" y2="228.81" xlink:href="#linear-gradient-2"/><linearGradient id="linear-gradient-9" x1="515.17" y1="21.46" x2="579.08" y2="85.36" xlink:href="#linear-gradient-2"/><linearGradient id="linear-gradient-10" x1="578.94" y1="16.6" x2="642.97" y2="80.63" xlink:href="#linear-gradient-2"/><linearGradient id="linear-gradient-11" x1="641.04" y1="27.84" x2="699.37" y2="86.17" xlink:href="#linear-gradient-2"/><linearGradient id="linear-gradient-12" x1="689.12" y1="30.14" x2="742.87" y2="83.91" xlink:href="#linear-gradient-2"/><linearGradient id="linear-gradient-13" x1="727.95" y1="22.37" x2="797.25" y2="91.67" xlink:href="#linear-gradient-2"/><linearGradient id="linear-gradient-14" x1="795.32" y1="27.75" x2="853.95" y2="86.38" xlink:href="#linear-gradient-2"/></defs><g id="Layer_2" data-name="Layer 2"><g id="Layer_2-2" data-name="Layer 2"><g id="Layer_1-2" data-name="Layer 1-2"><path class="cls-1" d="M527.53,58.7c1.26-2.46,1.31-4.36.14-5.72s-3.3-2-6.38-2h-2.72a17,17,0,0,0-8,1.55c-1.9,1-3.58,3-5,5.83l-4.62,9.33c-1.27,2.72-1.53,4.87-.82,6.42s2.72,3,6,4.27l23.36,7.38q29.07,9.73,17.11,33.63L537.32,138q-12.24,24.68-51.89,24.68h-35q-21.17,0-29.88-9.42-7-7.64-3.56-18.75l60.08-20-8.7,17.29c-1.26,2.34-1.31,4.22-.12,5.63s3.21,2.15,6.11,2.15h3.24c3.45,0,6.09-.51,7.88-1.55a13.56,13.56,0,0,0,4.9-5.84l6-12c1.46-2.84,1.76-5,1-6.51s-2.86-2.9-6.12-4.19l-23.62-7.38q-29.32-9.92-17.39-33.63l8.15-15.94q12.48-24.67,51.62-24.68h34.5q20.91,0,29.6,9.23c4.6,4.9,5.9,10.87,3.85,17.93L519.41,74.44l8.15-15.75Z"/><polygon class="cls-1" points="799.16 29.16 696.76 161.34 638.89 161.34 671.49 29.16 723.92 29.16 697.29 113.91 756.79 29.16 799.16 29.16"/><polygon class="cls-1" points="149.87 54.23 136.02 81.46 179.47 81.46 166.98 106.32 123.51 106.32 108.3 136.08 161 136.08 148.51 161.34 45.3 161.34 103.38 46.89 95.69 29.16 209.9 29.16 197.41 54.23 149.87 54.23"/><polygon class="cls-1" points="226.75 135.29 270.76 135.29 257.43 161.34 163.16 161.34 221.27 46.91 213.59 29.16 280.52 29.16 226.75 135.29"/><path class="cls-1" d="M452,29.16,396.87,138a42.5,42.5,0,0,1-2.28,4Q381.09,162.7,345,162.69H309.41q-21.2,0-29.88-9.42t-1.1-24l42.06-82.4-7.68-17.69h66.95L328.14,130.61c-1.27,2.34-1.31,4.26-.12,5.74s3.19,2.23,6.11,2.23h3c3.44,0,6.07-.54,7.88-1.66a16,16,0,0,0,5.16-5.93L402,29.15h50Z"/><polygon class="cls-1" points="857.25 54.23 843.4 81.46 886.85 81.46 874.36 106.32 830.91 106.32 815.69 136.08 868.39 136.08 855.9 161.34 752.67 161.34 810.76 46.91 803.08 29.16 917.27 29.16 904.78 54.23 857.25 54.23"/><polygon class="cls-1" points="660.62 29.16 593.53 161.34 543.28 161.34 601.24 47.15 593.6 29.16 660.62 29.16"/><polygon class="cls-2" points="172.97 117.45 169.16 124.95 126.5 124.95 130.32 117.45 172.97 117.45"/><polygon class="cls-2" points="199.43 65.36 196.9 70.33 154.16 70.33 156.69 65.36 199.43 65.36"/><polygon class="cls-2" points="149.87 54.23 136.02 81.46 179.47 81.46 166.98 106.32 123.51 106.32 123.51 106.34 108.3 136.08 161 136.08 148.51 161.34 45.3 161.34 103.38 46.89 95.69 29.16 209.9 29.16 197.41 54.23 149.87 54.23"/><polygon class="cls-2" points="226.75 135.29 270.76 135.29 257.43 161.34 163.16 161.34 221.27 46.91 213.59 29.16 280.52 29.16 226.75 135.29"/><path class="cls-2" d="M308.19,46.47l-39.61,77.66s0,0,0,0H244.86L297.16,21l11,25.5Z"/><path class="cls-2" d="M452,29.16,396.87,138a42.5,42.5,0,0,1-2.28,4Q381.09,162.7,345,162.69H309.41q-21.2,0-29.88-9.42t-1.1-24l42.06-82.42-7.68-17.69h66.95L328.14,130.61a8,8,0,0,0-.73,1.73,5.14,5.14,0,0,0-.24,1.55,3.8,3.8,0,0,0,.86,2.46,4.06,4.06,0,0,0,.49.52.53.53,0,0,0,.12.1,2.06,2.06,0,0,0,.42.35,2,2,0,0,0,.24.16,1.77,1.77,0,0,0,.33.19h0a7.53,7.53,0,0,0,1,.42,11.24,11.24,0,0,0,1.27.31,10.19,10.19,0,0,0,1.29.14h0c.3,0,.61,0,.92,0h3a23.62,23.62,0,0,0,4.55-.4,12.11,12.11,0,0,0,1.81-.52,8.92,8.92,0,0,0,1.52-.73l.51-.33.16-.12a9.24,9.24,0,0,0,1.32-1.15c.23-.23.44-.45.65-.7a.52.52,0,0,0,.16-.17l.09-.1c.14-.16.26-.31.4-.49s.44-.56.65-.87l.63-1,.61-1L402,29.17h50Z"/><path class="cls-2" d="M456.48,109.61l-39.39,13.14,18.8-37.16a26.8,26.8,0,0,0,1.69,6c3.07,7.5,9.4,13.54,18.89,18Z"/><path class="cls-2" d="M527.53,58.7a6.62,6.62,0,0,0,.92-4.05,1.1,1.1,0,0,0,0-.16,1.51,1.51,0,0,0-.1-.38.06.06,0,0,0,0,0,.61.61,0,0,0-.07-.17.67.67,0,0,0-.1-.21.46.46,0,0,0-.09-.17.36.36,0,0,1,0-.07,3.72,3.72,0,0,0-.33-.45q-1.75-2-6.38-2h-2.7a17,17,0,0,0-8,1.55c-1.9,1-3.58,3-5,5.83l-4.62,9.33c-1.27,2.74-1.53,4.87-.82,6.42s2.72,3,6,4.27l23.36,7.38,0,0c.65.21,1.27.44,1.88.66l.61.23,1.19.47c.38.14.77.3,1.13.45l.49.23.28.12a2.53,2.53,0,0,1,.33.16,3.62,3.62,0,0,1,.4.19l.68.31a3.37,3.37,0,0,0,.38.19l.63.33a3,3,0,0,1,.35.19c.24.12.49.24.72.38s.59.33.87.51c.45.28.91.56,1.34.85.14.09.28.17.42.28l.84.59c.8.61,1.55,1.22,2.23,1.85l.66.66c.21.21.42.44.61.65s.35.38.51.58a2.93,2.93,0,0,1,.38.49q.35.42.63.84c.21.28.38.58.58.87v0c.23.37.44.73.63,1.1a11.38,11.38,0,0,1,.52,1.12,19.22,19.22,0,0,1,.79,2.36c.14.54.24,1.08.33,1.64,0,.28.07.56.09.84a6.3,6.3,0,0,1,0,.75,16.6,16.6,0,0,1,0,2.44,20.16,20.16,0,0,1-.4,2.79,33.35,33.35,0,0,1-3,8.48L537.35,138c-.31.65-.66,1.27-1,1.9-.16.31-.33.61-.52.91-.31.54-.65,1.08-1,1.6s-.63.92-1,1.38a40.14,40.14,0,0,1-3.17,3.82v0l-1.17,1.17-1.2,1.13h0c-.47.42-.94.82-1.43,1.2-.26.21-.51.4-.77.59a.75.75,0,0,1-.14.12,2.14,2.14,0,0,1-.26.19l-.24.17a1.1,1.1,0,0,1-.14.09,2.91,2.91,0,0,1-.33.26c-.17.14-.37.26-.58.4l-.09.05c-.47.33-.94.66-1.45,1l-.94.58a.24.24,0,0,0-.1.05l-.44.26a1.27,1.27,0,0,0-.23.12c-.42.24-.84.47-1.26.68a.08.08,0,0,1-.07,0,9.93,9.93,0,0,1-1,.52c-.17.1-.37.19-.56.28s-.24.12-.37.16c-.52.26-1.06.51-1.62.73l-1.36.56-.4.14-.23.09c-.31.14-.65.24-1,.37l-.07,0c-.61.23-1.26.44-1.9.65-.91.3-1.85.56-2.81.8l-1.06.28c-.61.16-1.24.3-1.87.44-1.34.3-2.7.54-4.1.77-.72.12-1.41.23-2.15.31s-1.45.19-2.18.26l-1.38.14-1.61.14c-.1,0-.23,0-.33,0h-.09c-.66,0-1.33.09-2,.12l-1.48.07-1.73.07h-.26c-.42,0-.85,0-1.29,0s-1.05,0-1.57,0h-35c-1.4,0-2.76,0-4.08-.1-1,0-2-.1-3-.19h0c-.51,0-1-.09-1.52-.16-1-.1-1.95-.23-2.88-.38l-.14,0-1.12-.21a.34.34,0,0,1-.14,0,5.82,5.82,0,0,1-.79-.16c-.37-.07-.72-.14-1.06-.23l-.1,0-.75-.17c-.45-.12-.91-.23-1.34-.37a14.51,14.51,0,0,1-1.41-.42c-.42-.14-.84-.28-1.24-.44s-.8-.3-1.2-.47h0c-.44-.16-.87-.35-1.27-.54l-.3-.14-.23-.1a8,8,0,0,1-.82-.42h0l-.26-.14-.45-.26-.09-.05-.05,0-.38-.23-.09-.05s0,0-.05,0a1.16,1.16,0,0,1-.24-.14.3.3,0,0,1-.1-.07c-.35-.21-.7-.44-1-.66l-.14-.1c-.42-.3-.8-.59-1.19-.89l-.07-.05a.61.61,0,0,0-.16-.12c-.35-.3-.7-.59-1-.91s-.77-.73-1.13-1.13a5.37,5.37,0,0,1-.44-.51c-.14-.16-.28-.31-.4-.47s-.14-.16-.19-.24a.31.31,0,0,1-.07-.09c-.17-.21-.35-.44-.51-.66s-.45-.68-.66-1-.42-.7-.59-1.06-.45-1-.66-1.45c-.1-.24-.19-.49-.28-.73s-.16-.51-.23-.77-.19-.7-.26-1.06-.12-.61-.17-.91a15,15,0,0,1-.19-1.66,20,20,0,0,1,.31-4.88,4.15,4.15,0,0,1,.1-.56,14.47,14.47,0,0,1,.42-1.76c.09-.3.17-.61.26-.91l60.08-20-8.7,17.29c-1.26,2.34-1.31,4.22-.12,5.65s3.21,2.13,6.11,2.13h3.26c3.44,0,6.07-.51,7.87-1.55.23-.14.45-.28.68-.44a8.76,8.76,0,0,0,1.29-1.12c.21-.21.42-.45.61-.68a4.21,4.21,0,0,0,.4-.52,1.2,1.2,0,0,0,.21-.26l.07-.1,0,0,.26-.37a1,1,0,0,0,.12-.19.88.88,0,0,0,.12-.17,4.86,4.86,0,0,0,.33-.54l.16-.26c.21-.37.42-.75.63-1.15l6-12.05c1.46-2.84,1.78-5,1-6.51s-2.86-2.9-6.12-4.19l-23.62-7.38q-29.32-9.92-17.39-33.63l8.15-15.94c.16-.31.31-.63.49-.92.24-.45.49-.89.75-1.33.14-.24.28-.49.44-.73.59-1,1.22-1.9,1.87-2.79l.63-.84s.09-.1.12-.16a.61.61,0,0,0,.12-.16l.14-.17c.17-.23.35-.44.54-.65s.52-.63.78-.92.58-.63.87-.94c.52-.56,1.06-1.08,1.62-1.6a3.59,3.59,0,0,1,.4-.38l1.13-1,.68-.56c.54-.45,1.12-.89,1.69-1.29l.68-.49c.26-.17.52-.37.78-.54.47-.31.94-.61,1.43-.91a1.27,1.27,0,0,1,.23-.12c.47-.3.94-.56,1.43-.82.24-.14.49-.28.73-.4.72-.38,1.45-.75,2.2-1.08s1.47-.66,2.22-1c.44-.17.86-.35,1.31-.51l1.33-.49c.3-.1.59-.21.91-.3.77-.26,1.55-.51,2.34-.73l.28-.07c.94-.26,1.88-.51,2.84-.72l.91-.21,1.66-.35c.14,0,.3-.05.45-.09.66-.12,1.34-.23,2-.33.49-.09,1-.16,1.5-.23.82-.12,1.66-.23,2.51-.31l1.4-.14c.87-.09,1.76-.16,2.65-.23l2.74-.14a.22.22,0,0,1,.16,0h0c.49,0,1-.05,1.47-.05,1,0,2.08-.05,3.14-.05h34.5q20.91,0,29.6,9.23c4.6,4.9,5.9,10.87,3.85,17.93L519.44,74.46h0l8.15-15.75Z"/><path class="cls-2" d="M579.05,66.29l-18.23,35.93a28.23,28.23,0,0,0-1.76-6.3c-2.93-7.08-8.76-12.84-17.39-17.16Z"/><path class="cls-2" d="M583.69,176.74v0c-.24-.24-.51-.47-.78-.7a7.47,7.47,0,0,0-.85-.63c-.31-.19-.63-.38-1-.56s-.68-.33-1.05-.49a14.66,14.66,0,0,0-1.62-.56l-.77-.21-.7-.16c-.3-.07-.61-.12-.94-.17s-.77-.12-1.17-.17a9,9,0,0,0-1-.1l-.82-.07c-.78-.05-1.61-.07-2.46-.07H537.13l-29.86,55.28h22.36l10.64-19.66h5.09l-3.51,19.66h22.49l1.33-20.72q8.48-2.12,12-8.62l6.54-12q3.38-6.18-.49-10.07Zm-21.64,9.5-4.95,9.11a7.75,7.75,0,0,1-.45.82,4.83,4.83,0,0,1-.51.68v0a2.62,2.62,0,0,1-.28.3,2.84,2.84,0,0,1-.26.24,4.14,4.14,0,0,1-.61.42,7.43,7.43,0,0,1-3.45.7h-5.91l8.46-15.61h5.32a3.88,3.88,0,0,1,2.56.68,2.08,2.08,0,0,1,.21.21c.49.59.45,1.41-.12,2.44Z"/><polygon class="cls-2" points="647.7 79.21 627.34 161.7 605.81 161.7 647.7 79.21"/><polygon class="cls-2" points="660.62 29.16 593.53 161.34 543.28 161.34 601.24 47.17 598.98 41.79 593.6 29.16 660.62 29.16"/><path class="cls-2" d="M706.43,181.17c0,.23,0,.47,0,.72a5.71,5.71,0,0,1-.14.79,6,6,0,0,1-.17.77c-.07.26-.17.52-.26.8s-.26.66-.42,1-.33.68-.52,1l-5.34,9.66H677.43L683,185.67a2.05,2.05,0,0,0,.12-2.39,3.21,3.21,0,0,0-2.67-.94h-.85a7.15,7.15,0,0,0-3.51.7c-.1.05-.19.12-.3.19s-.38.3-.58.47-.23.24-.33.38a2.36,2.36,0,0,0-.33.42c-.21.3-.42.65-.63,1l-16.2,29.76a2,2,0,0,0,0,2.39,3.36,3.36,0,0,0,2.72.94h.85a5.24,5.24,0,0,0,.56,0,7.27,7.27,0,0,0,1-.09,3.25,3.25,0,0,0,.45-.07,4.29,4.29,0,0,0,1-.31l.4-.21a6.93,6.93,0,0,0,2.25-2.56L672.56,205h22l-7.13,13.33a17.58,17.58,0,0,1-1.57,2.42,8.93,8.93,0,0,1-.7.82l0,0a2.4,2.4,0,0,1-.21.23,17.91,17.91,0,0,1-2.13,1.94,19.24,19.24,0,0,1-2.49,1.6,22.24,22.24,0,0,1-2.88,1.29c-.51.19-1,.37-1.57.52s-1.08.3-1.66.44l-.38.09c-.3.07-.59.12-.89.17s-.42.09-.63.12a.76.76,0,0,1-.16,0l-.26,0a1.45,1.45,0,0,1-.3,0c-.31.07-.65.12-1,.16h0l-1.47.16c-.35,0-.68.07-1.05.09h0c-.56.05-1.13.07-1.73.09s-1.22,0-1.83,0h-15c-.38,0-.77,0-1.15,0-.77,0-1.48,0-2.18-.12l-1-.1c-.66-.09-1.31-.17-1.92-.31a2.85,2.85,0,0,1-.44-.09l-.44-.1h-.07a9.46,9.46,0,0,1-.91-.26c-.24-.07-.49-.14-.72-.23s-.52-.17-.77-.28-.49-.21-.72-.33a3.25,3.25,0,0,1-.52-.28l-.14-.07a5.19,5.19,0,0,1-.65-.37,10.32,10.32,0,0,1-1-.7,8.12,8.12,0,0,1-.7-.63c-2.58-2.6-2.74-6-.49-10.08l17.29-32.11q5.58-10.31,23.1-10.33h15a23.57,23.57,0,0,1,10.1,1.83l.61.31c.17.1.35.19.51.3a6.56,6.56,0,0,1,.91.61.59.59,0,0,1,.16.1,4.18,4.18,0,0,1,.56.49l.07.05a2.94,2.94,0,0,1,.31.3,6.87,6.87,0,0,1,.58.63c.17.23.33.45.47.68a5.18,5.18,0,0,1,.4.73s0,.09,0,.12a5.93,5.93,0,0,1,.26.63,7.11,7.11,0,0,1,.28,1,8.16,8.16,0,0,1,.09,1.1Z"/><polygon class="cls-2" points="742.12 172.83 712.24 228.11 689.87 228.11 719.74 172.83 742.12 172.83"/><polygon class="cls-2" points="796 51.42 740.01 161.7 710.54 161.7 796 51.42"/><polygon class="cls-2" points="799.16 29.16 696.76 161.34 638.89 161.34 671.49 29.16 723.92 29.16 697.29 113.91 697.31 113.89 756.79 29.16 799.16 29.16"/><polygon class="cls-2" points="804.27 172.83 774.39 228.11 750.33 228.11 753.72 197.46 737.15 228.11 720.94 228.11 750.82 172.83 774.88 172.83 771.49 203.48 788.06 172.83 804.27 172.83"/><path class="cls-2" d="M861.07,182.25c0,.21-.07.42-.12.65s-.1.44-.17.66a13.64,13.64,0,0,1-1.12,2.69l-4,7.48H833.29l4.36-8.06c.56-1,.59-1.78.05-2.39a3.34,3.34,0,0,0-2.7-.94h-1.34a7.09,7.09,0,0,0-3.44.7,2.59,2.59,0,0,0-.31.19c-.21.14-.4.3-.61.47s-.23.24-.35.38a2.36,2.36,0,0,0-.33.42,3.28,3.28,0,0,0-.33.47c-.1.17-.21.35-.31.54L811.9,215.27a1.94,1.94,0,0,0,0,2.39,3.36,3.36,0,0,0,2.72.94h2.65c.38,0,.77,0,1.1,0a7.62,7.62,0,0,0,1.78-.33,6.38,6.38,0,0,0,.7-.28,5.7,5.7,0,0,0,2.23-2.44v0l4.22-7.87h0v0H821l1.57-2.93,3.37-6.33H853l-9.79,18.14c-2.34,4.43-5.35,7.59-9.07,9.42-.47.23-1,.45-1.47.65a14.86,14.86,0,0,1-1.59.56c-.56.17-1.13.33-1.73.49h0c-.59.14-1.22.26-1.87.38s-1.31.21-2,.3q-.57.08-1.17.12c-.31,0-.65.07-1,.09q-1,.08-2,.12a.9.9,0,0,1-.23,0c-.78,0-1.59,0-2.41,0h-15c-.38,0-.77,0-1.15,0-.77,0-1.48-.05-2.18-.12l-1-.1c-.68-.09-1.33-.17-1.94-.31-.3-.05-.58-.12-.85-.19h-.07a9.46,9.46,0,0,1-.91-.26c-.24-.07-.49-.14-.72-.23s-.52-.17-.77-.28a13,13,0,0,1-2-1,10.32,10.32,0,0,1-1-.7,8.12,8.12,0,0,1-.7-.63,7.16,7.16,0,0,1-.59-.66c-.09-.1-.17-.23-.26-.35a5.5,5.5,0,0,1-.4-.63,7.71,7.71,0,0,1-.51-1.2,4.05,4.05,0,0,1-.12-.47c0-.12-.05-.23-.07-.33s0,0,0,0,0-.28,0-.44,0-.42,0-.65a11,11,0,0,1,1.59-5.3l17.29-32.11q5.58-10.31,23.1-10.33h15.59c1.17,0,2.25.05,3.3.14l1.43.16a.74.74,0,0,0,.17,0c.45.07.89.14,1.33.23.75.16,1.47.33,2.13.54l.17.07c.28.1.54.19.8.3s.61.26.91.4a7,7,0,0,1,.89.49.24.24,0,0,1,.1,0s0,0,.07.05a8.75,8.75,0,0,1,.84.56,13.29,13.29,0,0,1,1,.92c.19.21.38.4.54.61s.21.26.31.4.3.45.42.68a3.81,3.81,0,0,1,.23.45c.07.16.14.31.19.45s.1.33.16.49a3.51,3.51,0,0,1,.12.49,7.33,7.33,0,0,1,.05,2.48Z"/><polygon class="cls-2" points="857.25 54.23 843.4 81.46 886.85 81.46 874.36 106.32 830.91 106.32 830.91 106.34 815.69 136.08 868.39 136.08 855.9 161.34 752.67 161.34 810.76 46.91 803.08 29.16 917.27 29.16 904.78 54.23 857.25 54.23"/><path class="cls-2" d="M561.12,1.34A99.39,99.39,0,0,0,544.37,0h-34.5A130.52,130.52,0,0,0,490.8,1.34H53.32L72.66,46,0,189.14H274.46l2.36-4.59c9.14,4,20.08,6,32.6,6H345c23.6,0,42.77-5.49,57.08-16.33,11.23,10.83,27.46,16.33,48.3,16.33h35c3.68,0,7.29-.14,10.78-.4l-35.57,65.8H641a61.2,61.2,0,0,0,8.49.58h15a73.37,73.37,0,0,0,9.38-.58H791l.35-.65a60.51,60.51,0,0,0,12.33,1.22h15c11.06,0,20.16-1.85,27.84-5.67a47.94,47.94,0,0,0,21.19-21.16l4.38-8.13,12.09-22.15c.42-.79.84-1.61,1.2-2.42l14.25-26.41H887.28a37.87,37.87,0,0,0-2.25-5.39l28.14-56.9h-8.65L917.67,82H922L962.21,1.35H561.12Zm343.78,69-23.67,47.12H837.71l-3.82,7.5h52.4l-20.81,42.11c.52.44,1,.87,1.5,1.34a18.18,18.18,0,0,1,4.29,18.82h.38l-1.26,2.36c-.28.63-.59,1.27-.94,1.92l-7.12,13.36h-.21L853,221.73c-3.44,6.51-8.11,11.27-13.92,14.15-5.32,2.65-12,3.92-20.43,3.92h-15c-8.43,0-15-2-19.75-5.9L781,239.24H672.73a56.91,56.91,0,0,1-8.27.56h-15a36,36,0,0,1-14.3-2.58l-.47,2H488.62L530,162.63c-11.15,7.43-26,11.2-44.59,11.2h-35c-17.29,0-30.09-4.38-38-13a28.24,28.24,0,0,1-7.24-14.69c-.38.66-.77,1.31-1.19,1.94-11.13,17.09-31,25.76-58.91,25.76H309.4c-17.29,0-30.09-4.38-38.06-13-.23-.26-.47-.54-.73-.82l-6.37,12.47H27.17L91.1,46.53,78.73,18H470.11l-5.23,10.33c11.22-7.75,26.24-11.69,45-11.69h34.5c16.54,0,29,4.05,37,12L576.82,18H739.08l-9.66,30.75L751,18H935.26L911.68,65.36h-47.6l-2.51,5H904.9Z"/><polygon class="cls-2" points="172.97 117.45 169.16 124.95 126.5 124.95 130.32 117.45 172.97 117.45"/><polygon class="cls-2" points="199.43 65.36 196.9 70.33 154.16 70.33 156.69 65.36 199.43 65.36"/><polygon class="cls-2" points="149.87 54.23 136.02 81.46 179.47 81.46 166.98 106.32 123.51 106.32 123.51 106.34 108.3 136.08 161 136.08 148.51 161.34 45.3 161.34 103.38 46.89 95.69 29.16 209.9 29.16 197.41 54.23 149.87 54.23"/><polygon class="cls-2" points="226.75 135.29 270.76 135.29 257.43 161.34 163.16 161.34 221.27 46.91 213.59 29.16 280.52 29.16 226.75 135.29"/><path class="cls-2" d="M308.19,46.47l-39.61,77.66s0,0,0,0H244.86L297.16,21l11,25.5Z"/><path class="cls-2" d="M452,29.16,396.87,138a42.5,42.5,0,0,1-2.28,4Q381.09,162.7,345,162.69H309.41q-21.2,0-29.88-9.42t-1.1-24l42.06-82.42-7.68-17.69h66.95L328.14,130.61a8,8,0,0,0-.73,1.73,5.14,5.14,0,0,0-.24,1.55,3.8,3.8,0,0,0,.86,2.46,4.06,4.06,0,0,0,.49.52.53.53,0,0,0,.12.1,2.06,2.06,0,0,0,.42.35,2,2,0,0,0,.24.16,1.77,1.77,0,0,0,.33.19h0a7.53,7.53,0,0,0,1,.42,11.24,11.24,0,0,0,1.27.31,10.19,10.19,0,0,0,1.29.14h0c.3,0,.61,0,.92,0h3a23.62,23.62,0,0,0,4.55-.4,12.11,12.11,0,0,0,1.81-.52,8.92,8.92,0,0,0,1.52-.73l.51-.33.16-.12a9.24,9.24,0,0,0,1.32-1.15c.23-.23.44-.45.65-.7a.52.52,0,0,0,.16-.17l.09-.1c.14-.16.26-.31.4-.49s.44-.56.65-.87l.63-1,.61-1L402,29.17h50Z"/><path class="cls-2" d="M456.48,109.61l-39.39,13.14,18.8-37.16a26.8,26.8,0,0,0,1.69,6c3.07,7.5,9.4,13.54,18.89,18Z"/><path class="cls-2" d="M527.53,58.7a6.62,6.62,0,0,0,.92-4.05,1.1,1.1,0,0,0,0-.16,1.51,1.51,0,0,0-.1-.38.06.06,0,0,0,0,0,.61.61,0,0,0-.07-.17.67.67,0,0,0-.1-.21.46.46,0,0,0-.09-.17.36.36,0,0,1,0-.07,3.72,3.72,0,0,0-.33-.45q-1.75-2-6.38-2h-2.7a17,17,0,0,0-8,1.55c-1.9,1-3.58,3-5,5.83l-4.62,9.33c-1.27,2.74-1.53,4.87-.82,6.42s2.72,3,6,4.27l23.36,7.38,0,0c.65.21,1.27.44,1.88.66l.61.23,1.19.47c.38.14.77.3,1.13.45l.49.23.28.12a2.53,2.53,0,0,1,.33.16,3.62,3.62,0,0,1,.4.19l.68.31a3.37,3.37,0,0,0,.38.19l.63.33a3,3,0,0,1,.35.19c.24.12.49.24.72.38s.59.33.87.51c.45.28.91.56,1.34.85.14.09.28.17.42.28l.84.59c.8.61,1.55,1.22,2.23,1.85l.66.66c.21.21.42.44.61.65s.35.38.51.58a2.93,2.93,0,0,1,.38.49q.35.42.63.84c.21.28.38.58.58.87v0c.23.37.44.73.63,1.1a11.38,11.38,0,0,1,.52,1.12,19.22,19.22,0,0,1,.79,2.36c.14.54.24,1.08.33,1.64,0,.28.07.56.09.84a6.3,6.3,0,0,1,0,.75,16.6,16.6,0,0,1,0,2.44,20.16,20.16,0,0,1-.4,2.79,33.35,33.35,0,0,1-3,8.48L537.35,138c-.31.65-.66,1.27-1,1.9-.16.31-.33.61-.52.91-.31.54-.65,1.08-1,1.6s-.63.92-1,1.38a40.14,40.14,0,0,1-3.17,3.82v0l-1.17,1.17-1.2,1.13h0c-.47.42-.94.82-1.43,1.2-.26.21-.51.4-.77.59a.75.75,0,0,1-.14.12,2.14,2.14,0,0,1-.26.19l-.24.17a1.1,1.1,0,0,1-.14.09,2.91,2.91,0,0,1-.33.26c-.17.14-.37.26-.58.4l-.09.05c-.47.33-.94.66-1.45,1l-.94.58a.24.24,0,0,0-.1.05l-.44.26a1.27,1.27,0,0,0-.23.12c-.42.24-.84.47-1.26.68a.08.08,0,0,1-.07,0,9.93,9.93,0,0,1-1,.52c-.17.1-.37.19-.56.28s-.24.12-.37.16c-.52.26-1.06.51-1.62.73l-1.36.56-.4.14-.23.09c-.31.14-.65.24-1,.37l-.07,0c-.61.23-1.26.44-1.9.65-.91.3-1.85.56-2.81.8l-1.06.28c-.61.16-1.24.3-1.87.44-1.34.3-2.7.54-4.1.77-.72.12-1.41.23-2.15.31s-1.45.19-2.18.26l-1.38.14-1.61.14c-.1,0-.23,0-.33,0h-.09c-.66,0-1.33.09-2,.12l-1.48.07-1.73.07h-.26c-.42,0-.85,0-1.29,0s-1.05,0-1.57,0h-35c-1.4,0-2.76,0-4.08-.1-1,0-2-.1-3-.19h0c-.51,0-1-.09-1.52-.16-1-.1-1.95-.23-2.88-.38l-.14,0-1.12-.21a.34.34,0,0,1-.14,0,5.82,5.82,0,0,1-.79-.16c-.37-.07-.72-.14-1.06-.23l-.1,0-.75-.17c-.45-.12-.91-.23-1.34-.37a14.51,14.51,0,0,1-1.41-.42c-.42-.14-.84-.28-1.24-.44s-.8-.3-1.2-.47h0c-.44-.16-.87-.35-1.27-.54l-.3-.14-.23-.1a8,8,0,0,1-.82-.42h0l-.26-.14-.45-.26-.09-.05-.05,0-.38-.23-.09-.05s0,0-.05,0a1.16,1.16,0,0,1-.24-.14.3.3,0,0,1-.1-.07c-.35-.21-.7-.44-1-.66l-.14-.1c-.42-.3-.8-.59-1.19-.89l-.07-.05a.61.61,0,0,0-.16-.12c-.35-.3-.7-.59-1-.91s-.77-.73-1.13-1.13a5.37,5.37,0,0,1-.44-.51c-.14-.16-.28-.31-.4-.47s-.14-.16-.19-.24a.31.31,0,0,1-.07-.09c-.17-.21-.35-.44-.51-.66s-.45-.68-.66-1-.42-.7-.59-1.06-.45-1-.66-1.45c-.1-.24-.19-.49-.28-.73s-.16-.51-.23-.77-.19-.7-.26-1.06-.12-.61-.17-.91a15,15,0,0,1-.19-1.66,20,20,0,0,1,.31-4.88,4.15,4.15,0,0,1,.1-.56,14.47,14.47,0,0,1,.42-1.76c.09-.3.17-.61.26-.91l60.08-20-8.7,17.29c-1.26,2.34-1.31,4.22-.12,5.65s3.21,2.13,6.11,2.13h3.26c3.44,0,6.07-.51,7.87-1.55.23-.14.45-.28.68-.44a8.76,8.76,0,0,0,1.29-1.12c.21-.21.42-.45.61-.68a4.21,4.21,0,0,0,.4-.52,1.2,1.2,0,0,0,.21-.26l.07-.1,0,0,.26-.37a1,1,0,0,0,.12-.19.88.88,0,0,0,.12-.17,4.86,4.86,0,0,0,.33-.54l.16-.26c.21-.37.42-.75.63-1.15l6-12.05c1.46-2.84,1.78-5,1-6.51s-2.86-2.9-6.12-4.19l-23.62-7.38q-29.32-9.92-17.39-33.63l8.15-15.94c.16-.31.31-.63.49-.92.24-.45.49-.89.75-1.33.14-.24.28-.49.44-.73.59-1,1.22-1.9,1.87-2.79l.63-.84s.09-.1.12-.16a.61.61,0,0,0,.12-.16l.14-.17c.17-.23.35-.44.54-.65s.52-.63.78-.92.58-.63.87-.94c.52-.56,1.06-1.08,1.62-1.6a3.59,3.59,0,0,1,.4-.38l1.13-1,.68-.56c.54-.45,1.12-.89,1.69-1.29l.68-.49c.26-.17.52-.37.78-.54.47-.31.94-.61,1.43-.91a1.27,1.27,0,0,1,.23-.12c.47-.3.94-.56,1.43-.82.24-.14.49-.28.73-.4.72-.38,1.45-.75,2.2-1.08s1.47-.66,2.22-1c.44-.17.86-.35,1.31-.51l1.33-.49c.3-.1.59-.21.91-.3.77-.26,1.55-.51,2.34-.73l.28-.07c.94-.26,1.88-.51,2.84-.72l.91-.21,1.66-.35c.14,0,.3-.05.45-.09.66-.12,1.34-.23,2-.33.49-.09,1-.16,1.5-.23.82-.12,1.66-.23,2.51-.31l1.4-.14c.87-.09,1.76-.16,2.65-.23l2.74-.14a.22.22,0,0,1,.16,0h0c.49,0,1-.05,1.47-.05,1,0,2.08-.05,3.14-.05h34.5q20.91,0,29.6,9.23c4.6,4.9,5.9,10.87,3.85,17.93L519.44,74.46h0l8.15-15.75Z"/><path class="cls-2" d="M579.05,66.29l-18.23,35.93a28.23,28.23,0,0,0-1.76-6.3c-2.93-7.08-8.76-12.84-17.39-17.16Z"/><path class="cls-2" d="M583.69,176.74v0c-.24-.24-.51-.47-.78-.7a7.47,7.47,0,0,0-.85-.63c-.31-.19-.63-.38-1-.56s-.68-.33-1.05-.49a14.66,14.66,0,0,0-1.62-.56l-.77-.21-.7-.16c-.3-.07-.61-.12-.94-.17s-.77-.12-1.17-.17a9,9,0,0,0-1-.1l-.82-.07c-.78-.05-1.61-.07-2.46-.07H537.13l-29.86,55.28h22.36l10.64-19.66h5.09l-3.51,19.66h22.49l1.33-20.72q8.48-2.12,12-8.62l6.54-12q3.38-6.18-.49-10.07Zm-21.64,9.5-4.95,9.11a7.75,7.75,0,0,1-.45.82,4.83,4.83,0,0,1-.51.68v0a2.62,2.62,0,0,1-.28.3,2.84,2.84,0,0,1-.26.24,4.14,4.14,0,0,1-.61.42,7.43,7.43,0,0,1-3.45.7h-5.91l8.46-15.61h5.32a3.88,3.88,0,0,1,2.56.68,2.08,2.08,0,0,1,.21.21c.49.59.45,1.41-.12,2.44Z"/><polygon class="cls-2" points="647.7 79.21 627.34 161.7 605.81 161.7 647.7 79.21"/><polygon class="cls-2" points="660.62 29.16 593.53 161.34 543.28 161.34 601.24 47.17 598.98 41.79 593.6 29.16 660.62 29.16"/><path class="cls-2" d="M706.43,181.17c0,.23,0,.47,0,.72a5.71,5.71,0,0,1-.14.79,6,6,0,0,1-.17.77c-.07.26-.17.52-.26.8s-.26.66-.42,1-.33.68-.52,1l-5.34,9.66H677.43L683,185.67a2.05,2.05,0,0,0,.12-2.39,3.21,3.21,0,0,0-2.67-.94h-.85a7.15,7.15,0,0,0-3.51.7c-.1.05-.19.12-.3.19s-.38.3-.58.47-.23.24-.33.38a2.36,2.36,0,0,0-.33.42c-.21.3-.42.65-.63,1l-16.2,29.76a2,2,0,0,0,0,2.39,3.36,3.36,0,0,0,2.72.94h.85a5.24,5.24,0,0,0,.56,0,7.27,7.27,0,0,0,1-.09,3.25,3.25,0,0,0,.45-.07,4.29,4.29,0,0,0,1-.31l.4-.21a6.93,6.93,0,0,0,2.25-2.56L672.56,205h22l-7.13,13.33a17.58,17.58,0,0,1-1.57,2.42,8.93,8.93,0,0,1-.7.82l0,0a2.4,2.4,0,0,1-.21.23,17.91,17.91,0,0,1-2.13,1.94,19.24,19.24,0,0,1-2.49,1.6,22.24,22.24,0,0,1-2.88,1.29c-.51.19-1,.37-1.57.52s-1.08.3-1.66.44l-.38.09c-.3.07-.59.12-.89.17s-.42.09-.63.12a.76.76,0,0,1-.16,0l-.26,0a1.45,1.45,0,0,1-.3,0c-.31.07-.65.12-1,.16h0l-1.47.16c-.35,0-.68.07-1.05.09h0c-.56.05-1.13.07-1.73.09s-1.22,0-1.83,0h-15c-.38,0-.77,0-1.15,0-.77,0-1.48,0-2.18-.12l-1-.1c-.66-.09-1.31-.17-1.92-.31a2.85,2.85,0,0,1-.44-.09l-.44-.1h-.07a9.46,9.46,0,0,1-.91-.26c-.24-.07-.49-.14-.72-.23s-.52-.17-.77-.28-.49-.21-.72-.33a3.25,3.25,0,0,1-.52-.28l-.14-.07a5.19,5.19,0,0,1-.65-.37,10.32,10.32,0,0,1-1-.7,8.12,8.12,0,0,1-.7-.63c-2.58-2.6-2.74-6-.49-10.08l17.29-32.11q5.58-10.31,23.1-10.33h15a23.57,23.57,0,0,1,10.1,1.83l.61.31c.17.1.35.19.51.3a6.56,6.56,0,0,1,.91.61.59.59,0,0,1,.16.1,4.18,4.18,0,0,1,.56.49l.07.05a2.94,2.94,0,0,1,.31.3,6.87,6.87,0,0,1,.58.63c.17.23.33.45.47.68a5.18,5.18,0,0,1,.4.73s0,.09,0,.12a5.93,5.93,0,0,1,.26.63,7.11,7.11,0,0,1,.28,1,8.16,8.16,0,0,1,.09,1.1Z"/><polygon class="cls-2" points="742.12 172.83 712.24 228.11 689.87 228.11 719.74 172.83 742.12 172.83"/><polygon class="cls-2" points="796 51.42 740.01 161.7 710.54 161.7 796 51.42"/><polygon class="cls-2" points="799.16 29.16 696.76 161.34 638.89 161.34 671.49 29.16 723.92 29.16 697.29 113.91 697.31 113.89 756.79 29.16 799.16 29.16"/><polygon class="cls-2" points="804.27 172.83 774.39 228.11 750.33 228.11 753.72 197.46 737.15 228.11 720.94 228.11 750.82 172.83 774.88 172.83 771.49 203.48 788.06 172.83 804.27 172.83"/><path class="cls-2" d="M861.07,182.25c0,.21-.07.42-.12.65s-.1.44-.17.66a13.64,13.64,0,0,1-1.12,2.69l-4,7.48H833.29l4.36-8.06c.56-1,.59-1.78.05-2.39a3.34,3.34,0,0,0-2.7-.94h-1.34a7.09,7.09,0,0,0-3.44.7,2.59,2.59,0,0,0-.31.19c-.21.14-.4.3-.61.47s-.23.24-.35.38a2.36,2.36,0,0,0-.33.42,3.28,3.28,0,0,0-.33.47c-.1.17-.21.35-.31.54L811.9,215.27a1.94,1.94,0,0,0,0,2.39,3.36,3.36,0,0,0,2.72.94h2.65c.38,0,.77,0,1.1,0a7.62,7.62,0,0,0,1.78-.33,6.38,6.38,0,0,0,.7-.28,5.7,5.7,0,0,0,2.23-2.44v0l4.22-7.87h0v0H821l1.57-2.93,3.37-6.33H853l-9.79,18.14c-2.34,4.43-5.35,7.59-9.07,9.42-.47.23-1,.45-1.47.65a14.86,14.86,0,0,1-1.59.56c-.56.17-1.13.33-1.73.49h0c-.59.14-1.22.26-1.87.38s-1.31.21-2,.3q-.57.08-1.17.12c-.31,0-.65.07-1,.09q-1,.08-2,.12a.9.9,0,0,1-.23,0c-.78,0-1.59,0-2.41,0h-15c-.38,0-.77,0-1.15,0-.77,0-1.48-.05-2.18-.12l-1-.1c-.68-.09-1.33-.17-1.94-.31-.3-.05-.58-.12-.85-.19h-.07a9.46,9.46,0,0,1-.91-.26c-.24-.07-.49-.14-.72-.23s-.52-.17-.77-.28a13,13,0,0,1-2-1,10.32,10.32,0,0,1-1-.7,8.12,8.12,0,0,1-.7-.63,7.16,7.16,0,0,1-.59-.66c-.09-.1-.17-.23-.26-.35a5.5,5.5,0,0,1-.4-.63,7.71,7.71,0,0,1-.51-1.2,4.05,4.05,0,0,1-.12-.47c0-.12-.05-.23-.07-.33s0,0,0,0,0-.28,0-.44,0-.42,0-.65a11,11,0,0,1,1.59-5.3l17.29-32.11q5.58-10.31,23.1-10.33h15.59c1.17,0,2.25.05,3.3.14l1.43.16a.74.74,0,0,0,.17,0c.45.07.89.14,1.33.23.75.16,1.47.33,2.13.54l.17.07c.28.1.54.19.8.3s.61.26.91.4a7,7,0,0,1,.89.49.24.24,0,0,1,.1,0s0,0,.07.05a8.75,8.75,0,0,1,.84.56,13.29,13.29,0,0,1,1,.92c.19.21.38.4.54.61s.21.26.31.4.3.45.42.68a3.81,3.81,0,0,1,.23.45c.07.16.14.31.19.45s.1.33.16.49a3.51,3.51,0,0,1,.12.49,7.33,7.33,0,0,1,.05,2.48Z"/><polygon class="cls-2" points="857.25 54.23 843.4 81.46 886.85 81.46 874.36 106.32 830.91 106.32 830.91 106.34 815.69 136.08 868.39 136.08 855.9 161.34 752.67 161.34 810.76 46.91 803.08 29.16 917.27 29.16 904.78 54.23 857.25 54.23"/><path class="cls-2" d="M560.63,6.91a93,93,0,0,0-16.26-1.34h-34.5a117.4,117.4,0,0,0-21.93,1.92l.28-.58H61.78l17,39.25L9,183.58H271l3.3-6.45c9.26,5.2,21,7.83,35.06,7.83H345c24.65,0,44-6.18,57.6-18.39.49.61,1,1.2,1.55,1.78,10.15,11,25.71,16.61,46.23,16.61h35a120.64,120.64,0,0,0,20.79-1.69L470,250.36H641.37a55.2,55.2,0,0,0,8.09.58h15a67.66,67.66,0,0,0,9-.58H787.65l.85-1.59a50,50,0,0,0,15.14,2.16h15c10.19,0,18.47-1.66,25.38-5.09A42.63,42.63,0,0,0,862.79,227l6-11H869l10.26-19.22c.4-.73.77-1.5,1.12-2.27l9.93-18.37h-7.38a29.09,29.09,0,0,0-4.2-10.75l25.48-51.55h-8.7l18.75-37.35h4.31L953.21,6.91H560.63Zm351,58.45h-47.6l-2.51,5h43.35l-23.67,47.12H837.72L833.9,125h52.4l-20.81,42.11c.52.44,1,.87,1.5,1.34a18.18,18.18,0,0,1,4.29,18.82h.38l-1.26,2.36c-.28.63-.59,1.27-.94,1.92l-7.12,13.36h-.21L853,221.73c-3.44,6.51-8.11,11.27-13.92,14.15-5.32,2.65-12,3.92-20.43,3.92h-15c-8.43,0-15-2-19.75-5.9L781,239.24H672.74a56.91,56.91,0,0,1-8.27.56h-15a36,36,0,0,1-14.3-2.58l-.47,2H488.63L530,162.63c-11.15,7.43-26,11.2-44.59,11.2h-35c-17.29,0-30.09-4.38-38-13a28.24,28.24,0,0,1-7.24-14.69c-.38.66-.77,1.31-1.19,1.94-11.13,17.09-31,25.76-58.91,25.76H309.41c-17.29,0-30.09-4.38-38.06-13-.23-.26-.47-.54-.73-.82l-6.37,12.47H27.17L91.1,46.53,78.73,18H470.11l-5.23,10.33c11.22-7.75,26.24-11.69,45-11.69h34.5c16.54,0,29,4.05,37,12L576.82,18H739.08l-9.66,30.75L751,18H935.26L911.68,65.36Z"/><polygon class="cls-3" points="172.97 117.45 169.16 124.95 126.5 124.95 130.32 117.45 172.97 117.45"/><polygon class="cls-3" points="199.43 65.36 196.9 70.33 154.16 70.33 156.69 65.36 199.43 65.36"/><polygon class="cls-3" points="149.87 54.23 136.02 81.46 179.47 81.46 166.98 106.32 123.51 106.32 123.51 106.34 108.3 136.08 161 136.08 148.51 161.34 45.3 161.34 103.38 46.89 95.69 29.16 209.9 29.16 197.41 54.23 149.87 54.23"/><polygon class="cls-3" points="226.75 135.29 270.76 135.29 257.43 161.34 163.16 161.34 221.27 46.91 213.59 29.16 280.52 29.16 226.75 135.29"/><path class="cls-3" d="M308.19,46.47l-39.61,77.66s0,0,0,0H244.86L297.16,21l11,25.5Z"/><path class="cls-3" d="M452,29.16,396.87,138a42.5,42.5,0,0,1-2.28,4Q381.09,162.7,345,162.69H309.41q-21.2,0-29.88-9.42t-1.1-24l42.06-82.42-7.68-17.69h66.95L328.14,130.61a8,8,0,0,0-.73,1.73,5.14,5.14,0,0,0-.24,1.55,3.8,3.8,0,0,0,.86,2.46,4.06,4.06,0,0,0,.49.52.53.53,0,0,0,.12.1,2.06,2.06,0,0,0,.42.35,2,2,0,0,0,.24.16,1.77,1.77,0,0,0,.33.19h0a7.53,7.53,0,0,0,1,.42,11.24,11.24,0,0,0,1.27.31,10.19,10.19,0,0,0,1.29.14h0c.3,0,.61,0,.92,0h3a23.62,23.62,0,0,0,4.55-.4,12.11,12.11,0,0,0,1.81-.52,8.92,8.92,0,0,0,1.52-.73l.51-.33.16-.12a9.24,9.24,0,0,0,1.32-1.15c.23-.23.44-.45.65-.7a.52.52,0,0,0,.16-.17l.09-.1c.14-.16.26-.31.4-.49s.44-.56.65-.87l.63-1,.61-1L402,29.17h50Z"/><path class="cls-3" d="M456.48,109.61l-39.39,13.14,18.8-37.16a26.8,26.8,0,0,0,1.69,6c3.07,7.5,9.4,13.54,18.89,18Z"/><path class="cls-3" d="M527.53,58.7a6.62,6.62,0,0,0,.92-4.05,1.1,1.1,0,0,0,0-.16,1.51,1.51,0,0,0-.1-.38.06.06,0,0,0,0,0,.61.61,0,0,0-.07-.17.67.67,0,0,0-.1-.21.46.46,0,0,0-.09-.17.36.36,0,0,1,0-.07,3.72,3.72,0,0,0-.33-.45q-1.75-2-6.38-2h-2.7a17,17,0,0,0-8,1.55c-1.9,1-3.58,3-5,5.83l-4.62,9.33c-1.27,2.74-1.53,4.87-.82,6.42s2.72,3,6,4.27l23.36,7.38,0,0c.65.21,1.27.44,1.88.66l.61.23,1.19.47c.38.14.77.3,1.13.45l.49.23.28.12a2.53,2.53,0,0,1,.33.16,3.62,3.62,0,0,1,.4.19l.68.31a3.37,3.37,0,0,0,.38.19l.63.33a3,3,0,0,1,.35.19c.24.12.49.24.72.38s.59.33.87.51c.45.28.91.56,1.34.85.14.09.28.17.42.28l.84.59c.8.61,1.55,1.22,2.23,1.85l.66.66c.21.21.42.44.61.65s.35.38.51.58a2.93,2.93,0,0,1,.38.49q.35.42.63.84c.21.28.38.58.58.87v0c.23.37.44.73.63,1.1a11.38,11.38,0,0,1,.52,1.12,19.22,19.22,0,0,1,.79,2.36c.14.54.24,1.08.33,1.64,0,.28.07.56.09.84a6.3,6.3,0,0,1,0,.75,16.6,16.6,0,0,1,0,2.44,20.16,20.16,0,0,1-.4,2.79,33.35,33.35,0,0,1-3,8.48L537.35,138c-.31.65-.66,1.27-1,1.9-.16.31-.33.61-.52.91-.31.54-.65,1.08-1,1.6s-.63.92-1,1.38a40.14,40.14,0,0,1-3.17,3.82v0l-1.17,1.17-1.2,1.13h0c-.47.42-.94.82-1.43,1.2-.26.21-.51.4-.77.59a.75.75,0,0,1-.14.12,2.14,2.14,0,0,1-.26.19l-.24.17a1.1,1.1,0,0,1-.14.09,2.91,2.91,0,0,1-.33.26c-.17.14-.37.26-.58.4l-.09.05c-.47.33-.94.66-1.45,1l-.94.58a.24.24,0,0,0-.1.05l-.44.26a1.27,1.27,0,0,0-.23.12c-.42.24-.84.47-1.26.68a.08.08,0,0,1-.07,0,9.93,9.93,0,0,1-1,.52c-.17.1-.37.19-.56.28s-.24.12-.37.16c-.52.26-1.06.51-1.62.73l-1.36.56-.4.14-.23.09c-.31.14-.65.24-1,.37l-.07,0c-.61.23-1.26.44-1.9.65-.91.3-1.85.56-2.81.8l-1.06.28c-.61.16-1.24.3-1.87.44-1.34.3-2.7.54-4.1.77-.72.12-1.41.23-2.15.31s-1.45.19-2.18.26l-1.38.14-1.61.14c-.1,0-.23,0-.33,0h-.09c-.66,0-1.33.09-2,.12l-1.48.07-1.73.07h-.26c-.42,0-.85,0-1.29,0s-1.05,0-1.57,0h-35c-1.4,0-2.76,0-4.08-.1-1,0-2-.1-3-.19h0c-.51,0-1-.09-1.52-.16-1-.1-1.95-.23-2.88-.38l-.14,0-1.12-.21a.34.34,0,0,1-.14,0,5.82,5.82,0,0,1-.79-.16c-.37-.07-.72-.14-1.06-.23l-.1,0-.75-.17c-.45-.12-.91-.23-1.34-.37a14.51,14.51,0,0,1-1.41-.42c-.42-.14-.84-.28-1.24-.44s-.8-.3-1.2-.47h0c-.44-.16-.87-.35-1.27-.54l-.3-.14-.23-.1a8,8,0,0,1-.82-.42h0l-.26-.14-.45-.26-.09-.05-.05,0-.38-.23-.09-.05s0,0-.05,0a1.16,1.16,0,0,1-.24-.14.3.3,0,0,1-.1-.07c-.35-.21-.7-.44-1-.66l-.14-.1c-.42-.3-.8-.59-1.19-.89l-.07-.05a.61.61,0,0,0-.16-.12c-.35-.3-.7-.59-1-.91s-.77-.73-1.13-1.13a5.37,5.37,0,0,1-.44-.51c-.14-.16-.28-.31-.4-.47s-.14-.16-.19-.24a.31.31,0,0,1-.07-.09c-.17-.21-.35-.44-.51-.66s-.45-.68-.66-1-.42-.7-.59-1.06-.45-1-.66-1.45c-.1-.24-.19-.49-.28-.73s-.16-.51-.23-.77-.19-.7-.26-1.06-.12-.61-.17-.91a15,15,0,0,1-.19-1.66,20,20,0,0,1,.31-4.88,4.15,4.15,0,0,1,.1-.56,14.47,14.47,0,0,1,.42-1.76c.09-.3.17-.61.26-.91l60.08-20-8.7,17.29c-1.26,2.34-1.31,4.22-.12,5.65s3.21,2.13,6.11,2.13h3.26c3.44,0,6.07-.51,7.87-1.55.23-.14.45-.28.68-.44a8.76,8.76,0,0,0,1.29-1.12c.21-.21.42-.45.61-.68a4.21,4.21,0,0,0,.4-.52,1.2,1.2,0,0,0,.21-.26l.07-.1,0,0,.26-.37a1,1,0,0,0,.12-.19.88.88,0,0,0,.12-.17,4.86,4.86,0,0,0,.33-.54l.16-.26c.21-.37.42-.75.63-1.15l6-12.05c1.46-2.84,1.78-5,1-6.51s-2.86-2.9-6.12-4.19l-23.62-7.38q-29.32-9.92-17.39-33.63l8.15-15.94c.16-.31.31-.63.49-.92.24-.45.49-.89.75-1.33.14-.24.28-.49.44-.73.59-1,1.22-1.9,1.87-2.79l.63-.84s.09-.1.12-.16a.61.61,0,0,0,.12-.16l.14-.17c.17-.23.35-.44.54-.65s.52-.63.78-.92.58-.63.87-.94c.52-.56,1.06-1.08,1.62-1.6a3.59,3.59,0,0,1,.4-.38l1.13-1,.68-.56c.54-.45,1.12-.89,1.69-1.29l.68-.49c.26-.17.52-.37.78-.54.47-.31.94-.61,1.43-.91a1.27,1.27,0,0,1,.23-.12c.47-.3.94-.56,1.43-.82.24-.14.49-.28.73-.4.72-.38,1.45-.75,2.2-1.08s1.47-.66,2.22-1c.44-.17.86-.35,1.31-.51l1.33-.49c.3-.1.59-.21.91-.3.77-.26,1.55-.51,2.34-.73l.28-.07c.94-.26,1.88-.51,2.84-.72l.91-.21,1.66-.35c.14,0,.3-.05.45-.09.66-.12,1.34-.23,2-.33.49-.09,1-.16,1.5-.23.82-.12,1.66-.23,2.51-.31l1.4-.14c.87-.09,1.76-.16,2.65-.23l2.74-.14a.22.22,0,0,1,.16,0h0c.49,0,1-.05,1.47-.05,1,0,2.08-.05,3.14-.05h34.5q20.91,0,29.6,9.23c4.6,4.9,5.9,10.87,3.85,17.93L519.44,74.46h0l8.15-15.75Z"/><path class="cls-3" d="M579.05,66.29l-18.23,35.93a28.23,28.23,0,0,0-1.76-6.3c-2.93-7.08-8.76-12.84-17.39-17.16Z"/><path class="cls-3" d="M583.69,176.74v0c-.24-.24-.51-.47-.78-.7a7.47,7.47,0,0,0-.85-.63c-.31-.19-.63-.38-1-.56s-.68-.33-1.05-.49a14.66,14.66,0,0,0-1.62-.56l-.77-.21-.7-.16c-.3-.07-.61-.12-.94-.17s-.77-.12-1.17-.17a9,9,0,0,0-1-.1l-.82-.07c-.78-.05-1.61-.07-2.46-.07H537.13l-29.86,55.28h22.36l10.64-19.66h5.09l-3.51,19.66h22.49l1.33-20.72q8.48-2.12,12-8.62l6.54-12q3.38-6.18-.49-10.07Zm-21.64,9.5-4.95,9.11a7.75,7.75,0,0,1-.45.82,4.83,4.83,0,0,1-.51.68v0a2.62,2.62,0,0,1-.28.3,2.84,2.84,0,0,1-.26.24,4.14,4.14,0,0,1-.61.42,7.43,7.43,0,0,1-3.45.7h-5.91l8.46-15.61h5.32a3.88,3.88,0,0,1,2.56.68,2.08,2.08,0,0,1,.21.21c.49.59.45,1.41-.12,2.44Z"/><polygon class="cls-3" points="647.7 79.21 627.34 161.7 605.81 161.7 647.7 79.21"/><polygon class="cls-3" points="660.62 29.16 593.53 161.34 543.28 161.34 601.24 47.17 598.98 41.79 593.6 29.16 660.62 29.16"/><path class="cls-3" d="M706.43,181.17c0,.23,0,.47,0,.72a5.71,5.71,0,0,1-.14.79,6,6,0,0,1-.17.77c-.07.26-.17.52-.26.8s-.26.66-.42,1-.33.68-.52,1l-5.34,9.66H677.43L683,185.67a2.05,2.05,0,0,0,.12-2.39,3.21,3.21,0,0,0-2.67-.94h-.85a7.15,7.15,0,0,0-3.51.7c-.1.05-.19.12-.3.19s-.38.3-.58.47-.23.24-.33.38a2.36,2.36,0,0,0-.33.42c-.21.3-.42.65-.63,1l-16.2,29.76a2,2,0,0,0,0,2.39,3.36,3.36,0,0,0,2.72.94h.85a5.24,5.24,0,0,0,.56,0,7.27,7.27,0,0,0,1-.09,3.25,3.25,0,0,0,.45-.07,4.29,4.29,0,0,0,1-.31l.4-.21a6.93,6.93,0,0,0,2.25-2.56L672.56,205h22l-7.13,13.33a17.58,17.58,0,0,1-1.57,2.42,8.93,8.93,0,0,1-.7.82l0,0a2.4,2.4,0,0,1-.21.23,17.91,17.91,0,0,1-2.13,1.94,19.24,19.24,0,0,1-2.49,1.6,22.24,22.24,0,0,1-2.88,1.29c-.51.19-1,.37-1.57.52s-1.08.3-1.66.44l-.38.09c-.3.07-.59.12-.89.17s-.42.09-.63.12a.76.76,0,0,1-.16,0l-.26,0a1.45,1.45,0,0,1-.3,0c-.31.07-.65.12-1,.16h0l-1.47.16c-.35,0-.68.07-1.05.09h0c-.56.05-1.13.07-1.73.09s-1.22,0-1.83,0h-15c-.38,0-.77,0-1.15,0-.77,0-1.48,0-2.18-.12l-1-.1c-.66-.09-1.31-.17-1.92-.31a2.85,2.85,0,0,1-.44-.09l-.44-.1h-.07a9.46,9.46,0,0,1-.91-.26c-.24-.07-.49-.14-.72-.23s-.52-.17-.77-.28-.49-.21-.72-.33a3.25,3.25,0,0,1-.52-.28l-.14-.07a5.19,5.19,0,0,1-.65-.37,10.32,10.32,0,0,1-1-.7,8.12,8.12,0,0,1-.7-.63c-2.58-2.6-2.74-6-.49-10.08l17.29-32.11q5.58-10.31,23.1-10.33h15a23.57,23.57,0,0,1,10.1,1.83l.61.31c.17.1.35.19.51.3a6.56,6.56,0,0,1,.91.61.59.59,0,0,1,.16.1,4.18,4.18,0,0,1,.56.49l.07.05a2.94,2.94,0,0,1,.31.3,6.87,6.87,0,0,1,.58.63c.17.23.33.45.47.68a5.18,5.18,0,0,1,.4.73s0,.09,0,.12a5.93,5.93,0,0,1,.26.63,7.11,7.11,0,0,1,.28,1,8.16,8.16,0,0,1,.09,1.1Z"/><polygon class="cls-3" points="742.12 172.83 712.24 228.11 689.87 228.11 719.74 172.83 742.12 172.83"/><polygon class="cls-3" points="796 51.42 740.01 161.7 710.54 161.7 796 51.42"/><polygon class="cls-3" points="799.16 29.16 696.76 161.34 638.89 161.34 671.49 29.16 723.92 29.16 697.29 113.91 697.31 113.89 756.79 29.16 799.16 29.16"/><polygon class="cls-3" points="804.27 172.83 774.39 228.11 750.33 228.11 753.72 197.46 737.15 228.11 720.94 228.11 750.82 172.83 774.88 172.83 771.49 203.48 788.06 172.83 804.27 172.83"/><path class="cls-3" d="M861.07,182.25c0,.21-.07.42-.12.65s-.1.44-.17.66a13.64,13.64,0,0,1-1.12,2.69l-4,7.48H833.29l4.36-8.06c.56-1,.59-1.78.05-2.39a3.34,3.34,0,0,0-2.7-.94h-1.34a7.09,7.09,0,0,0-3.44.7,2.59,2.59,0,0,0-.31.19c-.21.14-.4.3-.61.47s-.23.24-.35.38a2.36,2.36,0,0,0-.33.42,3.28,3.28,0,0,0-.33.47c-.1.17-.21.35-.31.54L811.9,215.27a1.94,1.94,0,0,0,0,2.39,3.36,3.36,0,0,0,2.72.94h2.65c.38,0,.77,0,1.1,0a7.62,7.62,0,0,0,1.78-.33,6.38,6.38,0,0,0,.7-.28,5.7,5.7,0,0,0,2.23-2.44v0l4.22-7.87h0v0H821l1.57-2.93,3.37-6.33H853l-9.79,18.14c-2.34,4.43-5.35,7.59-9.07,9.42-.47.23-1,.45-1.47.65a14.86,14.86,0,0,1-1.59.56c-.56.17-1.13.33-1.73.49h0c-.59.14-1.22.26-1.87.38s-1.31.21-2,.3q-.57.08-1.17.12c-.31,0-.65.07-1,.09q-1,.08-2,.12a.9.9,0,0,1-.23,0c-.78,0-1.59,0-2.41,0h-15c-.38,0-.77,0-1.15,0-.77,0-1.48-.05-2.18-.12l-1-.1c-.68-.09-1.33-.17-1.94-.31-.3-.05-.58-.12-.85-.19h-.07a9.46,9.46,0,0,1-.91-.26c-.24-.07-.49-.14-.72-.23s-.52-.17-.77-.28a13,13,0,0,1-2-1,10.32,10.32,0,0,1-1-.7,8.12,8.12,0,0,1-.7-.63,7.16,7.16,0,0,1-.59-.66c-.09-.1-.17-.23-.26-.35a5.5,5.5,0,0,1-.4-.63,7.71,7.71,0,0,1-.51-1.2,4.05,4.05,0,0,1-.12-.47c0-.12-.05-.23-.07-.33s0,0,0,0,0-.28,0-.44,0-.42,0-.65a11,11,0,0,1,1.59-5.3l17.29-32.11q5.58-10.31,23.1-10.33h15.59c1.17,0,2.25.05,3.3.14l1.43.16a.74.74,0,0,0,.17,0c.45.07.89.14,1.33.23.75.16,1.47.33,2.13.54l.17.07c.28.1.54.19.8.3s.61.26.91.4a7,7,0,0,1,.89.49.24.24,0,0,1,.1,0s0,0,.07.05a8.75,8.75,0,0,1,.84.56,13.29,13.29,0,0,1,1,.92c.19.21.38.4.54.61s.21.26.31.4.3.45.42.68a3.81,3.81,0,0,1,.23.45c.07.16.14.31.19.45s.1.33.16.49a3.51,3.51,0,0,1,.12.49,7.33,7.33,0,0,1,.05,2.48Z"/><polygon class="cls-3" points="857.25 54.23 843.4 81.46 886.85 81.46 874.36 106.32 830.91 106.32 830.91 106.34 815.69 136.08 868.39 136.08 855.9 161.34 752.67 161.34 810.76 46.91 803.08 29.16 917.27 29.16 904.78 54.23 857.25 54.23"/><path class="cls-3" d="M560.63,6.91a93,93,0,0,0-16.26-1.34h-34.5a117.4,117.4,0,0,0-21.93,1.92l.28-.58H61.78l17,39.25L9,183.58H271l3.3-6.45c9.26,5.2,21,7.83,35.06,7.83H345c24.65,0,44-6.18,57.6-18.39.49.61,1,1.2,1.55,1.78,10.15,11,25.71,16.61,46.23,16.61h35a120.64,120.64,0,0,0,20.79-1.69L470,250.36H641.37a55.2,55.2,0,0,0,8.09.58h15a67.66,67.66,0,0,0,9-.58H787.65l.85-1.59a50,50,0,0,0,15.14,2.16h15c10.19,0,18.47-1.66,25.38-5.09A42.63,42.63,0,0,0,862.79,227l6-11,10.5-19.22c.4-.73.77-1.5,1.12-2.27l9.93-18.37h-7.38a29.09,29.09,0,0,0-4.2-10.75l25.48-51.55h-8.7l18.75-37.35h4.31L953.21,6.91H560.63Zm351,58.45h-47.6l-2.51,5h43.35l-23.67,47.12H837.72L833.9,125h52.4l-20.81,42.11c.52.44,1,.87,1.5,1.34a18.18,18.18,0,0,1,4.29,18.82l-.87,2.36c-.28.63-.59,1.27-.94,1.92l-7.33,13.36h0L853,221.73c-3.44,6.51-8.11,11.27-13.92,14.15-5.32,2.65-12,3.92-20.43,3.92h-15c-8.43,0-15-2-19.75-5.9L781,239.24H672.75a56.91,56.91,0,0,1-8.27.56h-15a36,36,0,0,1-14.3-2.58l-.47,2H488.64L530,162.63c-11.15,7.43-26,11.2-44.59,11.2h-35c-17.29,0-30.09-4.38-38-13a28.24,28.24,0,0,1-7.24-14.69c-.38.66-.77,1.31-1.19,1.94-11.13,17.09-31,25.76-58.91,25.76H309.42c-17.29,0-30.09-4.38-38.06-13-.23-.26-.47-.54-.73-.82l-6.37,12.47H27.17L91.1,46.53,78.73,18H470.11l-5.23,10.33c11.22-7.75,26.24-11.69,45-11.69h34.5c16.54,0,29,4.05,37,12L576.82,18H739.08l-9.66,30.75L751,18H935.26L911.68,65.36Z"/><path class="cls-3" d="M197.41,54.23,209.9,29.16H95.7l7.69,17.72L45.3,161.33H148.51L161,136.07H108.3l15.21-29.74v0H167l12.49-24.86H136l13.85-27.23h47.54Zm83.11-25.07H213.59l7.68,17.74-58.1,114.43h94.27l13.33-26h-44L280.54,29.16Zm121.52,0L350.16,131c-.19.35-.4.68-.61,1s-.42.66-.63,1-.44.59-.65.87-.26.33-.4.49a.41.41,0,0,1-.09.1.43.43,0,0,1-.16.17,6,6,0,0,1-.65.7,7.75,7.75,0,0,1-.66.63,6.26,6.26,0,0,1-.66.52.61.61,0,0,1-.16.12c-.16.1-.33.23-.51.33a8.57,8.57,0,0,1-1.52.73,12.46,12.46,0,0,1-1.81.52,23.62,23.62,0,0,1-4.55.4h-3c-.28,0-.54,0-.8,0a.25.25,0,0,1-.12,0h0a10.19,10.19,0,0,1-1.29-.14,6.74,6.74,0,0,1-1.27-.31,7.53,7.53,0,0,1-1-.42h0a.22.22,0,0,0-.09,0,1.43,1.43,0,0,1-.24-.16.78.78,0,0,1-.24-.16,2.6,2.6,0,0,1-.42-.35l-.12-.1a6.11,6.11,0,0,1-.49-.52,3.8,3.8,0,0,1-.86-2.46,5.14,5.14,0,0,1,.24-1.55,8.82,8.82,0,0,1,.73-1.73L379.76,29.14H312.81l7.68,17.69-42.06,82.42q-7.59,14.58,1.1,24t29.88,9.42H345q36.08,0,49.59-20.72a40.37,40.37,0,0,0,2.28-4L452,29.14H402ZM519.38,74.45h0L577.84,55Q580.9,44.38,574,37q-8.68-9.21-29.6-9.23h-34.5c-1.06,0-2.11,0-3.14.05-.49,0-1,0-1.47.05h0a.22.22,0,0,0-.16,0c-.92,0-1.83.09-2.74.14s-1.78.14-2.65.23c-.47,0-.94.09-1.4.14-.85.09-1.69.19-2.51.31-.51.07-1,.14-1.5.23-.68.1-1.36.21-2,.33-.16,0-.31.05-.45.09l-1.66.35-.91.21c-1,.21-1.9.45-2.84.72l-.28.07c-.78.23-1.57.47-2.34.73-.31.09-.61.19-.91.3s-.89.31-1.33.49-.87.33-1.31.51c-.75.3-1.5.61-2.22,1s-1.48.7-2.2,1.08c-.24.12-.49.26-.73.4-.49.26-1,.52-1.43.82a1.27,1.27,0,0,0-.23.12c-.49.3-1,.59-1.43.91l-.78.54c-.23.16-.45.31-.68.49-.58.4-1.15.84-1.69,1.29-.23.17-.45.37-.68.56-.38.31-.77.65-1.13,1a3.59,3.59,0,0,0-.4.38c-.56.52-1.1,1.05-1.62,1.6-.3.31-.58.63-.87.94s-.33.4-.51.61-.19.21-.28.31-.17.23-.26.33-.28.31-.42.49l-.12.16c0,.05-.09.1-.12.16l-.63.84c-.65.89-1.27,1.83-1.87,2.79-.16.24-.3.49-.44.73-.26.44-.51.87-.75,1.33-.17.3-.33.61-.49.92l-8.15,15.94q-12,23.7,17.39,33.63l23.62,7.38c3.26,1.29,5.32,2.69,6.12,4.19s.51,3.66-1,6.51l-6,12c-.21.4-.42.78-.63,1.15l-.16.26a4.86,4.86,0,0,1-.33.54.88.88,0,0,1-.12.17,1,1,0,0,1-.12.19c0,.07-.09.12-.12.19l-.14.17,0,0a.3.3,0,0,1-.07.1,1.2,1.2,0,0,1-.21.26,3.57,3.57,0,0,1-.4.52,8,8,0,0,1-.61.68,9.39,9.39,0,0,1-1.29,1.12c-.23.16-.45.3-.68.44-1.8,1.05-4.43,1.55-7.87,1.55h-3.26c-2.9,0-4.94-.72-6.11-2.13s-1.13-3.31.12-5.65l8.7-17.29-60.08,20c-.09.3-.17.61-.26.91-.17.59-.31,1.19-.42,1.76a2.87,2.87,0,0,0-.1.56,19.55,19.55,0,0,0-.31,4.88,15,15,0,0,0,.19,1.66c.05.3.1.61.17.91s.16.72.26,1.06.16.52.23.77h0c.09.24.17.49.26.73.21.49.42,1,.66,1.45.14.24.26.47.4.72a3,3,0,0,0,.19.35,3.5,3.5,0,0,0,.23.35c.14.23.28.45.44.68a8.27,8.27,0,0,0,.51.66h0l.05.09a1.43,1.43,0,0,0,.19.24,2.68,2.68,0,0,0,.23.26l.17.21c.14.17.28.35.44.51.37.4.73.77,1.13,1.13s.68.61,1,.91l.16.12.07.05c.38.3.77.59,1.19.89l.14.1c.33.23.68.45,1,.66l.1.07.24.14s0,0,.05,0l.09.05.38.23.05,0,.09,0,.45.26.26.14h0a8,8,0,0,0,.82.42l.23.1.3.14c.4.19.84.38,1.27.54h0c.4.17.79.33,1.2.47s.82.3,1.24.44a14.51,14.51,0,0,0,1.41.42c.44.14.89.24,1.34.37l.75.17.1,0c.35.09.7.16,1.06.23a6.91,6.91,0,0,0,.79.16.34.34,0,0,0,.14,0l1.12.21.14,0c.92.16,1.88.28,2.88.38.49.07,1,.12,1.52.16h0c1,.09,1.95.16,3,.19,1.33.07,2.69.1,4.08.1h35c.52,0,1.05,0,1.57,0s.87,0,1.29,0h.26c.58,0,1.15,0,1.73-.07s1,0,1.48-.07c.66,0,1.33-.07,2-.12h.09c.1,0,.23,0,.33,0,.54,0,1.06-.09,1.61-.14s.92-.09,1.38-.14c.73-.07,1.46-.16,2.18-.26s1.43-.19,2.15-.31c1.4-.23,2.76-.47,4.1-.77.63-.14,1.26-.28,1.87-.44.35-.09.72-.17,1.06-.28,1-.24,1.9-.51,2.81-.8.65-.21,1.29-.42,1.9-.65l.07,0,.51-.17a3.57,3.57,0,0,0,.45-.19,1.09,1.09,0,0,0,.23-.09l.26-.1a.7.7,0,0,0,.14,0c.45-.17.91-.37,1.36-.56a2.19,2.19,0,0,0,.38-.17c.42-.17.84-.37,1.24-.56a2.3,2.3,0,0,0,.37-.16,5.85,5.85,0,0,0,.56-.28c.35-.16.7-.33,1-.52a.15.15,0,0,0,.07,0,7,7,0,0,0,.72-.37l.54-.31a1.27,1.27,0,0,1,.23-.12l.3-.19.14-.07a.24.24,0,0,1,.1,0l.77-.45.17-.12c.51-.3,1-.63,1.45-1l.09-.05a1.92,1.92,0,0,0,.26-.17,3.09,3.09,0,0,0,.31-.23,2.91,2.91,0,0,0,.33-.26.55.55,0,0,0,.14-.09,1.31,1.31,0,0,0,.24-.17,2.14,2.14,0,0,0,.26-.19c.19-.14.38-.3.58-.44l.33-.28c.49-.38,1-.78,1.43-1.2h0l1.2-1.13h0c.42-.4.78-.77,1.15-1.17v0c.78-.8,1.5-1.64,2.18-2.49.33-.44.66-.87,1-1.33s.65-.91,1-1.38.68-1.06,1-1.6a8.21,8.21,0,0,0,.52-.91c.35-.63.7-1.26,1-1.9l9.23-18.66a33.35,33.35,0,0,0,3-8.48,20.16,20.16,0,0,0,.4-2.79,16.62,16.62,0,0,0,0-2.44,6.3,6.3,0,0,0-.05-.75q0-.42-.09-.84c-.09-.56-.19-1.1-.33-1.64a18.16,18.16,0,0,0-.79-2.36c-.16-.38-.33-.75-.52-1.12s-.4-.73-.63-1.1v0c-.19-.3-.37-.59-.58-.87s-.4-.56-.63-.84a3.4,3.4,0,0,0-.38-.49l-.51-.58c-.19-.21-.4-.44-.61-.65l-.66-.66c-.68-.63-1.43-1.24-2.23-1.85l-.84-.59-.42-.28c-.44-.3-.89-.58-1.34-.85-.28-.17-.58-.33-.87-.51s-.47-.26-.72-.38a3,3,0,0,0-.35-.19q-.31-.18-.63-.33a3.37,3.37,0,0,1-.38-.19l-.68-.31a3.62,3.62,0,0,0-.4-.19l-.33-.16-.28-.12-.49-.21v0c-.37-.16-.75-.31-1.13-.45l-1.19-.47-.61-.23c-.61-.23-1.24-.45-1.88-.66l0,0-23.36-7.38c-3.26-1.29-5.25-2.72-6-4.27s-.45-3.68.82-6.42l4.62-9.33c1.45-2.84,3.12-4.8,5-5.83a17,17,0,0,1,8-1.55h2.7q4.63,0,6.38,2a4.71,4.71,0,0,1,.33.45s0,0,0,.07a.68.68,0,0,1,.09.17.5.5,0,0,1,.1.21,1.22,1.22,0,0,1,.07.17.06.06,0,0,1,0,0,1.18,1.18,0,0,1,.1.38.41.41,0,0,1,0,.16,6.7,6.7,0,0,1-.92,4.05l-8.15,15.75Zm64.31,102.29v0c-.24-.24-.51-.47-.78-.7a7.47,7.47,0,0,0-.85-.63c-.31-.19-.63-.38-1-.56s-.68-.33-1.05-.49a14.66,14.66,0,0,0-1.62-.56l-.77-.21-.7-.16c-.3-.07-.61-.12-.94-.17s-.77-.12-1.17-.17a9,9,0,0,0-1-.1l-.82-.07c-.78-.05-1.61-.07-2.46-.07H537.13l-29.86,55.28h22.36l10.64-19.66h5.09l-3.51,19.66h22.49l1.33-20.72q8.48-2.12,12-8.62l6.54-12q3.38-6.18-.49-10.07Zm-21.64,9.5-4.95,9.11a7.75,7.75,0,0,1-.45.82,4.83,4.83,0,0,1-.51.68v0a2.62,2.62,0,0,1-.28.3,2.84,2.84,0,0,1-.26.24,4.14,4.14,0,0,1-.61.42,7.43,7.43,0,0,1-3.45.7h-5.91l8.46-15.61h5.32a3.88,3.88,0,0,1,2.56.68,2.08,2.08,0,0,1,.21.21c.49.59.45,1.41-.12,2.44ZM593.6,29.16,597.39,38,599,41.79l2.27,5.37-58,114.17h50.26L660.63,29.16h-67ZM706.34,180.07a7.11,7.11,0,0,0-.28-1,5.93,5.93,0,0,0-.26-.63s0-.09,0-.12-.1-.26-.17-.38a3.5,3.5,0,0,0-.23-.35c-.14-.23-.3-.45-.47-.68a5.7,5.7,0,0,0-.58-.63L704,176l-.07,0a3.64,3.64,0,0,0-.56-.49.31.31,0,0,0-.16-.1,6.56,6.56,0,0,0-.91-.61l-.51-.3-.61-.31a23.57,23.57,0,0,0-10.1-1.83h-15q-17.54,0-23.1,10.33L635.68,214.7q-3.37,6.18.49,10.08a6.86,6.86,0,0,0,.7.63c.3.24.61.47,1,.7s.42.26.65.37l.14.07a3.74,3.74,0,0,0,.52.28,7.89,7.89,0,0,0,.72.33c.24.1.51.19.77.28s.47.16.72.23a8.7,8.7,0,0,0,.91.26h.07l.44.1c.14,0,.28.07.44.09a18.77,18.77,0,0,0,1.92.31l1,.1c.7.07,1.41.1,2.18.12.38,0,.77,0,1.15,0h15l1.83,0c.59,0,1.17,0,1.73-.09h.05c.37,0,.7-.05,1-.09l1.47-.16h0c.44-.05.85-.12,1.27-.19l.26,0a.76.76,0,0,1,.16,0l.63-.12c.3-.05.59-.1.89-.17a2.62,2.62,0,0,0,.38-.09c.58-.14,1.12-.28,1.66-.44s1.06-.33,1.57-.52a22.24,22.24,0,0,0,2.88-1.29,18.94,18.94,0,0,0,2.49-1.6,17.1,17.1,0,0,0,2.13-1.94,2.4,2.4,0,0,0,.21-.23l0,0c.24-.26.49-.54.7-.82a18.21,18.21,0,0,0,1.57-2.42l7.13-13.33h-22L667,215.36a6.85,6.85,0,0,1-2.25,2.56l-.4.21a4.29,4.29,0,0,1-1,.31l-.45.07a9.83,9.83,0,0,1-1,.09,5.24,5.24,0,0,1-.56,0h-.85a3.36,3.36,0,0,1-2.72-.94,2,2,0,0,1,0-2.39l16.2-29.76a11.14,11.14,0,0,1,.63-1,2.36,2.36,0,0,1,.33-.42c.1-.14.23-.26.33-.38a6.28,6.28,0,0,1,.58-.47,1.89,1.89,0,0,1,.3-.19,7.15,7.15,0,0,1,3.51-.7h.85a3.21,3.21,0,0,1,2.67.94,2.05,2.05,0,0,1-.12,2.39l-5.56,10.24h22.12l5.34-9.66c.19-.33.37-.68.52-1s.3-.68.42-1,.19-.54.26-.8a5.62,5.62,0,0,0,.17-.77,6.86,6.86,0,0,0,.14-.79c0-.24,0-.49,0-.72a6.8,6.8,0,0,0-.09-1.1Zm13.4-7.24-29.86,55.28h22.36l29.88-55.28Zm37-143.67-59.48,84.72,0,0,26.64-84.74H671.49l-32.6,132.17h57.88L799.16,29.16Zm31.27,143.67-16.57,30.65,3.38-30.65h-24l-29.88,55.28h16.2l16.57-30.65-3.38,30.65h24l29.88-55.28h-16.2Zm73,6.94a3.89,3.89,0,0,0-.12-.49l-.16-.49c-.05-.14-.12-.3-.19-.45a3.17,3.17,0,0,0-.23-.45c-.12-.23-.28-.45-.42-.68s-.21-.26-.31-.4-.35-.4-.54-.61a11.52,11.52,0,0,0-1-.92c-.26-.19-.54-.38-.84-.56,0,0,0,0-.07-.05s-.07,0-.1,0a8.45,8.45,0,0,0-.89-.49c-.3-.14-.59-.28-.91-.4l-.8-.3a1,1,0,0,1-.17-.07c-.66-.21-1.38-.38-2.13-.54-.44-.09-.87-.16-1.33-.23l-.17,0-1.43-.16c-1-.09-2.13-.14-3.3-.14H830.26q-17.53,0-23.1,10.33L789.87,214.7a11.15,11.15,0,0,0-1.59,5.3c0,.23,0,.44,0,.65s0,.3.05.44,0,0,0,0a2.46,2.46,0,0,0,.07.33,4.05,4.05,0,0,0,.12.47,6.85,6.85,0,0,0,.51,1.2,5.5,5.5,0,0,0,.4.63c.09.12.17.24.26.35a6.06,6.06,0,0,0,.59.66,6.86,6.86,0,0,0,.7.63c.3.24.61.47,1,.7a15,15,0,0,0,2,1c.24.1.51.19.77.28s.47.16.72.23a8.7,8.7,0,0,0,.91.26h.07c.28.07.56.14.85.19a18.31,18.31,0,0,0,1.94.31l1,.1c.7.07,1.41.1,2.18.12.38,0,.77,0,1.15,0h15c.82,0,1.62,0,2.41,0a.9.9,0,0,0,.23,0c.3,0,.58,0,.86,0,.05,0,.09,0,.14,0a4.89,4.89,0,0,1,.54,0l.51-.05c.33,0,.66,0,1-.09a.38.38,0,0,0,.21,0l1-.1.78-.1c.4,0,.8-.12,1.2-.19.65-.12,1.27-.24,1.87-.38h0c.59-.16,1.17-.31,1.73-.49a14.86,14.86,0,0,0,1.59-.56c.51-.19,1-.42,1.47-.65,3.72-1.83,6.73-5,9.07-9.42L853,198.37H825.92l-3.37,6.33L821,207.63h6.28v0h0L823,215.52v0a5.71,5.71,0,0,1-2.23,2.44c-.21.1-.45.19-.7.28a7.62,7.62,0,0,1-1.78.33c-.33,0-.72,0-1.1,0h-2.65a3.36,3.36,0,0,1-2.72-.94,2,2,0,0,1,0-2.39L828,185.53c.1-.19.21-.37.31-.54s.21-.31.33-.47a2.36,2.36,0,0,1,.33-.42c.12-.14.23-.26.35-.38s.4-.33.61-.47a2.59,2.59,0,0,1,.31-.19,7.09,7.09,0,0,1,3.44-.7H835a3.34,3.34,0,0,1,2.7.94c.54.61.51,1.41-.05,2.39l-4.36,8.06h22.38l4-7.48a13.75,13.75,0,0,0,1.12-2.69c.07-.23.12-.45.17-.66s.09-.44.12-.65a7.6,7.6,0,0,0,0-2.48ZM904.78,54.23l12.49-25.07H803.08l7.68,17.74L752.67,161.33H855.9l12.49-25.26h-52.7l15.21-29.74v0h43.45l12.49-24.86H843.39l13.85-27.23h47.54Z"/><path class="cls-1" d="M583.69,176.74v0c-.24-.24-.51-.47-.78-.7a7.47,7.47,0,0,0-.85-.63c-.31-.19-.63-.38-1-.56s-.68-.33-1.05-.49a14.66,14.66,0,0,0-1.62-.56l-.77-.21-.7-.16c-.3-.07-.61-.12-.94-.17s-.77-.12-1.17-.17a9,9,0,0,0-1-.1l-.82-.07c-.78-.05-1.61-.07-2.46-.07H537.13l-29.86,55.28h22.36l10.64-19.66h5.09l-3.51,19.66h22.49l1.33-20.72q8.48-2.12,12-8.62l6.54-12q3.38-6.18-.49-10.07Zm-21.64,9.5-4.95,9.11a7.75,7.75,0,0,1-.45.82,4.83,4.83,0,0,1-.51.68v0a2.62,2.62,0,0,1-.28.3,2.84,2.84,0,0,1-.26.24,4.14,4.14,0,0,1-.61.42,7.43,7.43,0,0,1-3.45.7h-5.91l8.46-15.61h5.32a3.88,3.88,0,0,1,2.56.68,2.08,2.08,0,0,1,.21.21c.49.59.45,1.41-.12,2.44Z"/><path class="cls-1" d="M706.34,180.07a7.11,7.11,0,0,0-.28-1,5.93,5.93,0,0,0-.26-.63s0-.09,0-.12-.1-.26-.17-.38a3.5,3.5,0,0,0-.23-.35c-.14-.23-.3-.45-.47-.68a5.7,5.7,0,0,0-.58-.63L704,176l-.07,0a3.64,3.64,0,0,0-.56-.49.31.31,0,0,0-.16-.1,6.56,6.56,0,0,0-.91-.61l-.51-.3-.61-.31a23.57,23.57,0,0,0-10.1-1.83h-15q-17.54,0-23.1,10.33L635.68,214.7q-3.37,6.18.49,10.08a6.86,6.86,0,0,0,.7.63c.3.24.61.47,1,.7s.42.26.65.37l.14.07a3.74,3.74,0,0,0,.52.28,7.89,7.89,0,0,0,.72.33c.24.1.51.19.77.28s.47.16.72.23a8.7,8.7,0,0,0,.91.26h.07l.44.1c.14,0,.28.07.44.09a18.77,18.77,0,0,0,1.92.31l1,.1c.7.07,1.41.1,2.18.12.38,0,.77,0,1.15,0h15l1.83,0c.59,0,1.17,0,1.73-.09h.05c.37,0,.7-.05,1-.09l1.47-.16h0c.44-.05.85-.12,1.27-.19l.26,0a.76.76,0,0,1,.16,0l.63-.12c.3-.05.59-.1.89-.17a2.62,2.62,0,0,0,.38-.09c.58-.14,1.12-.28,1.66-.44s1.06-.33,1.57-.52a22.24,22.24,0,0,0,2.88-1.29,18.94,18.94,0,0,0,2.49-1.6,17.1,17.1,0,0,0,2.13-1.94,2.4,2.4,0,0,0,.21-.23l0,0c.24-.26.49-.54.7-.82a18.21,18.21,0,0,0,1.57-2.42l7.13-13.33h-22L667,215.36a6.85,6.85,0,0,1-2.25,2.56l-.4.21a4.29,4.29,0,0,1-1,.31l-.45.07a9.83,9.83,0,0,1-1,.09,5.24,5.24,0,0,1-.56,0h-.85a3.36,3.36,0,0,1-2.72-.94,2,2,0,0,1,0-2.39l16.2-29.76a11.14,11.14,0,0,1,.63-1,2.36,2.36,0,0,1,.33-.42c.1-.14.23-.26.33-.38a6.28,6.28,0,0,1,.58-.47,1.89,1.89,0,0,1,.3-.19,7.15,7.15,0,0,1,3.51-.7h.85a3.21,3.21,0,0,1,2.67.94,2.05,2.05,0,0,1-.12,2.39l-5.56,10.24h22.12l5.34-9.66c.19-.33.37-.68.52-1s.3-.68.42-1,.19-.54.26-.8a5.62,5.62,0,0,0,.17-.77,6.86,6.86,0,0,0,.14-.79c0-.24,0-.49,0-.72a6.8,6.8,0,0,0-.09-1.1Z"/><path class="cls-1" d="M719.74,172.83l-29.86,55.28h22.36l29.88-55.28Z"/><path class="cls-1" d="M788.06,172.83l-16.57,30.65,3.38-30.65h-24l-29.88,55.28h16.2l16.57-30.65-3.38,30.65h24l29.88-55.28h-16.2Z"/><path class="cls-1" d="M197.41,54.23,209.9,29.16H95.7l7.69,17.72L45.3,161.33H148.51L161,136.07H108.3l15.21-29.74v0H167l12.49-24.86H136l13.85-27.23h47.54Zm83.11-25.07H213.59l7.68,17.74-58.1,114.43h94.27l13.33-26h-44L280.54,29.16Zm121.52,0L350.16,131c-.19.35-.4.68-.61,1s-.42.66-.63,1-.44.59-.65.87-.26.33-.4.49a.41.41,0,0,1-.09.1.43.43,0,0,1-.16.17,6,6,0,0,1-.65.7,7.75,7.75,0,0,1-.66.63,6.26,6.26,0,0,1-.66.52.61.61,0,0,1-.16.12c-.16.1-.33.23-.51.33a8.57,8.57,0,0,1-1.52.73,12.46,12.46,0,0,1-1.81.52,23.62,23.62,0,0,1-4.55.4h-3c-.28,0-.54,0-.8,0a.25.25,0,0,1-.12,0h0a10.19,10.19,0,0,1-1.29-.14,6.74,6.74,0,0,1-1.27-.31,7.53,7.53,0,0,1-1-.42h0a.22.22,0,0,0-.09,0,1.43,1.43,0,0,1-.24-.16.78.78,0,0,1-.24-.16,2.6,2.6,0,0,1-.42-.35l-.12-.1a6.11,6.11,0,0,1-.49-.52,3.8,3.8,0,0,1-.86-2.46,5.14,5.14,0,0,1,.24-1.55,8.82,8.82,0,0,1,.73-1.73L379.76,29.14H312.81l7.68,17.69-42.06,82.42q-7.59,14.58,1.1,24t29.88,9.42H345q36.08,0,49.59-20.72a40.37,40.37,0,0,0,2.28-4L452,29.14H402ZM519.38,74.45h0L577.84,55Q580.9,44.38,574,37q-8.68-9.21-29.6-9.23h-34.5c-1.06,0-2.11,0-3.14.05-.49,0-1,0-1.47.05h0a.22.22,0,0,0-.16,0c-.92,0-1.83.09-2.74.14s-1.78.14-2.65.23c-.47,0-.94.09-1.4.14-.85.09-1.69.19-2.51.31-.51.07-1,.14-1.5.23-.68.1-1.36.21-2,.33-.16,0-.31.05-.45.09l-1.66.35-.91.21c-1,.21-1.9.45-2.84.72l-.28.07c-.78.23-1.57.47-2.34.73-.31.09-.61.19-.91.3s-.89.31-1.33.49-.87.33-1.31.51c-.75.3-1.5.61-2.22,1s-1.48.7-2.2,1.08c-.24.12-.49.26-.73.4-.49.26-1,.52-1.43.82a1.27,1.27,0,0,0-.23.12c-.49.3-1,.59-1.43.91l-.78.54c-.23.16-.45.31-.68.49-.58.4-1.15.84-1.69,1.29-.23.17-.45.37-.68.56-.38.31-.77.65-1.13,1a3.59,3.59,0,0,0-.4.38c-.56.52-1.1,1.05-1.62,1.6-.3.31-.58.63-.87.94s-.33.4-.51.61-.19.21-.28.31-.17.23-.26.33-.28.31-.42.49l-.12.16c0,.05-.09.1-.12.16l-.63.84c-.65.89-1.27,1.83-1.87,2.79-.16.24-.3.49-.44.73-.26.44-.51.87-.75,1.33-.17.3-.33.61-.49.92l-8.15,15.94q-12,23.7,17.39,33.63l23.62,7.38c3.26,1.29,5.32,2.69,6.12,4.19s.51,3.66-1,6.51l-6,12c-.21.4-.42.78-.63,1.15l-.16.26a4.86,4.86,0,0,1-.33.54.88.88,0,0,1-.12.17,1,1,0,0,1-.12.19c0,.07-.09.12-.12.19l-.14.17,0,0a.3.3,0,0,1-.07.1,1.2,1.2,0,0,1-.21.26,3.57,3.57,0,0,1-.4.52,8,8,0,0,1-.61.68,9.39,9.39,0,0,1-1.29,1.12c-.23.16-.45.3-.68.44-1.8,1.05-4.43,1.55-7.87,1.55h-3.26c-2.9,0-4.94-.72-6.11-2.13s-1.13-3.31.12-5.65l8.7-17.29-60.08,20c-.09.3-.17.61-.26.91-.17.59-.31,1.19-.42,1.76a2.87,2.87,0,0,0-.1.56,19.55,19.55,0,0,0-.31,4.88,15,15,0,0,0,.19,1.66c.05.3.1.61.17.91s.16.72.26,1.06.16.52.23.77h0c.09.24.17.49.26.73.21.49.42,1,.66,1.45.14.24.26.47.4.72a3,3,0,0,0,.19.35,3.5,3.5,0,0,0,.23.35c.14.23.28.45.44.68a8.27,8.27,0,0,0,.51.66h0l.05.09a1.43,1.43,0,0,0,.19.24,2.68,2.68,0,0,0,.23.26l.17.21c.14.17.28.35.44.51.37.4.73.77,1.13,1.13s.68.61,1,.91l.16.12.07.05c.38.3.77.59,1.19.89l.14.1c.33.23.68.45,1,.66l.1.07.24.14s0,0,.05,0l.09.05.38.23.05,0,.09,0,.45.26.26.14h0a8,8,0,0,0,.82.42l.23.1.3.14c.4.19.84.38,1.27.54h0c.4.17.79.33,1.2.47s.82.3,1.24.44a14.51,14.51,0,0,0,1.41.42c.44.14.89.24,1.34.37l.75.17.1,0c.35.09.7.16,1.06.23a6.91,6.91,0,0,0,.79.16.34.34,0,0,0,.14,0l1.12.21.14,0c.92.16,1.88.28,2.88.38.49.07,1,.12,1.52.16h0c1,.09,1.95.16,3,.19,1.33.07,2.69.1,4.08.1h35c.52,0,1.05,0,1.57,0s.87,0,1.29,0h.26c.58,0,1.15,0,1.73-.07s1,0,1.48-.07c.66,0,1.33-.07,2-.12h.09c.1,0,.23,0,.33,0,.54,0,1.06-.09,1.61-.14s.92-.09,1.38-.14c.73-.07,1.46-.16,2.18-.26s1.43-.19,2.15-.31c1.4-.23,2.76-.47,4.1-.77.63-.14,1.26-.28,1.87-.44.35-.09.72-.17,1.06-.28,1-.24,1.9-.51,2.81-.8.65-.21,1.29-.42,1.9-.65l.07,0,.51-.17a3.57,3.57,0,0,0,.45-.19,1.09,1.09,0,0,0,.23-.09l.26-.1a.7.7,0,0,0,.14,0c.45-.17.91-.37,1.36-.56a2.19,2.19,0,0,0,.38-.17c.42-.17.84-.37,1.24-.56a2.3,2.3,0,0,0,.37-.16,5.85,5.85,0,0,0,.56-.28c.35-.16.7-.33,1-.52a.15.15,0,0,0,.07,0,7,7,0,0,0,.72-.37l.54-.31a1.27,1.27,0,0,1,.23-.12l.3-.19.14-.07a.24.24,0,0,1,.1,0l.77-.45.17-.12c.51-.3,1-.63,1.45-1l.09-.05a1.92,1.92,0,0,0,.26-.17,3.09,3.09,0,0,0,.31-.23,2.91,2.91,0,0,0,.33-.26.55.55,0,0,0,.14-.09,1.31,1.31,0,0,0,.24-.17,2.14,2.14,0,0,0,.26-.19c.19-.14.38-.3.58-.44l.33-.28c.49-.38,1-.78,1.43-1.2h0l1.2-1.13h0c.42-.4.78-.77,1.15-1.17v0c.78-.8,1.5-1.64,2.18-2.49.33-.44.66-.87,1-1.33s.65-.91,1-1.38.68-1.06,1-1.6a8.21,8.21,0,0,0,.52-.91c.35-.63.7-1.26,1-1.9l9.23-18.66a33.35,33.35,0,0,0,3-8.48,20.16,20.16,0,0,0,.4-2.79,16.62,16.62,0,0,0,0-2.44,6.3,6.3,0,0,0-.05-.75q0-.42-.09-.84c-.09-.56-.19-1.1-.33-1.64a18.16,18.16,0,0,0-.79-2.36c-.16-.38-.33-.75-.52-1.12s-.4-.73-.63-1.1v0c-.19-.3-.37-.59-.58-.87s-.4-.56-.63-.84a3.4,3.4,0,0,0-.38-.49l-.51-.58c-.19-.21-.4-.44-.61-.65l-.66-.66c-.68-.63-1.43-1.24-2.23-1.85l-.84-.59-.42-.28c-.44-.3-.89-.58-1.34-.85-.28-.17-.58-.33-.87-.51s-.47-.26-.72-.38a3,3,0,0,0-.35-.19q-.31-.18-.63-.33a3.37,3.37,0,0,1-.38-.19l-.68-.31a3.62,3.62,0,0,0-.4-.19l-.33-.16-.28-.12-.49-.21v0c-.37-.16-.75-.31-1.13-.45l-1.19-.47-.61-.23c-.61-.23-1.24-.45-1.88-.66l0,0-23.36-7.38c-3.26-1.29-5.25-2.72-6-4.27s-.45-3.68.82-6.42l4.62-9.33c1.45-2.84,3.12-4.8,5-5.83a17,17,0,0,1,8-1.55h2.7q4.63,0,6.38,2a4.71,4.71,0,0,1,.33.45s0,0,0,.07a.68.68,0,0,1,.09.17.5.5,0,0,1,.1.21,1.22,1.22,0,0,1,.07.17.06.06,0,0,1,0,0,1.18,1.18,0,0,1,.1.38.41.41,0,0,1,0,.16,6.7,6.7,0,0,1-.92,4.05l-8.15,15.75Zm64.31,102.29v0c-.24-.24-.51-.47-.78-.7a7.47,7.47,0,0,0-.85-.63c-.31-.19-.63-.38-1-.56s-.68-.33-1.05-.49a14.66,14.66,0,0,0-1.62-.56l-.77-.21-.7-.16c-.3-.07-.61-.12-.94-.17s-.77-.12-1.17-.17a9,9,0,0,0-1-.1l-.82-.07c-.78-.05-1.61-.07-2.46-.07H537.13l-29.86,55.28h22.36l10.64-19.66h5.09l-3.51,19.66h22.49l1.33-20.72q8.48-2.12,12-8.62l6.54-12q3.38-6.18-.49-10.07Zm-21.64,9.5-4.95,9.11a7.75,7.75,0,0,1-.45.82,4.83,4.83,0,0,1-.51.68v0a2.62,2.62,0,0,1-.28.3,2.84,2.84,0,0,1-.26.24,4.14,4.14,0,0,1-.61.42,7.43,7.43,0,0,1-3.45.7h-5.91l8.46-15.61h5.32a3.88,3.88,0,0,1,2.56.68,2.08,2.08,0,0,1,.21.21c.49.59.45,1.41-.12,2.44ZM593.6,29.16,597.39,38,599,41.79l2.27,5.37-58,114.17h50.26L660.63,29.16h-67ZM706.34,180.07a7.11,7.11,0,0,0-.28-1,5.93,5.93,0,0,0-.26-.63s0-.09,0-.12-.1-.26-.17-.38a3.5,3.5,0,0,0-.23-.35c-.14-.23-.3-.45-.47-.68a5.7,5.7,0,0,0-.58-.63L704,176l-.07,0a3.64,3.64,0,0,0-.56-.49.31.31,0,0,0-.16-.1,6.56,6.56,0,0,0-.91-.61l-.51-.3-.61-.31a23.57,23.57,0,0,0-10.1-1.83h-15q-17.54,0-23.1,10.33L635.68,214.7q-3.37,6.18.49,10.08a6.86,6.86,0,0,0,.7.63c.3.24.61.47,1,.7s.42.26.65.37l.14.07a3.74,3.74,0,0,0,.52.28,7.89,7.89,0,0,0,.72.33c.24.1.51.19.77.28s.47.16.72.23a8.7,8.7,0,0,0,.91.26h.07l.44.1c.14,0,.28.07.44.09a18.77,18.77,0,0,0,1.92.31l1,.1c.7.07,1.41.1,2.18.12.38,0,.77,0,1.15,0h15l1.83,0c.59,0,1.17,0,1.73-.09h.05c.37,0,.7-.05,1-.09l1.47-.16h0c.44-.05.85-.12,1.27-.19l.26,0a.76.76,0,0,1,.16,0l.63-.12c.3-.05.59-.1.89-.17a2.62,2.62,0,0,0,.38-.09c.58-.14,1.12-.28,1.66-.44s1.06-.33,1.57-.52a22.24,22.24,0,0,0,2.88-1.29,18.94,18.94,0,0,0,2.49-1.6,17.1,17.1,0,0,0,2.13-1.94,2.4,2.4,0,0,0,.21-.23l0,0c.24-.26.49-.54.7-.82a18.21,18.21,0,0,0,1.57-2.42l7.13-13.33h-22L667,215.36a6.85,6.85,0,0,1-2.25,2.56l-.4.21a4.29,4.29,0,0,1-1,.31l-.45.07a9.83,9.83,0,0,1-1,.09,5.24,5.24,0,0,1-.56,0h-.85a3.36,3.36,0,0,1-2.72-.94,2,2,0,0,1,0-2.39l16.2-29.76a11.14,11.14,0,0,1,.63-1,2.36,2.36,0,0,1,.33-.42c.1-.14.23-.26.33-.38a6.28,6.28,0,0,1,.58-.47,1.89,1.89,0,0,1,.3-.19,7.15,7.15,0,0,1,3.51-.7h.85a3.21,3.21,0,0,1,2.67.94,2.05,2.05,0,0,1-.12,2.39l-5.56,10.24h22.12l5.34-9.66c.19-.33.37-.68.52-1s.3-.68.42-1,.19-.54.26-.8a5.62,5.62,0,0,0,.17-.77,6.86,6.86,0,0,0,.14-.79c0-.24,0-.49,0-.72a6.8,6.8,0,0,0-.09-1.1Zm13.4-7.24-29.86,55.28h22.36l29.88-55.28Zm37-143.67-59.48,84.72,0,0,26.64-84.74H671.49l-32.6,132.17h57.88L799.16,29.16Zm31.27,143.67-16.57,30.65,3.38-30.65h-24l-29.88,55.28h16.2l16.57-30.65-3.38,30.65h24l29.88-55.28h-16.2Zm73,6.94a3.89,3.89,0,0,0-.12-.49l-.16-.49c-.05-.14-.12-.3-.19-.45a3.17,3.17,0,0,0-.23-.45c-.12-.23-.28-.45-.42-.68s-.21-.26-.31-.4-.35-.4-.54-.61a11.52,11.52,0,0,0-1-.92c-.26-.19-.54-.38-.84-.56,0,0,0,0-.07-.05s-.07,0-.1,0a8.45,8.45,0,0,0-.89-.49c-.3-.14-.59-.28-.91-.4l-.8-.3a1,1,0,0,1-.17-.07c-.66-.21-1.38-.38-2.13-.54-.44-.09-.87-.16-1.33-.23l-.17,0-1.43-.16c-1-.09-2.13-.14-3.3-.14H830.26q-17.53,0-23.1,10.33L789.87,214.7a11.15,11.15,0,0,0-1.59,5.3c0,.23,0,.44,0,.65s0,.3.05.44,0,0,0,0a2.46,2.46,0,0,0,.07.33,4.05,4.05,0,0,0,.12.47,6.85,6.85,0,0,0,.51,1.2,5.5,5.5,0,0,0,.4.63c.09.12.17.24.26.35a6.06,6.06,0,0,0,.59.66,6.86,6.86,0,0,0,.7.63c.3.24.61.47,1,.7a15,15,0,0,0,2,1c.24.1.51.19.77.28s.47.16.72.23a8.7,8.7,0,0,0,.91.26h.07c.28.07.56.14.85.19a18.31,18.31,0,0,0,1.94.31l1,.1c.7.07,1.41.1,2.18.12.38,0,.77,0,1.15,0h15c.82,0,1.62,0,2.41,0a.9.9,0,0,0,.23,0c.3,0,.58,0,.86,0,.05,0,.09,0,.14,0a4.89,4.89,0,0,1,.54,0l.51-.05c.33,0,.66,0,1-.09a.38.38,0,0,0,.21,0l1-.1.78-.1c.4,0,.8-.12,1.2-.19.65-.12,1.27-.24,1.87-.38h0c.59-.16,1.17-.31,1.73-.49a14.86,14.86,0,0,0,1.59-.56c.51-.19,1-.42,1.47-.65,3.72-1.83,6.73-5,9.07-9.42L853,198.37H825.92l-3.37,6.33L821,207.63h6.28v0h0L823,215.52v0a5.71,5.71,0,0,1-2.23,2.44c-.21.1-.45.19-.7.28a7.62,7.62,0,0,1-1.78.33c-.33,0-.72,0-1.1,0h-2.65a3.36,3.36,0,0,1-2.72-.94,2,2,0,0,1,0-2.39L828,185.53c.1-.19.21-.37.31-.54s.21-.31.33-.47a2.36,2.36,0,0,1,.33-.42c.12-.14.23-.26.35-.38s.4-.33.61-.47a2.59,2.59,0,0,1,.31-.19,7.09,7.09,0,0,1,3.44-.7H835a3.34,3.34,0,0,1,2.7.94c.54.61.51,1.41-.05,2.39l-4.36,8.06h22.38l4-7.48a13.75,13.75,0,0,0,1.12-2.69c.07-.23.12-.45.17-.66s.09-.44.12-.65a7.6,7.6,0,0,0,0-2.48ZM904.78,54.23l12.49-25.07H803.08l7.68,17.74L752.67,161.33H855.9l12.49-25.26h-52.7l15.21-29.74v0h43.45l12.49-24.86H843.39l13.85-27.23h47.54Z"/><path class="cls-4" d="M670.6,228.3h0c.44-.05.85-.12,1.27-.19a1.45,1.45,0,0,1-.3,0l-1,.16Zm-77-199.14L599,41.79,597.38,38l-3.79-8.88Zm-9.91,147.56c-.24-.24-.51-.47-.78-.7a7.47,7.47,0,0,0-.85-.63c-.31-.19-.63-.38-1-.56s-.68-.33-1.05-.49a14.66,14.66,0,0,0-1.62-.56l-.77-.21-.7-.16c-.3-.07-.61-.12-.94-.17s-.77-.12-1.17-.17a9,9,0,0,0-1-.1l-.82-.07c-.78-.05-1.61-.07-2.46-.07H537.13l-29.86,55.28h22.36l10.64-19.66h5.09l-3.51,19.66h22.49l1.33-20.72q8.48-2.12,12-8.62l6.54-12q3.38-6.18-.49-10.07v0ZM534.26,87.55v0l.49.21-.49-.23Zm-8.6,64.51a2.14,2.14,0,0,0,.26-.19c.19-.14.38-.3.58-.44-.14.1-.3.23-.44.31l-.45.33a2,2,0,0,1-.33.24.55.55,0,0,0,.14-.09,1.31,1.31,0,0,0,.24-.17Zm-4,2.63-.3.19.44-.26-.14.07Zm-2.88,1.55-.92.44a2.3,2.3,0,0,0,.37-.16,5.85,5.85,0,0,0,.56-.28Zm-2.55,1.17c.56-.23,1.1-.47,1.62-.73l-1.24.56c-.61.26-1.26.52-1.88.77l-.26.1a2.35,2.35,0,0,0,.4-.14c.45-.17.91-.37,1.36-.56ZM488.84,134.7c0-.07.09-.12.12-.19l-.26.37.14-.17ZM463.63,44.43c.17-.21.35-.4.51-.61-.26.3-.54.61-.78.92a3.92,3.92,0,0,1,.28-.31Zm-.54.64c.09-.1.17-.23.26-.33-.19.21-.37.42-.54.65a3.92,3.92,0,0,1,.28-.31ZM419.65,152.3c.12.16.26.31.4.47l-.17-.21a2.68,2.68,0,0,1-.23-.26Zm-.26-.33a.54.54,0,0,0,.07.09l0-.09Zm-1.17-1.69c.21.35.44.68.66,1-.16-.23-.3-.45-.44-.68a3.5,3.5,0,0,1-.23-.35Zm-.59-1.07a9.91,9.91,0,0,0,.59,1.06,3,3,0,0,1-.19-.35c-.14-.24-.26-.47-.4-.72Zm-.94-2.18c.09.24.17.49.28.73-.09-.24-.17-.49-.26-.73Zm-83.36-8.46c.26,0,.52,0,.8,0-.31,0-.63,0-.92,0a.25.25,0,0,0,.12,0Zm-3.79-.92.09,0a1.77,1.77,0,0,1-.33-.19Z"/><path class="cls-1" d="M911.67,65.36,935.25,18H751L729.41,48.79,739.07,18H576.81l4.5,10.62c-8-7.94-20.41-12-36.95-12h-34.5c-18.75,0-33.77,3.94-45,11.69L470.1,18H78.74L91.11,46.53,27.18,172.47H264.26L270.63,160c.26.28.51.56.73.82,8,8.63,20.78,13,38.06,13H345c27.94,0,47.78-8.67,58.91-25.76.42-.63.8-1.27,1.19-1.94a28.2,28.2,0,0,0,7.24,14.69c8,8.63,20.76,13,38,13h35c18.56,0,33.44-3.77,44.59-11.2l-41.38,76.61H634.7l.47-2a36,36,0,0,0,14.3,2.58h15a56.91,56.91,0,0,0,8.27-.56H781l2.88-5.34c4.69,3.91,11.32,5.9,19.75,5.9h15c8.42,0,15.11-1.27,20.43-3.92,5.81-2.88,10.48-7.64,13.92-14.15l9.12-16.87,7.33-13.36c.35-.65.66-1.29.94-1.92l.87-2.36A18.17,18.17,0,0,0,867,168.4c-.47-.47-1-.91-1.5-1.34L886.29,125h-52.4l3.82-7.5h43.52L904.9,70.33H861.55l2.51-5h47.61ZM723.92,29.16,697.28,113.9l0,0,59.48-84.72h42.37L696.76,161.33H638.88l32.6-132.17ZM796,51.42,740,161.7H710.55L796,51.42ZM148.51,161.33H45.3L103.39,46.88,95.7,29.16H209.9L197.41,54.23H149.88L136,81.46h43.45L167,106.32H123.52v0l-15.21,29.74H161l-12.49,25.26Zm50.92-96-2.53,5H154.16l2.53-5ZM173,117.45l-3.8,7.5H126.5l3.82-7.5Zm84.46,43.88H163.16L221.26,46.9l-7.68-17.74h66.93L226.73,135.29h44l-13.33,26Zm11.14-37.2s0,0,0,0H244.85L297.15,21l11,25.5-39.61,77.66ZM396.87,138a40.44,40.44,0,0,1-2.29,4Q381.08,162.7,345,162.69H309.41q-21.2,0-29.88-9.42t-1.1-24l42.06-82.42-7.68-17.69h66.95L328.14,130.61a8,8,0,0,0-.73,1.73,5.14,5.14,0,0,0-.24,1.55,3.8,3.8,0,0,0,.86,2.46,4.06,4.06,0,0,0,.49.52.53.53,0,0,0,.12.1,2.06,2.06,0,0,0,.42.35,2,2,0,0,0,.24.16,1.77,1.77,0,0,0,.33.19h0a7.53,7.53,0,0,0,1,.42,11.24,11.24,0,0,0,1.27.31,10.19,10.19,0,0,0,1.29.14h0c.3,0,.61,0,.92,0h3a23.62,23.62,0,0,0,4.55-.4,12.11,12.11,0,0,0,1.81-.52,8.92,8.92,0,0,0,1.52-.73,5.54,5.54,0,0,0,.51-.33l.16-.12a9.24,9.24,0,0,0,1.32-1.15c.23-.23.44-.45.65-.7a.52.52,0,0,0,.16-.17l.09-.1c.14-.16.26-.31.4-.49s.44-.56.65-.87l.63-1,.61-1L402,29.17h50L396.88,138Zm59.61-28.4-39.39,13.14,18.8-37.16a26.8,26.8,0,0,0,1.69,6c3.07,7.5,9.4,13.54,18.89,18Zm73,39.2,0,0c-.4.38-.8.77-1.2,1.12h0c-.47.42-.94.82-1.43,1.2l-.33.28c-.19.14-.38.3-.58.44a2.14,2.14,0,0,1-.26.19l-.24.17a1.1,1.1,0,0,1-.14.09,2.91,2.91,0,0,1-.33.26,3.09,3.09,0,0,1-.31.23,1.92,1.92,0,0,1-.26.17l-.09.05c-.47.33-.94.66-1.45,1l-.17.12c-.24.16-.51.3-.77.45a.24.24,0,0,0-.1.05l-.44.26a1.27,1.27,0,0,0-.23.12l-.54.31c-.23.12-.47.26-.72.37a.08.08,0,0,1-.07,0,9.93,9.93,0,0,1-1,.52c-.17.1-.37.19-.56.28s-.24.12-.37.16c-.52.26-1.06.51-1.62.73l-1.36.56-.4.14-.23.09c-.16.07-.3.14-.45.19a4.36,4.36,0,0,1-.51.17l-.07,0c-.61.23-1.26.44-1.9.65-.91.3-1.85.56-2.81.8l-1.06.28c-.61.16-1.24.3-1.87.44-1.34.3-2.7.54-4.1.77-.72.12-1.41.23-2.15.31s-1.45.19-2.18.26l-1.38.14-1.61.14c-.1,0-.23,0-.33,0h-.09c-.66.05-1.33.09-2,.12l-1.48.07-1.73.07h-.26c-.44,0-.85,0-1.29,0s-1.05,0-1.57,0h-35c-1.4,0-2.76,0-4.08-.1-1,0-2-.1-3-.19h0c-.51,0-1-.09-1.52-.16-1-.1-1.95-.23-2.88-.38l-.14,0a10.52,10.52,0,0,1-1.12-.21.34.34,0,0,1-.14,0,5.82,5.82,0,0,1-.79-.16,8.63,8.63,0,0,1-1.06-.23l-.1,0-.75-.17c-.45-.12-.91-.23-1.34-.37a14.51,14.51,0,0,1-1.41-.42c-.42-.14-.84-.28-1.24-.44a11.9,11.9,0,0,1-1.2-.47h0c-.44-.16-.87-.35-1.27-.54l-.3-.14-.23-.1a6.34,6.34,0,0,1-.82-.42h0l-.26-.14a4.83,4.83,0,0,1-.45-.26l-.09-.05,0,0a1.93,1.93,0,0,1-.38-.23l-.09,0s0,0-.05,0a1.16,1.16,0,0,1-.24-.14.3.3,0,0,1-.1-.07c-.35-.21-.7-.44-1-.66l-.14-.1c-.42-.3-.8-.59-1.19-.89l-.07,0a.61.61,0,0,0-.16-.12c-.37-.31-.7-.61-1-.91s-.77-.73-1.13-1.13a5.37,5.37,0,0,1-.44-.51c-.14-.16-.28-.31-.4-.47s-.14-.16-.19-.24a.31.31,0,0,1-.07-.09c-.17-.21-.35-.44-.51-.66s-.45-.68-.66-1-.42-.7-.59-1.06-.45-1-.66-1.45c-.1-.24-.19-.49-.28-.73s-.16-.51-.23-.77-.19-.7-.26-1.06a6.65,6.65,0,0,1-.17-.91,15,15,0,0,1-.19-1.66,20,20,0,0,1,.31-4.88,3.45,3.45,0,0,1,.1-.56,14.47,14.47,0,0,1,.42-1.76c.09-.3.17-.61.26-.91l60.08-20-8.7,17.29c-1.26,2.34-1.31,4.22-.12,5.65s3.21,2.13,6.11,2.13h3.26c3.44,0,6.07-.51,7.87-1.55.23-.14.45-.28.68-.44a8.76,8.76,0,0,0,1.29-1.12c.21-.21.42-.45.61-.68a4.21,4.21,0,0,0,.4-.52,1.2,1.2,0,0,0,.21-.26l.07-.1,0,0,.26-.37a1,1,0,0,0,.12-.19.88.88,0,0,0,.12-.17,4.86,4.86,0,0,0,.33-.54l.16-.26c.21-.37.42-.75.63-1.15l6-12c1.46-2.84,1.78-5,1-6.51s-2.86-2.9-6.12-4.19l-23.62-7.38q-29.32-9.91-17.39-33.63l8.15-15.94.49-.92c.24-.45.49-.89.75-1.33.14-.24.28-.49.44-.73.59-1,1.22-1.9,1.87-2.79l.63-.84a5497558138641.6,5497558138641.6,0,0,1,.24-.32l.14-.17c.17-.23.35-.44.54-.65s.52-.63.78-.92.58-.63.87-.94c.52-.56,1.06-1.08,1.62-1.6a3.59,3.59,0,0,1,.4-.38l1.13-1c.21-.19.45-.38.68-.56.54-.45,1.12-.89,1.69-1.29l.68-.49L472,37c.47-.31.94-.61,1.43-.91a1.27,1.27,0,0,1,.23-.12c.47-.3.94-.56,1.43-.82.24-.14.49-.28.73-.4.72-.38,1.45-.75,2.2-1.08s1.47-.66,2.22-1c.42-.17.87-.35,1.31-.51l1.33-.49c.3-.1.59-.21.91-.3.77-.26,1.55-.51,2.34-.73l.28-.07c.94-.26,1.88-.51,2.84-.72l.91-.21,1.66-.35c.14,0,.3-.05.45-.09.66-.12,1.34-.23,2-.33.49-.09,1-.16,1.5-.23.82-.12,1.66-.23,2.51-.31l1.4-.14c.87-.09,1.74-.16,2.65-.23l2.74-.14a.22.22,0,0,1,.16,0h0c.49,0,1,0,1.47,0,1,0,2.08-.05,3.14-.05h34.5q20.91,0,29.6,9.23c4.6,4.9,5.9,10.87,3.85,17.93L519.41,74.44h0l8.15-15.75a6.62,6.62,0,0,0,.92-4,1.1,1.1,0,0,0,0-.16,1.51,1.51,0,0,0-.1-.38.06.06,0,0,0,0-.05.61.61,0,0,0-.07-.17.67.67,0,0,0-.1-.21.46.46,0,0,0-.09-.17.36.36,0,0,1,0-.07,3.72,3.72,0,0,0-.33-.45q-1.76-2-6.38-2h-2.7a17,17,0,0,0-8,1.55c-1.9,1-3.58,3-5,5.83L501,67.65c-1.27,2.74-1.53,4.87-.82,6.42s2.72,3,6,4.27l23.36,7.38,0,0c.65.21,1.27.42,1.88.66l.61.23,1.19.47c.38.14.77.3,1.13.45l.49.23.28.12a2.53,2.53,0,0,1,.33.16,3.62,3.62,0,0,1,.4.19l.68.31a3.37,3.37,0,0,0,.38.19q.32.15.63.33a3,3,0,0,1,.35.19l.72.38c.3.17.59.33.87.51.45.28.91.56,1.34.85.14.09.28.17.42.28l.84.59c.8.61,1.55,1.22,2.23,1.85l.66.66c.21.21.42.44.61.65s.35.38.51.58a2.93,2.93,0,0,1,.38.49q.35.42.63.84c.21.3.4.59.58.87v0a12.35,12.35,0,0,1,.63,1.1c.19.37.37.75.52,1.12a19.22,19.22,0,0,1,.79,2.36c.14.54.24,1.08.33,1.64,0,.28.07.56.09.84a6,6,0,0,1,0,.75,16.61,16.61,0,0,1,0,2.44,20.16,20.16,0,0,1-.4,2.79,33.35,33.35,0,0,1-3,8.48L537.36,138c-.31.65-.66,1.27-1,1.9-.16.31-.33.61-.52.91-.31.54-.65,1.08-1,1.6-.61.94-1.27,1.83-2,2.7s-1.4,1.69-2.18,2.49v0c-.37.4-.73.77-1.15,1.17Zm49.55-82.53-18.23,35.93a28.23,28.23,0,0,0-1.76-6.3c-2.93-7.08-8.76-12.84-17.39-17.16Zm-35.77,95.05,58-114.17L599,41.79l-5.37-12.63h67L593.54,161.33Zm62.53.37,41.88-82.49L627.33,161.7H605.81Zm80.07,59.08a8.93,8.93,0,0,1-.7.82q-.25.24,0,0a2.4,2.4,0,0,1-.21.23,17.91,17.91,0,0,1-2.13,1.94,20.42,20.42,0,0,1-2.49,1.61,22.24,22.24,0,0,1-2.88,1.29c-.51.19-1,.37-1.57.52s-1.08.3-1.66.44l-.38.09c-.3.07-.59.12-.89.17l-.63.12a.76.76,0,0,1-.16,0l-.26,0c-.42.07-.84.14-1.27.19h0l-1.47.16c-.33,0-.7.07-1,.09H668c-.56.05-1.13.07-1.73.09s-1.22,0-1.83,0h-15c-.38,0-.77,0-1.15,0-.75,0-1.48,0-2.18-.12l-1-.1c-.66-.09-1.31-.17-1.92-.31a2.85,2.85,0,0,1-.44-.09l-.44-.1h-.07a9.46,9.46,0,0,1-.91-.26,4.64,4.64,0,0,1-.72-.23c-.26-.09-.52-.17-.77-.28s-.49-.21-.72-.33a3.25,3.25,0,0,1-.52-.28l-.14-.07a5.19,5.19,0,0,1-.65-.37,10.32,10.32,0,0,1-1-.7,8.12,8.12,0,0,1-.7-.63c-2.58-2.6-2.74-6-.49-10.08L653,182.58q5.58-10.31,23.1-10.33h15a23.57,23.57,0,0,1,10.1,1.83l.61.31a5.24,5.24,0,0,1,.51.3,6.56,6.56,0,0,1,.91.61.59.59,0,0,1,.16.1,4.18,4.18,0,0,1,.56.49l.07.05a1.48,1.48,0,0,1,.31.3,6.65,6.65,0,0,1,.58.63c.17.23.33.45.47.68a3.5,3.5,0,0,1,.23.35c.07.12.1.24.17.38s0,.09,0,.12a5.93,5.93,0,0,1,.26.63,7.11,7.11,0,0,1,.28,1,8.16,8.16,0,0,1,.09,1.1c0,.23,0,.47,0,.72a5.32,5.32,0,0,1-.14.78,4.66,4.66,0,0,1-.17.77,8.27,8.27,0,0,1-.26.8c-.12.31-.26.66-.42,1s-.33.66-.52,1l-5.34,9.66H677.41L683,185.65a2.05,2.05,0,0,0,.12-2.39,3.21,3.21,0,0,0-2.67-.94h-.85a7.15,7.15,0,0,0-3.51.7c-.1,0-.19.12-.3.19s-.38.3-.58.47-.23.24-.33.38a2.36,2.36,0,0,0-.33.42c-.21.3-.42.65-.63,1l-16.2,29.76a2,2,0,0,0,0,2.39,3.36,3.36,0,0,0,2.72.94h.85a5.24,5.24,0,0,0,.56,0,7.27,7.27,0,0,0,1-.09,3.25,3.25,0,0,0,.45-.07,4.29,4.29,0,0,0,1-.31l.4-.21a6.93,6.93,0,0,0,2.25-2.56L672.54,205h22l-7.13,13.33a17.58,17.58,0,0,1-1.57,2.42Zm4,7.33,29.86-55.28h22.38l-29.88,55.28Zm84.52,0h-24l3.38-30.65-16.57,30.65H721l29.88-55.28h24l-3.38,30.65,16.57-30.65h16.21L774.4,228.11Zm86.67-45.86c0,.21-.07.42-.12.65a4.28,4.28,0,0,1-.17.66,13.64,13.64,0,0,1-1.12,2.69l-4,7.48H833.28l4.36-8.06c.56-1,.59-1.78.05-2.39a3.34,3.34,0,0,0-2.7-.94h-1.34a7.09,7.09,0,0,0-3.44.7,2.59,2.59,0,0,0-.31.19c-.21.14-.4.3-.61.47s-.23.24-.35.38a2.36,2.36,0,0,0-.33.42c-.12.16-.23.31-.33.47s-.21.35-.31.54l-16.08,29.76a1.94,1.94,0,0,0,0,2.39,3.36,3.36,0,0,0,2.72.94h2.65c.38,0,.77,0,1.1,0a7.62,7.62,0,0,0,1.78-.33,6.38,6.38,0,0,0,.7-.28,5.7,5.7,0,0,0,2.23-2.44v0l4.22-7.87h0v0H821l1.57-2.93,3.37-6.33H853l-9.79,18.14c-2.34,4.43-5.35,7.59-9.07,9.42-.47.23-1,.45-1.47.65s-1,.38-1.59.56-1.12.35-1.73.49h0c-.61.14-1.22.28-1.87.38-.4.07-.8.14-1.2.19l-.78.1-1,.1a.5.5,0,0,1-.21,0c-.49.07-1,.1-1.48.14l-.54,0s-.09,0-.14,0c-.28,0-.56,0-.86,0a.9.9,0,0,1-.23,0c-.78,0-1.59,0-2.41,0h-15c-.38,0-.77,0-1.15,0-.77,0-1.48,0-2.18-.12l-1-.1c-.68-.09-1.33-.17-1.94-.31-.3,0-.58-.12-.85-.19h-.07a9.46,9.46,0,0,1-.91-.26,4.64,4.64,0,0,1-.72-.23c-.26-.09-.52-.17-.77-.28a13,13,0,0,1-2-1,10.32,10.32,0,0,1-1-.7,8.12,8.12,0,0,1-.7-.63,7.16,7.16,0,0,1-.59-.66c-.09-.1-.17-.23-.26-.35a5.5,5.5,0,0,1-.4-.63,6.36,6.36,0,0,1-.51-1.2,4.05,4.05,0,0,1-.12-.47c0-.1-.05-.23-.07-.33s0,0,0-.05,0-.28,0-.44,0-.42,0-.65a11,11,0,0,1,1.59-5.3l17.29-32.11q5.58-10.31,23.1-10.33h15.59c1.17,0,2.25,0,3.3.14l1.43.16a.74.74,0,0,0,.17,0c.45.05.89.14,1.33.23.75.16,1.47.33,2.13.54l.17.07c.28.09.54.19.8.3s.61.26.91.4a7,7,0,0,1,.89.49.24.24,0,0,1,.1.05s0,0,.07,0a8.75,8.75,0,0,1,.84.56,13.29,13.29,0,0,1,1,.92c.19.21.38.4.54.61s.21.26.31.4.3.45.42.68a3.81,3.81,0,0,1,.23.45,3.57,3.57,0,0,1,.19.45,2.56,2.56,0,0,1,.16.49,3.51,3.51,0,0,1,.12.49,7.33,7.33,0,0,1,.05,2.48ZM886.85,81.46l-12.49,24.86H830.91v0L815.7,136.08h52.7l-12.49,25.26H752.68L810.77,46.91l-7.68-17.74H917.28L904.79,54.24H857.26L843.41,81.47h43.44Z"/><path class="cls-1" d="M861,179.77a3.89,3.89,0,0,0-.12-.49l-.16-.49c-.05-.14-.12-.3-.19-.45a3.17,3.17,0,0,0-.23-.45c-.12-.23-.28-.45-.42-.68s-.21-.26-.31-.4-.35-.4-.54-.61a11.52,11.52,0,0,0-1-.92c-.26-.19-.54-.38-.84-.56,0,0,0,0-.07-.05s-.07,0-.1,0a8.45,8.45,0,0,0-.89-.49c-.3-.14-.59-.28-.91-.4l-.8-.3a1,1,0,0,1-.17-.07c-.66-.21-1.38-.38-2.13-.54-.44-.09-.87-.16-1.33-.23l-.17,0-1.43-.16c-1-.09-2.13-.14-3.3-.14H830.26q-17.53,0-23.1,10.33L789.87,214.7a11.15,11.15,0,0,0-1.59,5.3c0,.23,0,.44,0,.65s0,.3.05.44,0,0,0,0a2.46,2.46,0,0,0,.07.33,4.05,4.05,0,0,0,.12.47,6.85,6.85,0,0,0,.51,1.2,5.5,5.5,0,0,0,.4.63c.09.12.17.24.26.35a6.06,6.06,0,0,0,.59.66,6.86,6.86,0,0,0,.7.63c.3.24.61.47,1,.7a15,15,0,0,0,2,1c.24.1.51.19.77.28s.47.16.72.23a8.7,8.7,0,0,0,.91.26h.07c.28.07.56.14.85.19a18.31,18.31,0,0,0,1.94.31l1,.1c.7.07,1.41.1,2.18.12.38,0,.77,0,1.15,0h15c.82,0,1.62,0,2.41,0a.9.9,0,0,0,.23,0c.3,0,.58,0,.86,0,.05,0,.09,0,.14,0a4.89,4.89,0,0,1,.54,0l.51-.05c.33,0,.66,0,1-.09a.38.38,0,0,0,.21,0l1-.1.78-.1c.4,0,.8-.12,1.2-.19.65-.12,1.27-.24,1.87-.38h0c.59-.16,1.17-.31,1.73-.49a14.86,14.86,0,0,0,1.59-.56c.51-.19,1-.42,1.47-.65,3.72-1.83,6.73-5,9.07-9.42L853,198.37H825.92l-3.37,6.33L821,207.63h6.28v0h0L823,215.52v0a5.71,5.71,0,0,1-2.23,2.44c-.21.1-.45.19-.7.28a7.62,7.62,0,0,1-1.78.33c-.33,0-.72,0-1.1,0h-2.65a3.36,3.36,0,0,1-2.72-.94,2,2,0,0,1,0-2.39L828,185.53c.1-.19.21-.37.31-.54s.21-.31.33-.47a2.36,2.36,0,0,1,.33-.42c.12-.14.23-.26.35-.38s.4-.33.61-.47a2.59,2.59,0,0,1,.31-.19,7.09,7.09,0,0,1,3.44-.7H835a3.34,3.34,0,0,1,2.7.94c.54.61.51,1.41-.05,2.39l-4.36,8.06h22.38l4-7.48a13.75,13.75,0,0,0,1.12-2.69c.07-.23.12-.45.17-.66s.09-.44.12-.65a7.6,7.6,0,0,0,0-2.48Z"/><path class="cls-5" d="M529.44,85.73l-23.36-7.39c-3.27-1.29-5.26-2.73-6-4.27s-.46-3.69.82-6.42l4.62-9.33c1.45-2.85,3.11-4.79,5-5.83a17,17,0,0,1,8-1.56h2.71q4.62,0,6.39,2c1.17,1.36,1.12,3.27-.13,5.73L519.4,74.46,577.86,55Q580.92,44.38,574,37q-8.7-9.22-29.6-9.23H509.89q-39.11,0-51.6,24.68l-8.15,15.94q-12,23.71,17.39,33.63l23.63,7.39c3.26,1.29,5.31,2.69,6.12,4.18s.5,3.66-1,6.51l-6,12a13.55,13.55,0,0,1-4.89,5.84c-1.8,1-4.44,1.55-7.88,1.55h-3.26q-4.33,0-6.11-2.14c-1.18-1.42-1.13-3.3.13-5.64l8.7-17.3-60.08,20q-3.45,11.11,3.57,18.74,8.7,9.42,29.88,9.43h35q39.66,0,51.89-24.68l9.23-18.67q11.94-23.91-17.11-33.63Z"/><polygon class="cls-6" points="756.79 29.16 697.3 113.91 723.93 29.16 671.5 29.16 638.9 161.34 696.76 161.34 799.17 29.16 756.79 29.16"/><polygon class="cls-7" points="197.41 54.24 209.91 29.16 116.05 29.16 112.38 29.16 95.69 29.16 103.38 46.9 103.38 46.9 45.3 161.34 148.51 161.34 161.01 136.07 108.31 136.07 123.52 106.33 166.99 106.33 179.48 81.46 136.02 81.46 149.87 54.24 197.41 54.24"/><polygon class="cls-8" points="280.53 29.16 230.27 29.16 213.58 29.16 221.27 46.91 163.17 161.34 257.44 161.34 270.75 135.3 226.75 135.3 280.53 29.16"/><path class="cls-9" d="M402,29.16,350.16,131a16.08,16.08,0,0,1-5.16,5.93q-2.72,1.67-7.88,1.66h-3q-4.35,0-6.11-2.24c-1.18-1.49-1.13-3.4.13-5.74L379.76,29.16H312.81l7.66,17.7-42,82.41q-7.59,14.58,1.09,24t29.88,9.43H345q36.09,0,49.6-20.73a42.33,42.33,0,0,0,2.28-3.95L452,29.17H402Z"/><polygon class="cls-10" points="904.79 54.24 917.28 29.16 819.77 29.16 803.08 29.16 810.76 46.91 752.67 161.34 855.9 161.34 868.39 136.07 815.7 136.07 830.9 106.33 874.36 106.33 886.86 81.46 843.4 81.46 857.26 54.24 904.79 54.24"/><polygon class="cls-11" points="611.57 29.16 610.37 29.16 610.3 29.16 593.61 29.16 601.24 47.16 543.29 161.34 593.53 161.34 660.63 29.16 611.57 29.16"/><path class="cls-12" d="M583.69,176.74a10.83,10.83,0,0,0-2.62-1.9c-.33-.17-.68-.33-1.05-.49a14.66,14.66,0,0,0-1.62-.56l-.77-.21-.7-.16c-.3-.07-.61-.12-.94-.17s-.77-.12-1.17-.17a9,9,0,0,0-1-.1l-.82-.07c-.78,0-1.61-.07-2.46-.07H537.12l-29.86,55.28h22.36l10.64-19.66v0h5.09v0l-3.51,19.66h22.49l1.33-20.72q8.48-2.11,12-8.62l6.54-12q3.38-6.18-.49-10.07Zm-21.64,9.5-4.95,9.11a7.75,7.75,0,0,1-.45.82,4.83,4.83,0,0,1-.51.68v0l-.28.3a2.84,2.84,0,0,1-.26.24,3.49,3.49,0,0,1-.61.42,7.43,7.43,0,0,1-3.45.7h-5.93l8.48-15.61h5.32a3.88,3.88,0,0,1,2.56.68,2.08,2.08,0,0,1,.21.21c.49.59.45,1.41-.12,2.44Z"/><path class="cls-13" d="M612.84,172.83l-46.68,55.28h18.73l7-9.11h14.39l-2.77,9.11h22.36L639,172.83Zm-3.63,36.67h-9.93l16.45-21.3Z"/><path class="cls-14" d="M706.34,180.07a7.06,7.06,0,0,0-.26-1c-.08-.21-.19-.42-.28-.63l0-.12a3.17,3.17,0,0,0-.17-.38,3.5,3.5,0,0,0-.23-.35c-.14-.23-.3-.45-.47-.68a5.54,5.54,0,0,0-.58-.63,4.26,4.26,0,0,0-.38-.35,3.64,3.64,0,0,0-.56-.49.31.31,0,0,0-.16-.1,6.56,6.56,0,0,0-.91-.61c-.35-.21-.72-.42-1.12-.61a23.57,23.57,0,0,0-10.1-1.83h-15q-17.54,0-23.1,10.33L635.68,214.7q-3.37,6.18.49,10.08a6.86,6.86,0,0,0,.7.63c.3.24.61.47,1,.7s.42.26.65.37a6,6,0,0,0,.66.35,7.89,7.89,0,0,0,.72.33,16.75,16.75,0,0,0,2.39.77,29.65,29.65,0,0,0,7.22.77h15c1.45,0,2.84,0,4.17-.17,1.12-.09,2.2-.23,3.24-.4l.14,0a3.07,3.07,0,0,0,.42-.07c.47-.07.92-.17,1.38-.28a2.62,2.62,0,0,0,.38-.09c.58-.14,1.12-.28,1.66-.44s1.06-.33,1.57-.52a22.24,22.24,0,0,0,2.88-1.29,17.44,17.44,0,0,0,4.62-3.54,2.4,2.4,0,0,0,.21-.23c.26-.28.51-.56.73-.85a18.21,18.21,0,0,0,1.57-2.42l7.12-13.33h0v0h-22v0L667,215.36a6.85,6.85,0,0,1-2.25,2.56l-.4.21a4.29,4.29,0,0,1-1,.31l-.45.07a6.28,6.28,0,0,1-1,.09,5.24,5.24,0,0,1-.56,0h-.85a3.36,3.36,0,0,1-2.72-.94,2,2,0,0,1,0-2.39l16.2-29.76a11.14,11.14,0,0,1,.63-1,2.36,2.36,0,0,1,.33-.42c.1-.14.23-.26.33-.38a6.28,6.28,0,0,1,.58-.47,1.89,1.89,0,0,1,.3-.19,7.15,7.15,0,0,1,3.51-.7h.85a3.21,3.21,0,0,1,2.67.94,2.05,2.05,0,0,1-.12,2.39l-5.56,10.24h22.12l5.32-9.66a14.59,14.59,0,0,0,1-2,10.06,10.06,0,0,0,.44-1.57,6.86,6.86,0,0,0,.14-.79c0-.24,0-.49,0-.72a6.8,6.8,0,0,0-.09-1.1Z"/><path class="cls-15" d="M719.74,172.83l-29.86,55.28h22.36l29.88-55.28Z"/><path class="cls-16" d="M788.06,172.83l-16.57,30.65,3.38-30.65h-24l-29.88,55.28h16.2l16.57-30.65-3.38,30.65h24l29.88-55.28h-16.2Z"/><path class="cls-17" d="M861,179.77a3.89,3.89,0,0,0-.12-.49l-.16-.49c-.05-.14-.12-.3-.19-.45a3.17,3.17,0,0,0-.23-.45c-.12-.23-.28-.45-.42-.68s-.21-.26-.31-.4-.35-.4-.54-.61a11.52,11.52,0,0,0-1-.92c-.26-.19-.54-.38-.84-.56a.08.08,0,0,0-.07,0l-.1-.07c-.28-.17-.58-.33-.89-.49s-.59-.28-.91-.4l-.8-.3-.17-.05c-.66-.21-1.38-.4-2.13-.56-.44-.09-.87-.16-1.33-.23l-.17,0-1.43-.16c-1-.09-2.13-.14-3.3-.14H830.26q-17.53,0-23.1,10.33L789.87,214.7a10,10,0,0,0-1.5,6.38c0,.12,0,.24.09.38a4.05,4.05,0,0,0,.12.47,6.85,6.85,0,0,0,.51,1.2,8.17,8.17,0,0,0,.56.84,7.42,7.42,0,0,0,.7.8,6.86,6.86,0,0,0,.7.63c.3.24.61.47,1,.7a15,15,0,0,0,2,1.05,16.75,16.75,0,0,0,2.39.77,29.65,29.65,0,0,0,7.22.77h15c.39,0,.75,0,1.13,0s.86,0,1.28,0l1.08,0c.05,0,.09,0,.14,0,.35,0,.72-.05,1.05-.09s.66-.05,1-.09a.38.38,0,0,0,.21,0l1-.1.78-.1c.4-.05.8-.12,1.2-.19.65-.12,1.27-.24,1.87-.38h0c.61-.14,1.17-.31,1.73-.49s1.08-.35,1.59-.56,1-.42,1.47-.65c3.72-1.83,6.73-5,9.07-9.42L853,198.36H825.94l-3.38,6.33L821,207.62l0,0h6.3L823,215.51v0A5.71,5.71,0,0,1,820.8,218c-.21.1-.45.19-.7.28a9.13,9.13,0,0,1-1.78.33c-.33,0-.72,0-1.1,0h-2.65a3.36,3.36,0,0,1-2.72-.94,2,2,0,0,1,0-2.39L828,185.52c.1-.19.21-.37.31-.54s.21-.31.33-.47a2.36,2.36,0,0,1,.33-.42c.12-.14.23-.26.35-.38s.4-.33.61-.47a2.59,2.59,0,0,1,.31-.19,7.09,7.09,0,0,1,3.44-.7H835a3.34,3.34,0,0,1,2.7.94c.54.61.51,1.41-.05,2.39l-4.36,8.06h22.38l4-7.48a13.75,13.75,0,0,0,1.12-2.69,9.79,9.79,0,0,0,.3-1.31,7.6,7.6,0,0,0-.05-2.48Z"/></g></g></g></svg>